<mxfile host="app.diagrams.net" modified="2024-05-16T07:42:20.744Z" agent="Mozilla/5.0 (Macintosh; Intel Mac OS X 10_15_7) AppleWebKit/605.1.15 (KHTML, like Gecko) Version/17.1.2 Safari/605.1.15" etag="BxjE6zjMSEEoUQRGIowx" version="24.4.2" type="github">
  <diagram name="第 1 页" id="Qa17wefc9BP5AOupioXX">
    <mxGraphModel dx="618" dy="1276" grid="0" gridSize="10" guides="1" tooltips="1" connect="1" arrows="1" fold="1" page="0" pageScale="1" pageWidth="827" pageHeight="1169" math="0" shadow="0">
      <root>
        <mxCell id="0" />
        <mxCell id="1" parent="0" />
        <mxCell id="aAcn2XtbqvomR7ZpY9-D-1" value="" style="shape=image;imageAspect=0;aspect=fixed;verticalLabelPosition=bottom;verticalAlign=top;image=data:image/jpeg,/9j/4AAQSkZJRgABAQAAAQABAAD/2wBDAAIBAQEBAQIBAQECAgICAgQDAgICAgUEBAMEBgUGBgYFBgYGBwkIBgcJBwYGCAsICQoKCgoKBggLDAsKDAkKCgr/2wBDAQICAgICAgUDAwUKBwYHCgoKCgoKCgoKCgoKCgoKCgoKCgoKCgoKCgoKCgoKCgoKCgoKCgoKCgoKCgoKCgoKCgr/wAARCAH0ARkDASIAAhEBAxEB/8QAHwAAAQUBAQEBAQEAAAAAAAAAAAECAwQFBgcICQoL/8QAtRAAAgEDAwIEAwUFBAQAAAF9AQIDAAQRBRIhMUEGE1FhByJxFDKBkaEII0KxwRVS0fAkM2JyggkKFhcYGRolJicoKSo0NTY3ODk6Q0RFRkdISUpTVFVWV1hZWmNkZWZnaGlqc3R1dnd4eXqDhIWGh4iJipKTlJWWl5iZmqKjpKWmp6ipqrKztLW2t7i5usLDxMXGx8jJytLT1NXW19jZ2uHi4+Tl5ufo6erx8vP09fb3+Pn6/8QAHwEAAwEBAQEBAQEBAQAAAAAAAAECAwQFBgcICQoL/8QAtREAAgECBAQDBAcFBAQAAQJ3AAECAxEEBSExBhJBUQdhcRMiMoEIFEKRobHBCSMzUvAVYnLRChYkNOEl8RcYGRomJygpKjU2Nzg5OkNERUZHSElKU1RVVldYWVpjZGVmZ2hpanN0dXZ3eHl6goOEhYaHiImKkpOUlZaXmJmaoqOkpaanqKmqsrO0tba3uLm6wsPExcbHyMnK0tPU1dbX2Nna4uPk5ebn6Onq8vP09fb3+Pn6/9oADAMBAAIRAxEAPwD8BAAe/Tt606NVznP503B9OtOXdjHv3qL6WLWxu+E1jtLK+1eSLcbWAbR/v/L/AFrBbk7sde1dpcHS9D+EcQiQf2hqV86T56+SoVkP55rihkc1nTlzuUvO33G+JShGEV2v/XyAKMcH61PY20lxOqICcnAqAgADFbOl2V1baZNrDpiNBtBPdj0xVSdkZ0Ic9TyWrKOqyJ9o+zAcIMYHr3qpt4JBHrSySl33MfmJyT7008cmqtZJETnzzcmtxSFbGDShQTknNJnnqf8AGgLuPFInQULx8p/GkKZGTyc9KOVO31pSSBgHPvQGgbF4yMGgAZwTz2pBuIx+tPSN2TzewPJ9aBAYuOnH86Upjg4zjpUkUbEgY4PamTHEpYk8ccUk7stIaE+XB/WlCBj7ChockFTkUbmxjPFMLJAY1DClMeTgcCm4IO/FKCCfunigej0RZs41MZ2jBFSPGNxGe1MtAwXco78inzBt1Ytu56VGKVJDTGm7px3FHlIec449KZhjzgjPbNP+YrgjOKHdFpJ9CvdxjAK+tRbNxIyMetTXQbHHrUAwCR1NaR2PPr29oO2IR97txQF2kEHkdKblduADyaOQoGD0PFUZXW5PNcJcgFhhgMcdDUSouT9KaFyBnilEmG56UrWDmu9SSKJAwOfxpZZDMNiA4xUSu2OD34qSBcnHNHmVHsOjt8jPAHcmnG0tyoVXOcckdjRJIU+VV4B6U22dRMdxwDzmldvUr3Yq1rjJ4DAfLPPpmm4P94flVyZkuXXCO5wcn1NQfY5v+eTfmKqL03IaiRhN7YT86ktoRc3KwqOSQOPU1HCrAFsn2q/4cgaXUlbHTLbvQgZqZNpNmlKKnNLuyfxkjWtxBpbyfPa2yxyD0YZzWMACNpA/A1Y1a/m1PUZb+4fLysWY+tVgrdhTjFxgkyK01Oq2tr6E1nCZp1jAyS2B/hXovxf1rwhYeBPDXw98NQpJd6dHLc6nqKLjzmn2ssZ7/u8EVw+iJHCTeTqcRjcpPqOlU7y5ku7hrmXq7En2rOVNVKsW3pHX5m0Zexw7S3l+RAF3AsaUEMNucUq8DrSHnpxj2rU4wIXoevrTkXd1GD3pgyQcU8E/SgBcAkDH40hCjgZxQCSOn/1qToTg/hQXpuPijLnYDnNTSJsjESgYB4I9e9FvEyLkYBI/IU6YOWVRwMfL9KlsdrDoEDHcRz9aryBGmbzOhParUCYDFv7pzVZFDEhxxzzUxerE1qIYwF82BiaUeW+PMG1j7cGlMEiEOhJB6EUrMkp2GPBPQ1dy9LiPEEGD0PcHijZ6tQC8fzckZwQacI1kyYzjA6E/5zU6lRSa0LFooCZUde5p0qjp70lorCNQQQakkXcenQevWsG/ePWpRtRRCUA+f196EbdHx+lRTylgI0HftUkMTxrg9cVbVkZqSlPlXQjukUcE/rVcou0+tWrsMQML+YquY2b296uL0OOul7QaAoHTr3ocqoA70pBC4IpDu45/StDn5RNoPJ49yaQhc0u0EYI+lIV7+o65oJD7pq5p6wlyJSMdhVHLZzjIp0eVfjPWk1dFQlyy0RZuAhlYKeM8EVLFp6yxb24PXAp1jYMw8wsOmfm5q/BZTSkQQxlmb0XpWEqiWiZ0whfVkEMSxKinjBO0elP8g/31/OpJLGS1LI68q3JznvTvsZ/un8qzcvM1jTilsYLEbQqjnoa0bGX7DplxKq4LrsRs9Dms9zulA29TzVvUpRFYwWUR4xvbPqeK6XrZHPTlyJy7KxQIB60sCM7hRSEHb0q1pkKk+ZK20KCckdx0qm7IxpQU5Im1CYwWS2ikZbl/cdqz1AJ2k0+5leeVpW7n8qjXJbLCmlaI6s1OfkLtAOR0ozkdMUHpx+FGw7eh6UEAABwKVRntSBcjBzRtbGcZoJs9h/IIIH1qS3gjkk3ODgfeqNUPQLz65q1CHyI0AIHv1NS3oVvqOCg5YjgDn/CmDmXJ44PHpSsCThOSD27mkSNxOwYZI6mp2Q+mxKi/IzMMfL2qqqxk7ZCRz8pq4+UtmYt044qvGsDcSMQccEVEXoVa4fvYANg3KxySBTh5U3YKx/KljMls+5hlCMDHIpxggmX9y2055Bqm7FLaxEUkgbGAR6GhUR3JTgjsTUhEkR8t0z7GiSDOAnBA5B4//XSuWou+mxYt12xBnOWxnmoLqYBvKXr61Pa7miwefXimQ2xaVpZB1PArNNKTbPUtKdOKj1GQW2AHfv09qmKDPv0AzUhUhSccg0gTIyRUuV9TWFKMNEitegYT8aqsp6gkCrl9ksE5GPaqpBzWsHoediF+9GgAnB/WlKKD2pSMdc/lSeWCcLk1Zz2uMKgcZ596Ro+akZSDh+mOKaxIXB6007E8vcjZR1HrSxjc+0Dgnj60uD3H40iBt/Py+gqnsRZLU29Ps5ZGW3UYP8We1e2fF34T/D74TfBTwN4q0vxGLrXfElp9svrdWw0Mbp8o25OBuB5rwsXcsAjkjlbJj+Y1LHq2o6pNC+p380q28Yji86UsI0HRVz0HsK5Jw5k2zdxc5x1svzNKWJ5lJY5LEEnFJ/Z4/wCfwUraxbPB5NtGSxB3HHSqH264/vD8qw5ZnROUpS90y9LjE94pkGef/r0zUbxby8eVF2qW4GOlWrUxWlhJOQCzLtjI7Gs7aACRyTXox1bfyOSp7lKMe+rHQjeQpHXvVu6KQWa26od7DLH27VHp8RLmRuFHJJ7YqO5kN1K0pOAemOw9KN5ehMX7Ol5v8iIbccZpRhh070gDbcnij/aB6GqMOuorKOOKcQ5XkYph5PTrSlXOMH6UFCjKjNAPAA/EUgHzYJqW3hDsc9AOTSbsJJE1vGqKGLDc3TPb3qUfL8wwMjg+g9aQhQCzJgDr/hSRh3JMoG0feP8ASs3q7lu1rD4gCgdRkniMD09TTYEeNm3ZJz1qRmZE3BPnYcL/AHRUdsrBcE5yx/CpfwlLUfd/LbYbjJ5zUKRwyINsgB9PWp77iJEUep5qAQK6gxsM+nelFe6O12KGliIBH0BFSrHFIN8Jwc85pkTsD5boCO4NP8lZF3Qt7be9BpFXWmookeMmOaMnA/iFJIvmNvAwMdadCsrAo/T1bqaYWIl2D1pfaOmFOaim9mWbdWESjHO3j3p+FCk4+p9Kdbhggz6UuwkYPpWEpe8exTpqCQwqoTJI57UoTByPxqQRrgHH400gnoPx9anmKcdblS/QkgbCT2HeqgXjkc5q9qC5wM4PpUEFi8zbn+VQOWrpg1y6nlVqUp1bRI1gklIAQ/lUk0UdvFhuXz1FO3mBGijYEZ4NQSBthJP607tszUFSi11GhvNPzYBxwabJGU5I7daCpPPtQWcDBz9DVnO7ddxDjoRxSd8Hn3xTmXIBU/Wmtvx938DTM2iRd2wO+SOgqZUYkKWCIDznqfamQMqDLvx/d9aSaVpFAyM54UVPU0vZJ3NKyJc7FwqNnGByTUn2Ob+6v5U7wzDKoZpoiMjgntWn9nb1T8646tVRnY7KUJThc5bVniSOO0iPCjc3uapIPMICgY7U67uHuLhpsY3HkCpNPhdm3nhR1NehbliedNutW0/pEs7R21p5KkbnHPsKpqcA571JeSG4cSAfL/CPb0qMDnlqcVZEVpc0tNlohCOMn86UdOPXrSHIOMmnDngAYpmXUDkHbjOaRskbTgelAXqD2oCkjg8+vpQHvD1QHCdeOKtKnkqFLZI/U1DbJtG9hnH3fapVIIyFwMcZ6gVEnqVHyH7srsVs+mfX1p42oNw5ReQP7xqNEcsF6ZXP+6KeCB8232jFQ9y1rqOcsoK/xNzIfSnQpiMHGD6U13WNPLR93984/SpYlZcJkcGolsUl1ItQbDKpPQA4qErkl4znBHSp77M17hhj5QB+FQSQvHJkAj0I71ULKKRetyZZo3AEkfHrUkNqQ+9ZMr6iorZTcHayYx1YVdRAoCjpispy5dDvwlD2j12GKoTgdjVfH73OBgHrVq6UfZ/mH8QqpAj7sY4NKPw3OuvpNU0i/EF2LtPXqPSlaJgeD06CnwxkkcNwameREjP94jjPWsG9T0VBKN2ytITGuf0pturupZueacI5ZnIHOepqxDAyAAt0PXFO6SMVGcqm2hTuFVXAdc47EdajnmMkWxVAHoKsX8Z3gY4zULxfwAHPeri1ZHPVUlOSKQU7fLOee9EqfIB7cVZEICkDscU0RMoO0E/jWymcjg9SmVAG3npSFcDBJOamdSVAxznqajKlPxq07HJKKbIiWB44NLncSTmjac8+lIdvLEjNWZK8dy1FHC2n9QJBJ39MVDEiJMCSDjpmoixUcn8qUuFO4sM+tKw+aOjOii1qy060HmfM/HyDr9ad/wAJnB/z5Rfka5mWXHKnmo/Nf1rNYaHVDniZt6MapJOPU4FXJS9paeTu5cc+/vUWnQrK5kY/d5H1pLyf7TKXx8o4UZ6Vu9XYwj7lJy6vYhCtgdeKUnnkflRkjpkUnJ5GMVRhYV92cjtgUKc5GDnP50A55/rigE9wcg9qA3FbcAOSD7UmQvQ0rBmOQPwoRSZACKLjbsWEAWMEN1HzD19qm+6o3jkHJ9z6Cok5wVHsMj9alw7sCHz2TJ/Ws2NOw4SA5z0x857n2pVdgw4+ZhhQP4RSIUXC9Qp57bjTokcvtRSZG6/N0FQ7IvVjSVBWBFGAeT6mrUShpgffkVAREJ1ijAwvU+tWrZR5oJPXOTmsqj0NIq5WusvdsoByDQjysfK3dexHSkZZHuiUHzbutWoo/L5flu5ok1GJ0UKDqSv0FWGOJNqKB/e96J28uMgdc9ae5Bj3YAOOMVAoeWFmfn5hjNZRXM7s9nlVOKS7ArStbsWOfnGKW2j5AAzg1qW3h+Gfw1NrC6lGskU6x/ZifmYEE5HPtVa1tz97B4FEpxsxQw9RTjKS3VydUKITjAA6VXjimuJsAYGc1ptasyFBjkflUtvYIiARge5rk9soo9R4aVSStsQ21msa7AAT3PrSG12tk/rV5LRw25RipBZtJguOc9awdTXc7FQXIlYyb2zOwEevY1Te3KPwfxFbmq2m1VXZ0PPFUjpskjlQCB64renV93VnDicO/aPlRlrCzvtC9fvEU9rXy1Jx1GD71fFn5ZKxpgDqPWmXMeEKkYIFaqpzPQweFUY3e5jyR7xgdBVea3ZQQOmKutHg5weTzUUigthRnHXNdUJM8idO+5ScY4PPFROFOCAOO2KtTQhs7TjAqsylDW0Wmcc4OI18k4qLJ64/SpeQeTTGXnGefatFY5JavQYxOR5hycUbz6ClK4bDHv2oxF/eP5VVxWvuWSTZWjKF+Z+tUyTjORk1PdTefKQr8D7o9arZxnGOlEdNwrS5pWjstBwzwO3rSjb2pOMjmlxhuP5UzFJsUnPX8KUFhxjtTaXJ5OePWgsAxwcmnxBd4LEmmHCjOf8A61SW3Db8c9s0nsBZLBQRz/tClBLEgDBYfN/sio1yAdnJz371LtYrtYjHVyO/tWbdgSuC4IDkYHRFz/n86cgm83Yn3j94g/1pA43qVxvPCjHQVIAQPs8PLn75z+lJlJXCNUM+Y+QB1q3bKTudey8VWtlILc8duMVp6daAL50nGfu/SuarJROzD0Z1Z8qG2GneTEZ5hksMgelQtsBLcdOhNb9zp2qafYrqUUIdJFIwUzhSOtcuSxupOeMHrWdL94273PoKuFeAhGMlZv8Aq4RPK4bByAec1sWOgCbw1Lqw1CFWjlCiAsNzA55x7Yqlp1mkmmTXK3Ma7WA2MfnbOegqxp1qdpyTt+nWqqS5dtB4aldx51dNP5NhaWpEG9xyORkVPYpnIbP5VaWHEO09MVLp8DtlQoz2yK45VbptndDD8kok0dtgcHtViKzJIUL9Ktafpb3S/MpyOtbun+HsqGaM5PTjvXmVsVGn1Pbw+FckYCWUwIBHOPSr+l6S0wBZO1b3/CMzOU/0ck7+eK2NP8KyW2fNiwQOjcZrzq2YQS3O6lheWb7HCatpjSvt2cKeTVR7Hau0KMY9MV2Gp6IY5WdUP3j3zWPf2Ii59+lbUcXzJK5jWwy5mzmprZUf5RyKqXNuRlytbF1FGWIjPGeTiqlxbuAwjXcSPyr06dR3R5VSjdM5q4iZTuC9Dk4qpKpyW2nNaN0CsjEj+KqcykswWvUhI+dxEUV/LPU/r2qtcAZwefoKtsedpU1XniDMQOK6YM86orLRFUrwDnHrxUZYqeB35qZk2/uwaQouMHuM1smcU6bb0IhGzvkjAqT7JH/fH5U9UA7dKk3D+8tHOxqj5maxzwP0pQeBgf8A16AjBsZ/+vQc9MD6VqeeO4yScAZpDj+HJoyCPajcOBnGOlBX2RWVnGCO3U0iqMcmlbJUMfpSqVUYJoGtgYNj5ugqWBnxsxx3PtUZO3hsH/CpYSFXPGM5wO/tUsFy3JVA3gBvmIwg9KfIR5e0cqnHP8RpPLcDGD6sfQUqIp/etwBwo9feobKsxUVkIYD55PuDHQVKsZjIt4Rlz98+/pSJui5DbpGHHsKcSIEZFb5j1P8ASobL2iPsEDHavTf371tPJBb7FuGKoWAJx09ayLNhbxrK652nJA71Jf6h/aBSRQQM4xXPUi5z8j2cvlGFNvr2NPxJd6cL6O30XVLma2WFSfMG0hu4wD0qrommaXqQvHvdWS2aONmjVyPnODgCqFs8CXZW6kZUAPKgZBqRQZGyBlVPynHaqceSHKn8z0XV+sVvaTV9dr+Xrcm0vT9x8xjwOmK1I1ITCggdyKr2nyxcMOOtSLdvGTHgEHvXHUcpyO+jCnRpplxN0jCJU6+9a2laXK7CNUILe1Z9jFuulYkDgcV1/h2OOR1RlHB4Iry8ZV9lHQ9fC0lUnzM1/DHhye5ljjEB3ZwMj71ehaP8OcBGNuSXPyjHQ1Z+Gfhdr94/Lt95JwuB3r6c+C3wDl8TxRA2O9pCMHHQ+or8x4g4jjgm7s+ty7LamJkklojwm3+FEgiinNnj58jjtS+KPh0IUDpbnAY8gV9+6L+w54kvtCint/DMjID94x9q4f4s/suXGjWsyTaW0UkYPyletfA0uN6NSulzp/M+ilkacG4u7Pz/APFXhRrI58o89BiuK1jRpEYsE/SvpH4hfDa4sbmWK5hIVc4yOhrxvxZYRwu8IAyoPav0vJs2WIgrO58tisLKlJqSPJdb054S7xRkFQScf1qs2s3MNl5TKsYKbWcoDkfjXaa9p8SaPN5cK5MZJP4ViNoyT6KpMfUDtX21DFxlBcy6nhVsHU57xfTY4HUYmVyw78jI61ReBsZGfetzUNOninZFG5QSAhrMu4NnyAFW9GFe/SmpLQ+XxOHmnqiiF3ceo5qCVdnO386ueSQuVHPeq84O4qR0rpjLU8ycLq5RnUZyBUQyy5OMZqw8eXK+1RLHwQeB9K6VscU4vm0HElQTn9KTd/sn8qCDuHen4PotAKLMzOOCeAKOr59qXnNJwTjbXQePqOAXGAAeTScAcqOBSqQCRntSDkUCFHIzn8DSgs3G6mkAHrmlyeM9qDQdggYHNWVBQBsEH+ACqyBSw/lVvcWwF4YjjjoKmQrK4IAxKuxwOWPr9KlGQomZPl/hUUxQu3J4VRn/AHqkB2oZZAMn7q+nvWbGtxYw0XzlyZGHftUhVIkMRAMhHzH0/wDr0yMmMGVvmlbp7e9OktXjgEsjHLtwD/OobV9S1sSSkC1Py8hfxpLQRwpG0seRkEhu9TT2d1LZsbeB3xy2xc4FXbPVkvdPSyu9KgBjUKs4U7uPxrNytG6PoMDQu0no7admVJLGN703Crsjb5lT0p/lYjP1qWd/3rbTwEFUrm5dAFR/rWV5TZ6E40sOm7Flrx4T5YHBFWUBe5G44O0YH4VRA3zr8p5Uda0YmVbvdIWKjbnGM9KiaSRdKTne70ujctYVa93IeQg/kK7Pwxb7541IXjFc3Aml3uqefo0UqQGNQq3DAsDgZzjjr+ldZ4dt8XCOx7jivmsxnaDPr8HFQV90fRHwMs4jJBDbRnmQb2b/AD0r9Tf+CefwK0zxtr+nLLCmDghQOHr8s/2fZvJvYxcfKoYFWr9Vf+Cdvxv0jwfqNj9ou0Roiu1ielfzN4hVXDEJTbULrma35b6/Ox95hZVp5RVlh17/ACvl+4/T7w/8AfDGnaIlnHp0CHZgpsr5h/bs/Zq8NJoU3iG006OGZCRJtXg19S+Ffj74Q1jR47572MEx5I3jmvmr9u/9ovwxeaJLpttcJtKEOAw4rl44wPhlh+H8LieHKv8AtF4rlTbk11c10Z+U8I1+I3xEo1Oa1/evex+P/wC054Vg0vVLiNFAwTkYr5A+I2mRw6hL5a9Sa+wf2ovE+n6zqNzLY3SuNzYCmvj/AOIDzyTyOWwVyQK+04HlW+rRc+p+pZ/KiqtkcZ4ktE/seVRziE8fhWNZW0LadCr4+ZK2fEJnbSJSRktBn9KxLBhLp0ao/wDyzKkg9M1+r4e/sd+p8vKK50/I4/X2is3Z9obEh4PcVWvbjQJt1hexFHAGxyOORmm+JLKewfzhciUFzwT93npVC4db6WGK7cx72HmSSD7v5dq+qoU1KCd/uPFrP3mrL5lLWNJvLCVo7cF16qe9Y1zcGMESRYYdRXokljZlFSOXzECfK571zHiPTLCdt8bLkjjFdeGxKlLlkjw8flcoQ9pTfyOZefcAVjP1PemGXZ8uzn1q2E/s+5DTw+agH3arvLC0rGNNozwK9NO+yPmpwcdW7PsRNMASdtN88f3TSs6lwB0pcp7flVnM5SvuZ+7DbgDk0uAfmB6+nagZIBNLtC9ev863PLW4IoXgH16VPZafNeE+UdvHU1FGhlcKoJ9607cxWsYUnt8vNTOTitNy4RUpa7FG4066tjtaMkeoqIKecjBrfhuUdAp/HJpsljY3RIEIU+q8ZNYrENaSRs6K3izFt8s2QMkdKtKWDFd+Dj5zn9KJrL7DMyg7s/dGOlARXfywOBy7Vo5KWphZp2FO1xvwNinhcdakUhf30q/Mw+UU1QN3mOPlHCr61PbW/nN9ouBwDWcmktSrX1JtPtVI+03BOPQ9zTbic3MoRR8vQU5pTOCzNtjReuP6UwMstwCqbVX7o9vesdbuTNV0SNnw/rep6T5jWNyUSSMpKq8BhWv8PPBVn4za9mvNWis4bO2MjM4yXbBwoA5PI/WufhVktHlJ49K2tE1PSNM8Jyy2l6kWps7AmSEt8nGNp/hPWuStzcr5NG2lc+9ymEIQp+31jGLlZu33HPa1G9kdg3AsBgEYxVJyxdVfqQKt6pqN/rVpFNcjfIPlLKvPHrUE0bwyoZUYEIucjrXXGLjGz3PHxdSFStJwvy6Wv5lzTZ7WPVIZL6J3gRl81I2ALL3ANa+qLZX2pm60m2aC3OAkTHJHHfFY1pAHkDEYHXFbNq/zLj+dc1aVndHo4On7WDUl5+ZsaKptZFG76j1rsfC96n2lSxHWuKgl+bGeg7VraHqQikwTz2r57GUXViz6bDSVOSh0PePBHjoaU8axsQeMYNfTvwN+Os/htYtQe927cHG7pXw14c11vPWQsDtPpXo+keOZlsvIhlwVXselfmHEXDdLMI8slvufU5fmM8I7r7j9N/C/7eurQ6R9jh1t1VU/56d68o+L37Xl14lluLS91cvuJIy/SvjvT/iff2Nhs+3dVyMmub1r4kXV2Rcm4Jbdhjnr6V8JgPDXBUcW6nL6HsVc9pRpc0IJSe56N8TPiA91eyXcVy3zk/MD+leS+KPFCXjuky/wnkHrVPV/GE9+CsshwDyB6+tYF/MZGLTsShGTzX6nlWUQwkVFnzOJryrVHLuV/FfiVZrcWdm3y+WA59eOlYvhq58hZFWQEbgcelZ2rXJMz+U52AnFVNK1BoSwD5O4cGvs6WFUKHLE8meIiqqTNTUNI0zUg9zLCN75G4dzmsO/utPuYrWzlGZFm2yhuu3nirFl4mV5mtpSFRSTu707UdKsb66hvYyEbcCxH8QrtpKVGVqjfkZVJKrG9Oz6MmGmQaYjxRklGG4Kx+7x0riNT8q4lkuYWKqJCqRnqK7fW53ZXWBhvKYQn1rhL6ScvK89qFLnI2rgA12YG8ryfU8zNpKMFFbFOAyyymNssPWnXOmpIpbaAfpUmnKpJYg7scVPfuYow6AYzzzXpuTU7I8BYeNSi5S1MKaF4X+YkjPUUm9PeraOkrsGPU8Ain/Y09Y/++hW/Pbc8h4VSd4sxicDNIwzww5pxVVGM5pHGRhvWuk8N7lnTciQt2FJfMrXBByRjFTaamIGkIHJIquTly7A8k44zUp3kyxY7mVB8jnHuM1Yt9ReNwr5x/s81UH3twHT0Of0qRBvfII/Pb+lEoxa1RUHK5Zmne4lJUg7sDJ7Cmp85IYfu1PJHekwpG1Dx1dgK6X4XfCzxh8YPFcPhDwVppuLl1LMD8qRxggNI5wdqjIyx6ZqLqK8id2QeCfBt34w1NImWaCyRx9qvUhLrbp3ZsdB9a2vjFovw10Px1e6L8J/GE+taHbqnkapc2LWzS/Ipf8AdsSRhyw684zV7S/iR4o8MeCdW+A9hNY2+m6jrKy6pc/ZkM/mRq0e1Z8bhHycoDtJwSKqWmk6Tpsi2fiXw1K9sx/d3CSsoA9cgfNXJOtZ3kvQ9fAZXVx0HKLskceokuXEYyqL0B/ma6v4a/Cfxh8S9VlsPCWmef8AZ4980sh2oq+7HgVetPhHL4t1KPT/AABqgvoZZguyQbJsf7vJx719baF4g+Hn7Inwafwj4bhiufEt/bE3dxc2quoJGD1zxx09ea8DO89eApRp4aPPVm7KPZdW/I/RuB/DirnuLnXzGXs8NSV5T0959Ixezf5HxJr0F/4e1ufw1qMIWa3kKTKDwGHas+ZisZQZwxqbxNrNzr3i691i6fc807O7euajntWmsI7qBsneQyenvXv001CPNvZX9T5SvJOpVhSu4xbUe9k7C3dzNp1vHDbqVDqGz6//AFqlea61eaO5u9oZY1X5RgEAccVFFazSKJrlizNjaCc4FW44VjwOnNE5xXr3IpUqlWV5NqLtp6EqRhFH14q1BIUAAxnHpUcVvLeXMdtbrukdgAorVvP7I0C0ksrkpcX8q7SUbKwj69z/ACrkkru257VKGnNeyXV/kV475XUrE3Pfmr2lSPuJB5PeuetJ/wB6xzgA9q6HQLrSIbeSfV5WOxf3UMZwZD6ZHQe9c1alZNJHVl9VVpq7t5vodNpN69udwOAg3Fm6f/XrVs/F0ikxQtw5wST1/wAK5GfWpNRmDYVVAwkacAfXHeo47yVX4J+Xp6V5NTBxnq1qezLFxpu0dfM7q48VyMfLMvRcDBqudZMqYDfTnvXKLfzTty3TkVdh1BYSJpXAHck/0rm+oxh8KLWKVR3exuC/fIZs7jw1Q6pq8FtbNHJJlmX7o5Nc/qXiZ3lZLM49WxVXRr+G81GK0vVaUSSBWYN0ycZ98V0U8C7c0jD63F1FCHV6EFxePK5KkBcng1mz3zW84kVs47iuhvvBuqf2bea3p0LS2ttcsjtt5HJGfpxzXH3qMAQzY6ng16+HVOfwvbQ83MIVaPxfIbua4laWNzkZJGcVoXOtSxadGIpGD4zkrkisMF1kPluQaeb+6iTbKmQ3B4zx/Su2VGM2utjwqWOqUr30ubNprM00SmZ8t6nvVW+mivCI5COh781mR3aRndG+SWycmopbtzcbl79zRGhaV0OeYKdOz2HrM1kPKePcM8Edaku2NxbiRFDKBkAmq73v+khNoYDtVgGR49sIGR046Vs1ytM5YVLpxT0Mx5ANyeXy36VF5P8AtmtKTR55YQyoC+4kgGo/7Fv/APn1b9a1VWHc4pYas3exibQ2Du70YGcE0Y6dhjrTowNwXqTwa7D5nQvwkQ2QcHt6etVSwkVYyRhT1B5q5eJttlTB5OMY61T2qX2E8jswxj8qzg+ppbUCql8hwOvLcVIqMI8g8H/Z4/OmLGVGXJxk9RxT44xIwCEDn+E5FNvTcdmkSwRNOwhXKgHJPrW1o/iXUPDEhm8O6tcWcrQtHLPaztG209VJUjIOOlZjKsKeXCecZJ/rUZzI4Rfu9c+tY6yd+hN+UkeSW7lYs7bclizdWPcmtrw9441zRZPKs5lngI2MlyocMPQbs4/CsRf3riGNjtPQjqf/AK1WCBDCEjPzMOW9KiajJWkrnRhsVXws+elJp+R6x8JPip4W8HzXOqWlkLLUZRsjG7dHjjnceV/AVe8Z+LPEOtWr6l4iRL2GUkpPG52jjoGA/SvH7OCNXjjd8ljhV7n3rrrLWrzS1SK2nJc/djPzAceh4rwcTl9BYn20VeT7/o+h+ycL8WZjjMplg60kqcdrK2r6tbM5HWo9JtJWuLB2fzukcgwUP9an0mHOnM+Tzk49qd4lshNqZvXOXkJdhjHWnwARadwMDAr15T5qSsfI08PKhjqimlZX2/rqQ7dqKg4xUsFreXc8dtaW0ksjsBHGq5JJrsvhT8Hb/wAev/bmr3a6foNq/wDpupzcIgz90erHoB617/4M1nwr4f8ADF+3hTSNNsPD0hjt7DxLq6ANvTKytHwwJJwcHpxivIxmawws+SMeZ9fL59/Lc+rybhPE5vS9tUmqcHs3u7dl2Xd6Hz342Pwz0fwRYWPhh72XxEHJ1WW4TyxAQeEUBjnuM4HSq3w1+DHirx3ay+K9RLWehWkyi+1WbhEzk4BPBY4OB3wa7LQ9C+CUnirVvE3jvxj9rgs5y8dnbqu+/YkkYHHynHJGMZ4rm/jB8ftX+IMg0DSbdNM0a3wltplp8qYHALd2P1z1qqdXE1P3NBPu5S6X6Lv+SM8Zgsrw9RYvHSjyr3YU4PWTXWWrt59X0OYv9K0/TtTuYdGv3ubVZSsc7oAXHrjNMwDOqFuAcdKi08yvbhXBB3VtabceHrCI3l3E9xclx5cDDCEY6kjnNdspOOj1Z41KjSrR5o2gnr6fqNtIZFQXEpMcZblz3+nrT4rrepXsBVW5vp72QtKeC2QAOAKsWsJkG4jAxzXNNaXZ2c6k7Q/HqaNg6tkADPQCq/iTzYo4Vz95uma0dB05dTvo9Nso2kmJwoA5NeoaV+yt4l8Z3Gn2kc/lZbdcsw+VF7c4615GIzHB5fVUsRJRXmddPCV8XRcaSu/I8Ot7PU9Uvk0zTbR5p5JAkUMXLMScYr6k/Zw/4J8a54kkj8V/FFprC3VUeGyUEOx6/N029q9+/Z2/ZG+Hnwt0/wC0x6Yl5fz8y3dxGGb8AeBjnpXtz21tpWk7I02qq4BIr8l4r8UpybwuVK3Rz/yXQ+yyHglQksRjnfqo/wCZ5PqPwl8AaBpcXgvTtAtRbzRFJlaFSXBGCSSM5r5R/a6/YoHgLSZ/HXw4hmmsoUaW/gZT+5XrkdeMZ9K+1EA1LxEjFuFBwCOtYf7U3gnxH4q+B2t6D4I0Wa+1G7t/LS2gXLuhVgcD8q+c4W4ozHLc6oxlV0qNc/M9Hd7u/wCZ7+c5Nhcdl9S0NYp8ttz8mUguZZCY1JxTxcOvyXSYA9q9E8S/Bbxz8LvDl6/j7wjdaXfOpks/tiFSyLkMR684rzRr+SUjz0BOefev6jo1YYmHNTd49Gj+f8RCGFn7OpdT9CSWyhn+eJyDnjFQTLcxAecm5V6EVZjktEiMkLvuzwmOKeLuOQbJV2n3FbKUo+aOSpRpvZ2fkZSMZG3B+h6Cr6TkW2UPIx36U650q2m+aNtpPcVTmgu7Vfu7lH8Qq7xqWsc8fa4d+8r36m3pF7GbdmdwSjcg9cVd/wCEhsP+eZ/KuWS8AjZInILHmjzW/wCfgVjPCqcrnbDNfZxS5bmb8nv9KfZx751XHeoztwOvtVrS4sy+vFehJ2iz45bkuosoZbcEfKM8mol8xfm+YDv0xTrkb5zvO3HHPNRsSCREDz3jPH61KXupGy2HmUMgCRgEHkp1P51Km0xhAfnz36gVD0Xna59CDmpIkZ/lfcP97H9KT2HJ+7ZbDy4lOwHgHk+tPVmlYRRjC55PrTUQykRRdB196mC7GEUB4I+Y/wBKzbRluhZEaMCKBhk/eYdqljKWoBlXc+35UNRk+QwjiAaTt/s1YhgRt087DB6n/Cs3sVG9yayiknvEmAG719K6Cwt/LQyNye7GsTRi894SfkjVcIP611dtp97cWElxa28kkcS5eQL8q/WvOxUrOx+m8HYaP1Nze7dzmNblMl6wYDgAcVIfsGn2UdxqWW3jKQA9fQn2qjqJea4kd22tvO4elbvwz+C/iT4jXkmoyTLY6TbKZLvUrs4jjA5wB1OcY4B610N0qNHmqSskclSpi8Rj3ChT55S28vNmZrPinXY9MXRbXUJIrNvnFtG2FBPr61ov8TPFmqeCLbwbqusSHT7J2eGHAAyceg9qx/F8OmWOty22mX4urWFykU46OB0bp0rNWWaZXY/cxgGrVGjUgnyre+2t/wDMwnmOMwuKnFVHtytX0t/kW01Rrq5jjhIVARknqaQzRpNIxjBbnB9Kq26bLpVUZyQTxV1YUjkMsp3HPCCtJKMWcsKtatG8tXf7i9ZSTXIVpfvNjGKJlZrkFASA3SnaUrMCc8BTV+1vdNsVCCzaW5YceZ9xff1zXG5Wm0j3IUYzw0XJ2v1ZEls8KCaY4Uj5fetXQNI1HX7pLW0QqrnGcVHo+hX3iC8UuS5PU44Fe2fDL4YxWaR3UxCIFy0j8CvEzTMqeCptv4j08FgnXkuVNLv3Oi/Z7+CtrZXP267t98ikfOw6mvpzwL4WtrS785YVAKAAEVxHwmn8B6jELLRPEEU11brtkiQ9T78V6poMaQlSSOeB7Cv5/wCKc0xeKxMlUuvJ3R+nZJgaFGknG3yOz0Xy44tplC46+wqv4t1vFk0COBkbQaqpqcUTsXx8q9QaxNS1P+0bsQr0zyfWvz+lh5Tr876H1U6qjCyNnwfpsa4maPLnuetdOVS3v0k3YxEePXpWHo8YtYYhuyMDOKluNVCaimVJ+RiCT6dqwrKpVrMuFoU7M+Pv+CqFzbT67piKdufD14zYGNxDoBXwbDIqyAYyAa+8P+Cmtta6pq2mXTx5KeF77BPY+YmCK+EVgcyL6AV/Xfhy/wDjEcMm+n6s/nDjqL/1kqtLr/kXEVDgqFHH51FNGFl54J4qRUdHUK2VHX2p88LPt28V9hezPneS9MqyTPbHcjHA7VLDfo6Azx4pJYQysp5JqIwZUHIzWnuyRi3OMu6JrmztLsFo1AOPvLVb+x2/5+DUcss1vJ+7bApP7TuP7y1aVRLRmMp4aTvKNilkHoOB6dKuaacRtIffmq9va/aQSCAB7Vbih8i2YOwPuPWuibTVj5+2tyAu8rFssNx65yCKaI8YxGv1Xg09VhjTmNhx8rRt/OmsGaTO9WAA++uDSNbMeMvw8vGOjrmpY4cjy0UBWPzYqMthduGX26j9Knh3soij6fxnpmpk9Am9FcWLlvJhB2jgt61KztHmC3wX6bh/DTSWD+Ta8erD+VTKkVouDHl252j+dYtpdDNOwiQpbDfJzuPpyTToYJppAZASMYVR0FSQW80ku+V8seeeiinvLIX+zWhxj77+tZuV3oUkkaOl2yrIYsdDhsdvavQrNtd8PeAZbW78UiysdVfallGjM1wOCCSuQOnQ88VxPhm0BBbqzHLE17V8OLH4R6N4G1DxD438Xn+04Y9+l2c1o8kEEnHzMoHzHGRwR2rwczxUKLTab1Ssld3/AEP3TgzKa1fKo8klHS7bdklu76q+nS549/wiF94c1WHWfFGgzS2Bn3kDCmUdsg9Pxqx8ZfizqXilrfw7o2mQaZo9sgNtp1mNqKTwWIzyxAGT7VDrvjTxf4r1K7k1XxDLeW5kDKCxCnJ67SeK5TxTIZdZ2Ih+VMY9K9GhRdSrGVZJtL5f8OfO5jioYbAVYYRtRlJK7td/NdH2uU50EdsvmMDl8/WpIN8wYD5FPFLHarsVJBnHIHvU0VvuOSwIHQY4Fd8ppI+WpUZuV+46GGOP/VjB/vdzUjxrtwqDNAjYttB49atW2mXl4rR2UDyFVzhQTgVzyklq2epTou2hf0a1lOlSOqHrgVsat4Sl0sW2oag22OSLduI960PDmieX4aV3iwz9ciqnj3xXd6XH/wAI1q9nLJdqgCmQfIqkZ4FeT7WrXxHLT87+h9RXw+Hw+XwlWdtF9/YSPxXeaV5I0WARIw3K7nlua7DX/iL8S9V8Hx2i6RKkdzCFjktnC9/4gTmvHdX1ed1t2idkWNcBd3fOa9UsNM8a+JbLw9N4W1mSU3Nqs16Ap/c/MV5P4D86nG4ShSUKs4rTq+h5eHzCeIqToxb6Wt5n0D+xj8LbLwpoKeLbuTz7+8iBeQjmMf3f8+tfQ1jfgSqi9F79q87+FmkHQvBFrHa3CuUiU3APVSePxrqbTUZN3GFC/eIPWv534jrVcxzOpWm762XofrWTwjg8HCmu2p0F5qwZmIkIyOeabobC4lEnYHgntXMalrKs2yPPJrW0C5kEIdJMEda8CeGdOj6nqwr89S3Y7iPVUtowsR3dMYqjfXEp1ZJmmJAQ/L25rPt70LtYyfdNUtU1WQXuRLwB69a8+nhmp6HbOv7up89f8FF5xKLEgYx4dvFyPd1r4ZhOGVXBzng5r7P/AOChGtW8WnWDvJky6TcRj5c4JcV8VSu25WRsV/Ufh/CUeGKMX2/Vn4BxtNLP5vf+kaKQkt14281I6gLg5ziq9pek8SjOOhqys6u+0jA9a+tkmmeHTcJRuU5AFnBGduO1NkwV6fWrVxCg/eqOB6Gq0oIGR0I7mtItMwnFwbVipeKCucGqmxvSrl0w2YYc9sVVyPUV0wukeVXdplpRHbqA0EkWfUE81JLYSTW4MMyDP95gK6iS1vI8m409JQW4GzBA/Kq8ulaRPIftFrJGAeH5/lXKsUm7nfPIpL/g6P79jmRazRkmSEso7xmoThZcbzhugdOn411q+E7WSYrp2p7m7AnjH51HdeGdZgB3WcUwHG1VBNXHF072uYVMlxUVdJ28tfyOdjh8pQGXO48NHL/QVKAZCYoQcfxN3PtWg2hxkfvbCWBycfKSa0p/Bl5pUEF3eKY4btG+zzsPlYjGQPcZ59Kcq8H11PPr4KvBpW/zMHIt2WC3jBft7fWrCpHErTXDDOPmJ6/hTprObTwd9s7HP3lUnP41HFZXFxN5txgtkYTsBS5k9b6fmccqc4aSVn5jo2nuyAi7YgeAOpq1utraPLY9lHrUckqIfIthufOCVHAqey0w+Z5kuGbqAegrKTW70FFO6tudH4OiMyR3EqgH+7V/4hzCy8PMMYMjY46YqXwVp5fbtjzzg+laXxA8Itqvha51N7+3jWyAfynnAeTJAwB3618+6sHmMbvS5/ROGwVenwk40173L+mv4Hm/hiK5ubkzJE7AgBjg4pur2bxavL5yjcW6g54zWj4QuZreeSANhXABUdMVW1vb/ac2AfvnvXs87+sNdLHwboRWUwbevNcotGFYgDoOBS28DSYCLkk8D1rvPgX+zr8Uv2hvFEfhf4c+HJruRm/e3GwiKIerPjC9+tfefw7/AOCfH7K37JngOTx/+0p4+stR8TQWrywaUtwpjSTblV27iH5wOleFnXFOV5K1SqNyqy2hHWT+XRebPWyPhPM859+EeWn1k1p/wT4B8O/DWF9CHjTxfrUGn6UsojPzh53OcfLHncRx17V2Hga/8IeK/EZt/BHh6aysLO0aMPNJveZjjLs2B1IJA7A4rk/jRoc3iXV77XvDyy+RNqUz2dpHnasbSEqFUcDjHArpP2ddF1Hw0t3/AG/C0PmwnYJPl7e9a4+qp5ZKtze89o7W/wAy8NSrUs0eEp0fcW897289kvI1L3Tv7M08WpTuxHHPU1kfH/xD4S1i/tbrw1EZrtLdVkVrchkbGOe9dN4zmMM6vCpbJG0L/FXD+Ovih4cW5uLi3sLd72UDzWjhVcEADjA9q8vLYVKtaNVJtq+z017noZ77ONHklJRXd/p5lHwl8FBfImteNtWhtLVhvaLeNzD654Nd5f8Axy8D+D9LsPB/wpsGMn2Ux3F1MmMMCTjkfN0FeJ694r8R6+d7yTNEeAEztHtjpVrwz4R1p7u11i43LF5y455xnuK93EYBYhc+NndLaOy+fc+QoY6FCr7PA07t7ye/y7H1P+yP4y+I3iq2vdX8TagPsDgRQxtGQWIIORz0r2d9YYAhH4BOM964XwJJpul6LANPtFgR0BESrt2/hV7VPEDRSbE545PavxTOowx2ZznCCitkl0sfpuXylhsHGE5Nvq2dJa6oJbny8bjzknpXS6HfiKHG7JKnOTXmOn6yyS75p9oIH8VU/Ff7R3w++HluTq+vo8h3Dybch3HpkA8V5ssmxWNmqVCDk/JHZHMaGHg6lWSil3dj2RNSEbbTIBkj+L9KpX19NNebUKhQp3EnnPtXzP4D/a81r4jfFK28N6Zp622mSMWLSnLvgjBGRkV7tNrLLKG/iI4OetLMeHMZk9SEcQleSvbsPB5zhszhKVGV0nb1PDP29ZhPZWOD9yzkXr6sK+SJoyNoC8E84FfVX7as63Om2TGRiQrKcr6mvmeZI4ojIEBx0Br9u4Lbp5DSR+WcXUY1c1lJPoVI4wuMDr61YGSoB71Da3M1w5RbTe3ZQOa7fwn8GPGXiWw/tOa0SytRyZLt/LJHqAetfR4ivSw8earJI8HCUKleXLSV/kccrBVaMjnPFV5BIB86EBuhPANez6N8E/BGmTzya7r32lbcbgYztEnsMHmuP+LsWl3uk2d7o1gsEP2p1RkXGVCjGcVyYbMqGIrqFNNrvsjuxOU4qhhXVm1ddDgRaSXalYT931NQ/wBmy/3x/wB80+G6e0mkjX5hyOtN+2t/devX9++h89GOHl8e56ZbuyXUllH86rFvDMOnOMVLZRWN+pWaHc6L87beM+3rT7aySFpJGk3GQ8uf5U7TdMWw3yLM7tJxlh2zXzM6kLOz7H6PCjVvG6utb+SKqaJpM94dMy6y+WG+RcDHOKsDw1qFt+/s7s7yoUZORgfWq8+naol9fX9lCztIipCV6n5uf0qC9v8AVrVINKnkeIiVWfd1IyOP0rS1WduWWnW5ivY05NTg09bW9bGmbfWbItINPSfKjKOgGT/ERxUd5a2N2gj1iCZYIhmPErMqFuuB0HvV/S9fEAWKWHdvuXBIOSq54PNbdhJpur+fbm1x5PD71xnOcEVx1K1WjduL06o6FhcPXitU77Jo4tPBOlXLMdL1KQOCDtmPHPTHPNPv/B+vXkAgisoLhQMHyvlIH4CutsNH0jX5JI4beQRq20SrwCRweaur4Qkt2E1vqDRRxc8HJP1qZZlKnK0pa+aMJ5Jha8fh+7/J6HnFr4HMcq2zaZPAzNj5FL5/OrfibwnbaBpItxdH7TJIPlI5C4/Q5rv49K8Q6ftNvbpKrHMkknUD2phfzYy2oaEWlH+scLuUH0yfahZpUnNPdLs/8zya/C1OU04aWa3XT5afgZHw+sWNsGB4PTI61Q+LkqWthHAODK2GGfbNdtop0ud5vs1gIEgX984Y8N7jtXnfxVu7XxFqcFpa3GEHO7+916Vhg+avmXO1ZLU/VsyrU6PCXLTfvSVkur6GH4JsLzU9RNtZ2rzTMMRxxrlm+g+lP1XSo/D/AIjceIYI7mNX3yW0MxDDnlWI5U8dO1TWGi/ELRfDF3qnh2Qwae58ua9kjA54+UNjIPTp61U8K6RctDcy6rOJJSNwkLltw9cnrX0cnCPNU5l28/8AgH5vQhiJSp4V02mru7Wn/BPUNI/bI1f4d6JHo/wU0o6DKybLhoZSSR7sRk9+tPttR+JH7Q2q29he+IWu79oXnkkv7xtmAMt1zXjd3YWltfNd+eFTsa9J/Z28R/ZfGaXvmBILUKWkkbG9f7g9zjGK8XF5Zg8HQlicNTXtLX5nq2/NvU+zyXiPMMZjVgsfU/dytFRjZRsvJabH2J8EPhn+x38Dvh1D8RPjf4ml17WrRDKmi2UQaJHXkZcOC3bIIryP4k/E+1+KHhi0fTfC1lpuijVJvsckEKrKS8rFFZgASMdiaxv2mA+i28PgrS4/Nvr1VvrllY8RygSRoB7K2DWTrlnb+FvD+leC5L6KS6sLiCWfyZMh/NHmDPuoOK+Py/Lpz/2yrUlOc3dXekYrsl+p+g5vmODwFaphMHFKlGKvtdyfT+tfMoXdgl14n0+0lmPNwq8ngV598Svhz4d0fx7emJy0IkB2Z4U7Qa7qfXE0rxjZ37x7xBcK5Uc5x2rlvFGs+F7TWrnWNcvGu5pX3LEeCh+gr6PLHiKVRcrduW2nV3PynPaeHxUnzpOz67Io6J4Um8SBLLRbQG3WXc0xTao4xtyOvrXYjS/A3w9tYpfEuq+ZKq7hbg8j6DPNeb618Ztae3On6DClpD0IiHLViado/i7xxeFrKCe6YfefJYLXq1MBiMRrXnyQ7dfmz59Y7DYf3KMeefpofTXw4+LemfENXXT3kX7GnLGEKMenvWZ8VPj74d8BTGxDyzXrx744RH8pB6ZOfasj4YeEJ/BHg8QKAt5L88oJ4J4yM/hXCfH77Lq09tczWconUHO1Plx6Z6181gsqy3EZy4JXp+p6uOx2YYfKvaaKf9fiY/jD9oXx74yJsheGzhb/AJZWv3vzGDXGv9smvC+qXzbnPzM7mST8jSxeVIoSKYKB0ihG4/iTzXUaD8MPFPigwxaVNZ2iTJlWuJDukwMnGQea+9hDA5dTtFKCPgpSzHM5Xm3Nmv8As6wHTfizYTx2wTIYK88hDMOOdp6V9c3WqxiURM/UZLDtXz98KfgpF4H1SLxBqGotdX8ZwiFvlAPXB9a9UvvEchRHXR70MBgtLEAv86/NOKp0c1x0Z0HdRVrn6Dw1RrYDAuNVWbd7HEftU2t1rdjp1pbMoZ5cCR2woGepPYV5d4V+EdhcaisfxB1gWlr5gWR7TD9eRnpgYrtf2mL65fw7Z3E92UJnCtGvQKc9DVXwzfWFx4NlW9gznbskPJPHWvcy2rWweSU4031av1McTh6GNzWftOiWnQ6zwZ4Z+FHhULp+j2KuwjJNzcwB3c564bOKyfiT4gGs28DWUmzqY4ImwqpyOg681zDanfHU4rwMwBGcL2XpS6jq7NLFMpB2xbVAHv0rGGEqfWFUnJyfm7no06UIR5IR5V5Ihs7src28TRF1dmVgWOCNp/Kud8cW8T+Fo2/it5eVzwM4HStUXirqsLFhGrMfw4NYvjKVl8PXYByhcYOPcV7eFTVeFu55+ZQ5cFVv2PPb6B1uGbjJPOKiyfb8q0ZAJkwVByBn6Uz7DD6V9PGppqj83qYb3rxZ3mmeIRfRs0bwPsQF9rHI5xx71pX9zbW8QW5uBGrD72ehrm7fTPD0863PkeQEbPlhuDT7+xa9mC6fqkjhBny8jH4V4U6NGdRON18j7elisVTptTSb6WZu2EoMhWw1LzjsAyvX61oCW7ADS2kbuzkHjJA9awfC1hrGnvJKIIGkBx+8JyV9sU7WNa1Y33lRvJbEKPMBA21hUoc1S0Wn/XkdlLFWoqU0077WOqstP0++Tz5tPVHBIBJP51c0zS4rGSZklLGcDdnsBmqOk6jEbKIT3Ucsnl7i0YPIxz1osvE8VzMoLRgmTYsSA5xnG7mvMqRxMnJK9kejB4ZpPr09R8+g63aeGpNL03Y0puWlVo2OSCScH86u2C61HO0U6zFJESMFwMJlecfjV+GXH3Wq0krMAxauOeMm9JJP+karCxVrNqxk2fj2/jYwm0DuZxDGnqcd/biuwUQyxgSxg5ALDHfFZRtbKdgZrZWAcMMjv61a+0bRtU9P1rgxVSnUadOPKzpoQnCNpO5z/wATJv7G8Eave2GIna72IwPOdoNeMeEpdUvtXbULuVpe4JHANfUmjfB/Sfiv4QePWvFEOk2ou/tEs0qsd427dowDz3rjtb8Y/Bj4UmXwf4M0yDVpFzHLeFTukPrzivXy3NqcKMsPRg51L62Wy83sezmnCeJrVMLj8VXjSoRirXesnvpHdnof7O/wf+B/j3wdH40/aM+NFlp+naWgaHSbVsTuv91lKhe/XOa5b9ov9oH4LeJ42+Ff7Pfw0tbPSoWKjVvm86YDvyxHQfrXmyrNd6PqMs2YvOJwgPAHXAridNuXt9btba1kIXG5yB69avC5Sq2OliqtWUuX4Y3tFfJbv1ObNs7eAw8aFCEY+0VpSteUtbWTeya36lC+0OK1NzJe6gSY3Aij7nJwfyr179mfwjF/bc13cyowSKKe1gzzLIgLKvPqcA15J4puRPrMtvbnIM/JHTGatXeo30ltHax6m0KQD5WjcgufTj6V9DjKFbF4T2aly38unofA5TjMNl2Z/WHT5uR3Vnu/Vnt3xk8Ra9qetRXniawNnrdtL5bkkbijn91x0wqgAV5p4c8ReIdT8VFdZttrxu26csSZMHgnt0rmbK61WQtKhkZ2OBNM5J9sVseDra6tfFIe+uDI7QksT+FcUMHTweElDR6aafkezi83r5rjY1leKb1V9PK+m56Bomnw+KfFdvo91kpcyhCR1APevM7z4Z+KW8R3Wmy277YrhlMkp4xnivUPhxqWmaZ8QbPUNWuRHDHIGZmHGAR6Vo+NfFHhZvEVxew3Q8p2ysi42/j3ryqOOxWExDp04XTS1t1FjMBRxvLOpLVPucP4a+EGmWMwuNVYXDdkP3R+VdtbJa6HCsFlEkSKoyEXGefWuL1v4vaXpsxj0yA3DA/e/hH9a5HX/iR4h12VgbswxnpHGeP1ro+pZlmEr1nZf10ON4rLcui1TV35HuM+qwajbj7HI42OVzxycdq5Txf8Pz461GM3NwI0i4Yqx5rP+EtrdWejNfXlwXa5+ZQx6LXZ6cZEmZyxwfWvLnzZbiZKk9VszuUY5jh17WOj6Gf4e+FXhjwzbhoLRJZwc+e4yfpjpWrZaZJN4wS93KILS1+RAMDcwwTx9KtSzlo9wXk0+GYRLvIwzAAmuCeLxFRuVR3bTX3nXTwuHpJRpxsuy8jYguQJFbZ0Pep9Tu5GAw3P8OTxWVbzMSMsM5HWp57oMwXPzeleS6dpXR1qWh55+0a7v4StpJjki8Td+tYumztb6FBLHLjzIvu56D/Gtr4/Sq3hy1I5Ivo/61y2hXFuujF7kl33YjRew/GvtMBHmymHqzxIP/hXm/JF4yz3UsccKk8cBe1UzLIsv75uEHIPrmpzqEsGTACm/jPcVQmG+4I8zhj9010wje56c5SjZotQ3MbuZjGrorYBPaqPjh1vvDlw8Q2ndl19BkcU2Y+RdlUlyoOdvY1W8RIn9iyli24ryB0xXVRglWg0eZjpynhKil2ZwId4+h6H1p/9oTf3VqMKOSD260m1/wC9+tfS6dj8wTn3N2S6iSBpISxdRnbVa08QSwuS1uwLcMFPBqfV5Y/s4WOzEZZsOCQMjFZLMsbEWiSRrjucj9KxpwhODuiHjMVSknCZ3P8AbeladYWt3Z+JreaSaENPbxROrQMf4SSMH8KbB4ytZmwSJC3DCU5rh0d2dgJVYnsy1b0jT4Zb9Y3tT5mMqyOMfiKxngqDTkzvo8Q4+Cs7NI9MtPFlo1p9kLLtKFQsYxgEe9MsZdOW6SZpsbWUhpTk4XoBiua07SLgyNPfzd/udMCtAWNmto91atnbnGO5rzJ4anDSMtz2KHFEZJe1hsd5Z61YSN8lwvPI7VoxXCMN0UqnnPBzXm+kWuqXQElwpVR0ye1aCXOp6W25L1YUHOQeTXl1cp5n7skz3qHE+AqWUnZ+Z6AdQihjDSsFHcn1qQXtuTjzBk9BnmuWttUsNU0pFfWknmVwWiIKke5J4NbGkeEtT1ueG/t7YTCOPGxJQWc7uu3qeK4pZZOPxLXU9yhjqFZr2ck07fme3+GtIXTfgPb6jJEx8y0ZyfQ5NfFuoST3XiuQF8l7rI596/QH4waDN4M/ZvgtLWEpItjtGByST/8AXr4U0Lw7EfGqR60+zMhYAcknn0rzOB8TCrTxeIfWTt8j9G8WcHWhDLMJTVrRV3623Ot8UTLpnh4EdSxU+/Fec22+2uzcmXcwTCqlesfE/T7KHwMkn2WPdNORHIR844Gea8wi8u2h226gHaeR1z719dlVSM8O5Lq2fmPE9KUMdCDfwxT+ZXWzuLiQ3DSCIseQTya0v7PstPtPtrEMQRknqTWdpUM13cSFmzhSRkdav3MZOkpaysEzIC6n616FRu6V/U8DDQhyudtfMuaKn2kGYqNoOVB71e0sA+KZJGH3YcfoKh8OLGkClxuwxAAGM81LYzyJ4qmie1aMOgIaRdo6DjmuCpeUprsj1opU6cG+rRa1VdTmjuDpDHz4LV5Ex7Y4FcBLqWs6kxe8uJHcsQRXr/wwOnS+M2XVJEWH7M+5i4x1H51j3ukeFdJ1F5NOtFfbIxDPj17VnhcZChJ03C7STTObGYKtiKkZxnaOqtc4TTPCniDVWKwWb7T/ABNxW5pnw+sbK/VdamZwEDtt6LzjFbt/4qt7Jcy3iIMcAHP8q5zV/H8bwtFbQSMT0Zjwa6Y1sbiNErJ9jllhMvwlnOV2jvtKubOBks7BP3cS7Ux0AresZ9qknJOeprg/hnfXWo2hu7iIKCxHTrx1rsopjtGXr5rHUPZ1nBnvYWoq1CM1tY0JbsEeWGAz0IpUuc/KWyAOlUDcZOCBxTknwuVrz3T0OnmTNgXIUqy4HSnXN8wUFSeDzn0rNjuFKhg/GR19qZf3byKPnPJxj2rJUU5D5uhzXxquPtHh23IfOb5Ov41yOnzqbOGGMg7QdxH1roPjKzQeDkdGw32tCv5GuS0VmayTudnNfXZfBf2bH1Z4ntVDN5q32Uaslxjgt171FG4ku9jE5zjNNlBKZ4UgetNtJ1WYS9SW5GK2jFJNo9Oc5OQ/UNOnluAgypIypPpVXVnSOxkhlJYiL8PrVm/1K+N4Crn7neqsUKXizSSchY2OCPY1tTukmzzMRaUZpbnEBxwFpPszf5NN27WwpOB2zS+ZN/eFe89z85TNfWleVF+2Q7wOVCtgg1nTOyN5cSyxKONrgn9avavM32r97bO5XgvGTgflVG4vYpZTLLeuDnlSKmkmoJHFVcVK/XzHRhbgbFWMvnqw24/OtzwTb2VtqzSXkS/InLCQEc5FZGleK9LsbuOS+0lLhI87hwN+Rgdqz9W1r7TeS3Ngphjkc4jRsAD0olSnVThsrbmDxMY7K7O1uJxq2oSW0GpQRwxsQSZQM4/GtzR00OzsfKW9hl2EkneCcn0ryFBI5J345655q3aXdzZ/PBMQf51jUwKcElLYhVpOV2j1OfxNCwMVmMsONzLj8qgt9I1XXWM0hEag4Mlw20D8+tcv4W8e2emXnm6zZCRQh7Z57cVL4t8b2vim+gitNSltLXbh1VSMe+O9c0MHUjO1tO45Ti43PUvD3gLQLKNLiVkuZcYZ1YFM/SvTP2WdCXW/jalnCo2xzLs2DheB0r5S0r4i6voEjW2nX8ssOf4yRnHevtD/AIJb6BdeLvijHqFyS7MAzkjvkV8xxpOtl2QV6rdvd0fU/WvBbCU8bxlT50nGKu76+f6Hs/7ev/FLfDCG2jkKbo9oAbnvX58+GVnv/HEZkbIaY4456GvvT/grBq0Oiiz0FGAITcw/MV8L/DeGS68ZWpgt5JmEvzLChYnOR0FfJ+HkHT4YlVf2rs/avFnFvHcSYWjB7KLsdb8aozZ+GdMts9Z2Y49NorzODyQPKEZd5G+UKM9a9b+Omh6o+t6f4ev9MlsgEBZ50Kjvk84rpfDX7G9mfDmmfFPSvHi3unLd5uITZeWS8e1nQHccjBxnvX1OFzLBZZlsJYiduZ6bu73Wx8fj+Hc2z3PJQwdJysknqla1r7nidh4O8TXMoGn6BdxqBy0kDYI+uK9N+CP7Lt98UPFNnYeJNQg021lnRZ5dTuFt0CkjJ8yQhRxX3J8L/wBqb9nPwv8ADO4m8I/svafNfW0Oy4v9X1JLqOVwMEiJ48Jn68fhXzn+0z8WbP4xeENX1LT/AAnaaORJb+TaWAURqATuxtAFfPx4nzXMcU6EaDpK6XM2nv5f1Y+uy7w+wGXYapi8bFyUYtxUrJSa9G9PzI/i14J/Ym+BmqT+FofiB/b+pxwlF0/T7dnWOXGARdLuRhn0rw/x3Z6fqvk3hgdAQ3lgnkJnge/FcHDokkepLdG3kZfOByM8DPNeg6+IZLS0Icsq25JDHJGMV9BDCf2fKFqspyd7uT/qx8Dj8biMxjyVaUYJPRRjbTz7nnut63/wjkRkt4C+0HgDoPWuYvPHuoX7fPIyA/wpXa6vp66npWqBUBYWzBMjocV5lHZyRzeY4+62MCvqsBChVg3KPvI/Nc/xOOw2KUKbtFrYvPqDzy7h9TvOadGbi6uFTJOTwv8ASpLXSZ3t1uBFw3H41paHY+Xq1uZSB8/QHOeDXVUqQhF26HDQo1q8lzt62PQ/B1r/AGfpkFr0KxjPHet1JNoIJHsM1kaSxjATP0yavGQID6k9ua+IxF6lZtn6HRiqdJRXQsGclzIcnPWljuHOecA9sVWE24dh+NAlbZkZIHp1rBUy211NGKUCMMuOCM80k10eCB34FUROyRhcElzwNvpTLm9MZyRkjGRUqheWocyRhfGGYTeFVjJORcr/ACNcjo8xjtECr1710vxJea+8PbYVyRKGw3HTNcvpqTpBGzDAx3r6fAwUcCo+Z8/Wm1mrlbojTYNIMZ47im2bKrZXpnuaSO4jG8t3X9arI5RyeTg1aje6PRnUs1YtPcRm63v8xORyabZsrNJEoxmIjAPsareVM7b0jYj6U+1tL0SMyAR8HlzjrVxSS3OarLmu0ji7nKXbxD+FsUu1/wDIrUu9AS1vHN/qMCoX5MbByPyqx/Y/g7/obJf/AAEP+Nez7RJafkfn/wBWqqT236tI1NffwnfeZqF9cy21xcDLrAny59hkBRXn906NMSjsy7jgkYqzfve+c0cqkHoQx5FQSJxyOMcVpQp+y3d7nhVXKUn5EfBbIXHXFIqtgZBwfan+U68kcdM+9Owd3z9PWt7owshAmFwPxzT0yx3DGOOlNZSB35xmnD5OB3HPNQXFCv8Ae470kigrhj09KdGvmdc/Wr2kaVHe3ax3EhRByxAySPb1qXJRV2dNGhUr1FCKvfYoW8Qe4VAhOeBjvX6I/wDBK4/FDTtXu774SfCO78SXkNrlnkV47aHABy8oVtv5V8MWcelWt3FZWduCzyjEjdT+Ffr3/wAERPC2pWfws8a+KYJnhis9JdpSpwpG1etfmfifmdLC8Pvnp8yk0km7J3aXQ/bPDHBVspnisZTqJShC+112t87nwB+1b+1h4p/aB+Ls0PxFtIbEWty0IsrQBwCDjG7AJrvfBemaP8LfC+ofEfw3pVsus6TpMc0ck0CyRgmQLkowIPXvXzl4q8P6l4h+NV1dWkJkR9Xk3OoyM+YeK+1fhJ8LfCXxN0TxH4H8S/EPS/D0l3pKQwHVrgReaQ6ttXOcniuPO44HKcBhqNFckLJyjHa11e66n3nCFbHZ5iMZi8auaUNIN+mlvwPlLUviT4m+NfjO+8Q+LtbjfUb+7LszgQwRbvRR8qD2Ar6F+EviLwvo/gG1+EvxG+Lvh/StHhuJ5Ly+02+juZ23IAqoh255XrnvXjnj79mHQ/hp4yn8P3njS3vWWdkebSJvNiyOSu7jmuY07wBo9x4sMMUjTQqXCvIMA7QSK9HE08pzTDxUHaKScbR200tfQ1yqfE+S1k5RXO2025X0ffqe8654Q8JW+iXWm/B3xvPrsLvuVXiEP7sHOTtZskjrXpn7Cf7Lvhv43XV/4n+LOqWuj+GPDN1F/bvm3nO2Rjg84z91uK+cfD3jnUfDOlCPSIFsws2xiozuGQD19q+rPgK2uWv7Enirx/eyxRWWu63FZSOx2htsjKMYHJ+avjs8hjsPgZKnLWUklL7S77abXsfomIxFLF4Ojho1GpztDZcqTd7q/wDwx3/7YXwb/wCCcviSC30f4R+M1mkhiCrLHaJbRvtAHDo53e9fCfxm8H6R4U12ax0SUyWoTETE9Bjr712XiHXbK7itbWABFtmmjG3+LDYz+leZeNtcnnsWuNTuNjB2VfMPYHiujh7L8dhJJSrynHtLXfqYcV4PJ8BkMaDjz1VqqjtzW7OyS9Dj4oo5NL1FgxJ2EcfSuDvoJ4bqS3azVGLcg/0rtNO8R6DY2tzBeXg/eHjYck/hXO6re6XdXz3dq0sm4/dZcfgOa/TsH7SEpXTsfzJnKpVaicZLRlaawa10iGbzWRpeozkHrz7VL4ZspG1dHEbuVbJIzgVcu9ZsZNKitbWD94vAVxwnfg96qfb7+4ZppZQhPH7sbf5V1Sc5wa2ucUVClUTWtrHZLqdrZqWuLhVIPCBsk1saPP4XvLO4vtT8Qi2EC8RvgGRvQc815iqSyHczsT67s05lOzaXJGedx7150sBTl9r7j0FmdW791HRXXj2SC6Y2FmoGTg7t4I9eapa3431jVWjyyxBVAxF8uSO/FZYUDkjtUcoK/eArpp0KEdo6nLPE4iV3zOweJvHfiBntkS6IWBTs2fKTnGckda2Ifj5eJZWtr/wjtvutx80rNkv9ciuM8SnNygz1XtWaCBkMcZ7CvRWBwtalHnjsfO1s0x+GxU1Cbsdr4v8AiB4e1YRXmk2c0Ex5mieQshb1Gf5VLo3jS+hjiuEjt2GcgPbKR+orgjndsP6itSwuru3tVWO3LentTlg6UKShFbdysFnFeWJc6r3XQ7eXxtdSESSW9r8rZUC1Qc/lVO78UX94hcQwDB/ht1H8hXLf8JFOMxPDk55zwRQNavWUyJakKT1zxWKwduiPXedUZdX8kdBJq17Om12CLn5ti4NRwXCSuY7i7O0Akb26msk3Ws3EITG0HuBTI7CaRw80n47zVKjGO7S9CZY+pU+CLfroZ2pys19KM5DMTkGq2B/fb8qnu0/0uSMHhTxTfn9q9KNuVHx9a7rSv3PTPhF+z7efEjV49J1bW4dNe+cxadLeHaJZcZx0PYGuY+M3wm1f4NeMp/A+v6laXF7aDF0lq5byWzjY2QPm/wAa9K+OPj7WfETWiDw1YaGdK5tTpzOAOoydxJ7mvG9RvdT1vUZr/UpHuriRt0k0rZLe5rycuqY7EVPbVJJQa+Hs7739D1M7oZfhqSw9GN5L7Xf1RlMGBDKxA9KsSzW7MotouqANu9fUUlwsbPlMAEnhe1MVGU8j6CvYPlmmtBs7NvB9QOKUEOwVQQT604xDByvPvT1g2jdIAMjii6sVGLZa0eG2S+iF8G8oODKEHOPavZ/2kPiF8I/iH4Y8P/8ACkf2eLTwlYaJbJa6rrNvdzSSajcsAd8gkdgp+VsBcCuF+B3wZ8dfHf4gWHw3+Hmhm/1fUHCWtqJFUuSQOrEDuO9afxi+F3i34JeONQ+EviXVopX01le8S0fdGs23OzPcqSQfcVyTrU3X5L6nu4fDVY4P2jVk+pxnhmVbrxJZxlApWX5mByTzX7O/8EptWh8A/sL/ABb8Y6lsdLbRW2QOxAfPl8ZHPevxx+G1tat4l+16i2yKMFgzfWvuH4eftr/Dr4W/ss698L7LxOJLvWiEmtLcnJTaODkdMgV+Z+JmW43OcLRw2Gg5Png3ZdE02fs3hZSwUcqxSxVaNNSa+JpNpSTa/A891SGz0Wz1yx8IWUYe41Jp7WUIGZSQMkE/jXafBO0u/EVzDql7I0x27hIRyQO57V89SfH1LSTbY6K0i+QUBlPAcsTuGD6cUzTf2mfidoWmx6d4WvV0xYoynmwjJI/4Fn1oxnD2ZYzBunGyk+rfS33n3uE454byvGOV24dIxXW/nZfM9K8Vas938adTknAeI6hcyIp6HdGQK5g3uk6LI1zqVzFahLJNis335Tnd+PSvLNU8Z+L9Uun1C812WSaUku/AJ/Ssq4lvbrm5umc9QWPSvoMPkvLSjCU7WSWnkfH4zjtSrzqUabbbur/d+R6XrfxM8L/YYLMXJdkBZ/LAwWI616RYf8FCdQ0z9mXSf2cdK8E2pisNVubttSeVw8rSurLlc4+XHH1r5p8kKpx1NOtI1Eo7nBPFdUsly+pBKouazuvU8PFcaZ3iakZxajazVl20udH4k+LPi3WJpNt+0aF2ICgAAk81zNxf6hqD5uLuRweqljih4wxJbJ5PanRxKoJAx6V6NOjQoRtCKXyPncZmGY5jU5q9WUvVvQiSLe33eBwTUkcJHJ4OeKlCgYwBnP51HcSyK8ap/E+G9a0TcnY89xjBNsmVDsGQDgUqJl9pHTrikBx83f3p8b8EgYyKxd0zeMUxQgC9fypu04yBkHoKkaRVJOcY7U37TEIwpYDFLUpqPcT73y4/CmS7MEZpJ7qEH76/nVabUoAcEjjuDWkYSb2MZVYRVmzP8TKvnrk84GKyCOfbvV7xFdpNcK0RyAOtZ7Sccj65r1aKappHymOnB4qQbe+cH1resLSOKzjmcHMiEgk+9YIdSvTHtXURxxLo1tMsoLeWcgdQc1NdtRR0ZTCE60rq9kVxDGpJESnPc06JVXA2jHoKMgjPHuKFxn7w61yNtnvQUeYlkYuOQOaYdpxkflS+ZEEA469fwqPz4SBuIFJI2nON9zG1NSl+xHqc1F5j/wB41a1La84lRcj+Iio/JT/Zr0IO0EfIYiH+0S9T0X4jwQ6peJBDqMlzM43SS5+99a4LUEXTLkwqDwMNnua2fEOpPZ6w0lpcPuU4Yq3BrGuzd326aaQMe+884riwdKVKkk3pY681rUKtaXKrSv8AgRR2f2zIgQZUZbNA0m7uZ1t4oGDnlVJAz+dWdKsLjAlhgMhPBI54966G006917V9O0xbRLm7kuYILZJ5FEbMzhUQ5xhSSAcnGDXS6jU+VM8aKpyjzSRgWHhq/vNTi0u2RmlkkCHbyFycc47Vq+Ovhz4p8CTx6X4h06MR7RIlxHIrBlbkdCe1dRf32r+DNd8RaIfD1tpuq2ly1pdW+lOpiidGZX2lSQVPPIJFQ+I/EWm+JPhTpukJ4f8AK1O2uLh7i+GArqWBx9cDnmuSpXxEMQkl7t7P7r3326HoYfD4WphpTvaTV0vnsc74cnudE1NNQ0e/liEcYUzRsQy5HXI+lWjPZXV/I97dTTvISXmLZz9c81maPdSPpknmXjRGE4MO0kS+n5f1pIbybeZVsZGU9flPJqqtNubfU9fLsXThQUZbX2exqXFlaFj9mUHjr6ilhtxszs5J4qnBPrd0+20sQCRgbyMmp10vxcww6sBnoiE/yrncJbOSPSjjKHNeMW/REksGEJLAc01prKFP3twoGPWmz+DvEEq7ruaYoP7yEcUWfw4vrlTNHAGGeS8yj+dXGnB7yMpYus3eFP7xXvLIBh9pUZ6H1qnc63ZR/IrbuOcVqD4cvCN11PBFjg5YN/I1FL4K0dFKy6rC2OirGaahQg9WTLEZhNXhBIxn1+IAlYTjp1FXdH1WO6lYhCCIm7j0obw5pEZOLVHI6EjrWPrAu9GujJaII4mXauOnPWtYRo1nyxVmcE8Xj8M1Ot8PlqbaXduT87D8ahnv41BVJFznv3rmDqlyThm7c0gv5GyGBPFarB2d2Yyz2ElaKOibWQAd8Q/4Cahl16FJUk242tnmseKcs3TqRxmnyfvBkgg471Sw8IsTzHEVI+6zUl8SxcHPI7Ux/E7Ywi89s1mNAXYuUGTTVtlkBJHemqNHsYvHY16JmhL4ju5GyuB7VBLqt+ygBz+FRC2G47f1oZMDhuh6VSp047IzlXxM170mK1zdOPmm5HXNRsXc5Mv5ilJ65cg55PrSEKRnPPqTVLTYxlzS1kxpU5yzk9KQkkEDGM07bwQr5H1oTgjjH41V7IjlTI5WIUsq4OO3etGwvbj7IIw3T0qlKpdPLAySOKlt3azgAnUqegyKUkpRNMNOVGvdOysXDcy4+Zzmh5nySH471CJFblQfrTgdxO48dqw5Uj1I1nJb3FLEHAY+/vQ2COAKacAZ2mgA45H4U7IXMxFXczhsEFRwaj8uP+6v61PH8pYEDOOtJkf89R+dWpcpySpqo7nR2el6fdSSQ6hpdwXVcx7eCT+XNUY9DmeZDcWksEFwwC3EkDMEXPJ967/4pfDPxr8LPEl14f8AFtvqFnqFk2yeGa1dWRvQ59jW54C8T6lbeEdOup006U2+pNHajUrJSh2oGw27hh7V5NPGc9L2lJpp+f5aGs8E4V1GrdO9tje+BP7Pvwz8VaZqV/p/xbhlht4kjkP9kyQOzFsADcc9SK7fUf2S/gP4YvLS08V+M9UsJDavJNe/2fNJGZdv7tBgcEvgZz3rY1Twn48+KPhHTvidrFhoWn2dxctb2tn4R0qO080oAwkk8o8n5h1HatO8+BH7QXiZtA8MR6PrzWN3qMVw+o6oJTFtV1Y/M4wRgfdzz+NeZLGuFRKUtZd3/wAMYYnCTqVZRpxslvbRGR+11+wTpvwI+FOl/F/4bXc9zYT6PY3PiS+nvRuWS5UeWqofmHzbs9a8U/Z0/ZY+L37VHiK48CfBuwGqS2dk9/c2015HBHHF5iIW3SsoJLSKMDJ5zjAJr9CPi18E9P8Ai14D8ReCPHOraibGC0sIohZ3TRIzxFsfIOMA44rj/wDgib4F0Dwn+2h4s8CDWhZ6dF4VmjkvZ4Wk8sC+thkhcsfoK6frMpUU+b3jwOIs6xXDvCWNx+GpxdWjFOPP8LblFe970dNb7r1PFrH/AII4ftgWKkzfB+2mbHG3xRYrz+MlWpf+CS/7bEaqll8FbMAdRN4qsWH/AKMr91/2n/Bmhf8ADQd3onhLxFbXc+pajHFJaQ2bwizkYIqoSwAbOc5Xiuf+Ifwes/hml1pHiH4haY/iC1uvKfQrOKSVlXdgM0oHlq2PmKZyAQDg5AzqTxMZSvrZ2v8A1+R/POM8dfEjAYjEU44bCuFGTi5csuW6vZJ+3s5NK6im5aNWumfiNbf8EoP28oJAV+DOhAZ6nXbEkf8AkWrzf8Es/wBviK3Jg+GGmK/ZYvENkg/9G1+yniT4c614Y+I0nwzvpoWvo76O1Lo3yF324OfT5hVuw+Eev3njXWPCM99aWsWgTyprWrXUhW2tEjk8suxwSctgKqgsxIABrHmxDlbszCH0iPE5VJUo4PD8yk4P93U0kr3T/faWs2+iSbeh+JWo/wDBK/8A4KL3y+VJ8LLZlz28XWPT/v7VFv8Agj/+3vOMS/C+0HHQ+KLE/wDtav3C8ZfDrSdF0pfEXg3x5YeItPV/Lu5LaJ4JrVz03wyANsbOBIMrngkHAPV/E/4d6x44+KVloXhizt4Ui8H6VdX93OwitrOBbGEyTzP0RBnk9SSAAWYA7qpXtolfTz3+fkdEfH/xOcZt0MPKalBJKE5KXOpWcZRrNNLltpfrqrM/BKb/AII5ft2FSU+GtiSR0PiOy/8Aj1Qx/wDBHb9vJFJk+E1gzeo8TWIz/wCRq/aO+htre8lgs7wXESSFY5xGVEgB+8AeQD155+ldP8DvCek+Nviro/h7X4mfT3naa/RSQXhijaV1455VCOOeeMVEcTWnJR01OLC/SR8RMZjYYanQwvNOSivcqWu3Zaqrt5n4aSf8EaP+Cg3lC8PwitUt3bCufEtltJ7gHzcGszxV/wAEZv8AgoFqEUUGm/CKwZVyWDeKrAc/jNX9A3g74+eNfFnxHs9C8ZamLnw3rN/HY32gGAC0itZHCbYolx5ZQEFWXDAqDk85898ZaA3hTxfqvhhmJOnajPbZbqfLkZc/pWqxlSm1UhZ9NV/wSs2+kJxlXwCnQhQlTcnF3pTjJNK6dlXkrSW3XRq3V/g9/wAOS/8AgooTlvg7px/7mvT/AP49ViL/AIIj/wDBQwWjSv8ACfTBIGAWP/hKrHcR6583H61+/Hwm8E6LrEl7468dFk8M+HlSXUgj7XvZWJ8qyjP9+Uggn+FFdv4eeg/aQubHxH8a7C81CK3061vtF0d547WLbFbRvaQlgi9lUE4HoK6v7Txbo87S3XR+fmebT8YON1lP1+UKCblGMYuE7tS5lz39ppG8XFd2pbcuv89+n/8ABD//AIKIS2U2pTfCnTIlhYBUPiazbcSOBkSFR+JFcD+0X/wTs/at/ZW8DwfEj41fD6307Rp9RSxW7t9btbnE7o7qpWKRmAIjfnGOME8jP9MfjL4i/FPwd8YpvhX4SsTbaNa6j9h0zwrHaJJbXdqzAIGRlInMqYYyNuZt+c1+d/8Awc2+DdL+HPwC1XwdogVbOy+JtktrGrlhGjW9y6pkkk7Q23J64rWGNr1KqTta9npb7tfI+u4e8UuKcZn1DBzVN03WVGo/Zzg1JqT9xurK692XxJNaXjrZfhzPMkQLK5OOxFJb3KvwRz2ptxCzQGckAZwKt+BtO0HVfFFpp/ijWm0+wklxdXkduZWiTHUICC30r11FONz+hZV5wqrsV1nDZ3DHrg09TbKu5o3IPXDd6t/EPR/C+heOL/SfBHiOTVtIhuSthqU1qYGuI+zmMklPoTVSMHHI/WpaSNaUp1W+boMlaJxlYj+Jprxt5eDGBmpsKev6Uh+brmkpJGzpJ7lZLcxqcD8c08FAu1m6jmpWYp+9K5A7VG7pP0Tn24qleRhyxpbDokzKuzP51o+LYNltAdmDt796y4GkQ+YzfdPQ1reLblJLe3G9STH/AHqzkpKrE3hyvCVG/Iz7Q/KOe3SpjkDJ7Cq9oeOnGMZqdmLEjOM0S+I2oNOkgLknGetJu52+nvQNrdfyzQCvXBGPWpNG7jo1+Vg386i2L/z0NPW4VAxIyccDFQ/bz/zxFUkzGc4pn7Q/tL/HT9gjxH8EfGHi6L4zWfijxLdLH9hivfCVvDczMJYyVzvZidoY7uvavg/xR8UPgv8AFP4wX+r+L9KfT/B9s5bTdP0vS1jMp9GKY2n35NefeO9b17xHbWVpdy2n2bT2JjjjtEjfJBGSyjLde9b+p3Oj6l4E0Lw7ZWK289lAGv5ViBaWU5B+oxjmvhMPl+AweGtSbjdW0e3ofX182xs4r2kVOz0vFLb0tofY/wCzl+1P+yd4Z8Eab4cszHbLFeCWKxuY1lZSdoGd3OeMYr6p8a/8FV/ht498Iz/DbxL4F0bRvD/hi0t/L1eCwiSWWRmK4ICjbyo785r8hbqKa80uDSY7SBFt3ykqRBJD06kDP61attS1MaTcaFqOuXRs7g7pwyeYSwORkk5Iz+VYywuBrVIOUn7vfU8ep9YalNxTbd7LZM+qfEP7fYtNX1K18H+GrbVbDUNRnEcs8+3Kq3BxtPrWv/wSB1K91r9sbx3r8uneWknhR5ZDGSyI0l7AwTdjHIDY9dp9K+WtR0T4UeFvhfYaxp3jG/1TXZLmRTo7WqxQQqxUb/NVixPJO0jHFfav/BMXUtF8EfAH4teNfBeszvf2ejw3k4nhGIJ4rW6ZSFJIYZHcc7RXYpKE0r3vex+beK0Z0fDLHqEPequlTV3ZJzqwi312bP1I+J11Y3fxv034z2GvafLpGsaxZ3kMkV5GZbbb5ZkSWLJaMoVIORg4yOtcZ8Xtas9e+LviTxBYXq3VvdeILuaC4RsiVGmYqwPoRjFfj38Ff+Cj3/BRTxr8TtP0/WvHthe6Y0++507T/Dlm0rxhhlciIEccZHSvpz9oL4//ALdFvoOk6n8NLTRvDhmiLXP2yOOZ5eePlliO3j0rqrVE20mnd3011P58zDwO46xkKrnVw1OM6iqSvVn8TTvZezvZ3bWjttdn6Z+JvDOjeMvjMnxyn+IGhWXhm6vrS/e4k1BGuYyBHug+zqxk80MCvIC8biwXmsq68U+EvFXjL4keB4/EEFnD4s1sz6Nq88uLYyRXTyIsrgfLHIrHDYwG2E4GSPyj8DXf/Bc34vBtS+G3jTwxNaspaNW0a04AODz9mOea0PEfgX/g4T8LaTLr2q614bS1gTdM/wDYlpwP/AWu6NGpUXNGyvq9X1WvQ5cZ4eZ9SxDj7fCKVSUpzXtqjc3OMoyS/drli1J8v2le7k9Lfo14x+GY8BaSkviLxZpkmpzyAW+k6XdJdlY+8kskbFIx2Vcsx5yFGCfUfG/xv+H3iCW1+EOp+VD4W1DQNMTUde03e11Ffx2sSpPIA2JY4iuxoOmN7D95g1+PMXxQ/wCCxHhTSvtnxE8aeHoWkfZA40e0Ctxn/n3HPXiudu/2gv8AgsHrmvSWXgvx94enjhj3PGuiWbN1xk/6PXPC8KkqcGreuj/4e/ka4fwm4syylP6rXwsIVXFOMqlSTaSkmpP2S0kpNS5VHTa2rf6c67pR0LWbnRzqFrdi2maMXVjOJIZgDw6MOqkcjoeeQDkVs/CLxpafDz4kaT4v1G1ee0tLnF7CgBLwOpSQAHgnYzcHGfUda/KW9+Nf/BbOxBF1430CIn7u7w/Z9f8AwHq1p/xS/wCC4N7p/wBv/wCEr0lkLYDx+GbMr+f2erp4Oo580Zx083/kfMvwj4jyzGRxEMVhouMlKPvzdmndb09bfifsD4Y+FegeBvG9r8QNc+Ifh288MaVerfQz2mopJPqCRtvSBLbPmCRsKpVwAuTk4HPKwaPB8S7vxJ431Xxlpel3Cyy3q2d/Ptku2d2YpFx8xyQPxz0Bx+Tlz8a/+C2tnKy3fjjQ40AO1m8OWQz/AOS9UP8Ahp3/AILBWd3bLqHxX8NqPN/0qOTQbJdqAjofs/pmtZYOSVrxt6v/AC+46J+GuY1oxpU6mGVNOUnH21R3k1a9/ZppR+ytXvdu5+v/AIV+Pfifwp4Ng8Bw+F/Dd/p1vcvcRxarokdwfOfhpCW6tjC564AHQVs/tJfFqx8fatZafpOl+H/s0ej6ez3umaYiSiUWsYeIyDnajZUL0G3HavxQ+L3/AAUA/wCCovg0jT/DXiSC+nG0tPp3haznjIPYEw9a821j/gr7/wAFHfD0jaN4i+JNnYajHgyQT+E7FXUEZGQYuOKmGHxVShbmVnp93y2PZw/hPx/jsBPL6WOw9SDUHZVJO0YppJfu9tfwR/Qv4Ub4gaPpNjaQ/tDaQngxYUaa8OpRC8t7Y4MlqsRzcI5AK+Uh2k98HNfmp/wceeMI/H/7Md340W0aKLUvibaTQwPjMcZhu9inHHC4H4V8JeAf+Cw//BQXxJ8RNI8Mah8YdP8Ast5fRRTsnhSwztLAHH7qvqb/AILAXfgvW/iVo/gf4o+JdZbRF8MRX1noVtduto96Li5QXDxhgpcJlQxBIBxTrOWCqQ9pstbK78lvY9rIuAeJ8t43ynA4ucFFynUVqk6i/cRV4rmjHlilO0Ur7u8nZH5IXrGK0UYxuOQKq2jEzjFdJ8S7bSrfXGh0m1MVtuPkpuzxn1rnLJcz4r6GlJTo8x/S2JhKnjVBvaxPfZ+1orY+7U4B69vWq92Sb5MDkLzVwggZPHPNJ/CjroJupP1GYJI4HSkbduyOwx0qUkcc896a4ycZ/CoTOmcdCJgSSD0NMRNrZBxTyrF927PoBQ6jGEPXrVnO431sMuEAhbnnbwapM0kihmctzjk1emTFuQT/AAnNU0x5OB1zmtIbHDio+8l5GhaArApwMEU9lBbCnp0pLb5bdQcYp3ygZ/lWD3PWpxSpIapYgnim8g8nr704EYzkD6mkJKngceuKFuDsPiKj+HPuam/df3R+VQRcHkDn3qTyvY1MtHuVFJrVHcQ+Ik12FZBEUIPIDHAro7e/so0jSV7cSFMMzTtkEDOTXNQeF9U0CKJbjTLiOKRMrJInBHrxVv4i6XqHhTwdYeJLXxDZynURlIbckyQnuGyMZrxnh1iKvLT2PQxDnhsNGVX8O5ux65aW1sLqa/kjVbYE+V8x3c561u+CfD2ueO9JbxBoFlq8+mjaj3S2ybEkzyCc9ORXjmtaneWnh611NfEcN211Hh7ePO6E46NwBmsvSvE+pWlq1tFqdxEvJCxzEDP0BxWiylSpt6XPPePhTqpSb2vufS3iH4BeJtMih1iLxTpkmnxIksoech955KgBevavrD/gmnM0H7Ln7QN5N8qr4dcgv6LZ33NfmJpfi7xHqkg01fEU6RnljLKccV+i/wDwSgvtSm/ZD/aIvr3VzdsvhXEWQMKFsb/HbvXnzy2vho3rST7WVt38z43xdzChjfD6pDDwcYxq0G7tP/l/SMn/AIJhwTeLvGUttFYwPJJqtokYVcsQ2cgH3r7W/a3tTpsdjp0sWxorSQMpHQgivk7/AII0+NZPFnxCtPC15pZF9JdRzxX0SgBRGe/vyMcV9Sftoai03jK9sWvGmNum3e+M5IB7cVyUopQfu2adjPNY1sPneKUtVJKS31XKl910/uPqb/gnLoMVp8Kre9EWD5LAnHqxNew/tDTRxfCvUbMn/j4i8sfz/pXK/sVeGhoPwgtYimPMhjYfiua7P4tWEOqpo+l3CbopdSAlQ/xLtbg17lFXoqJ+MZjVT4j53qouP4anwZ+1OsaQ6ZpI7fvSPwIrP/Y68KwX+va3qssSkBBEMrnowNdd+3zZ6bpvxSsdP0u2EUaaOS6j+95jc/lVb9im3I8P6vfcfvNRZc+21TXjqLhipR7H67LExxOX4eulbmu9fI9C8T+HdOHiPQrI2URFxdyBgYxyAma+pvh34V8P2/g6wibQ7M/6Ouc2y88fSvmfWJRffErw3bKT+5upHZR6GMivq/w1GLXw9aR4+7Ao4r0sMtWfA8aVX7KlF+YSeEPCbqTL4Z05v96yjP8ASvz+/bU0XRdP8J+I9WTTLaOT+15IkaOBVIXzCABgV+iMmNnBr4C/4KD6FqWn/CXWNbkgCW8/iEqvqx801eIUnFW7ni8N1aVF15Tf2Gl53Pg2cc8ZxXk/7XPgF/FPwe1C80m0tUubGVLye4kQB2ijVtwDAZJ5HFerznLYyRk1ynxuXPwb8TAc/wDEnm49flNbQfLJM58krVKGd0J09+eP5o+JvgVeW9p8XdGubsAqL2LOf99a+7f+C8esala/tK+C9J02MM1x4KBxnkkXlxXwr8AvBPiXx18ZNG8OeFPDd7qt7Jdq6WOn2zSysqEO5Crk4VVZiewBPav0a/4K9/Aj4tfGf9qnwN4h+Gvw31jXtMtPCot7y/0zT5J4YJPtU7bHZAQpwwOD2IrnzHGZfh8dGNepGL5b2ckvzZ+4VslznH+IeTV8LQnKnGOKjKUYylGLapaNpNJvpd6n5uXnhjUNVgbVr/TiVztySeKwk0VFBnhiICjJxX2K/wCx5+0BH4JvLMfADUnnjQ+Vs0a881znqAVwT+lecSfsXftPpYkJ+zP4uL7ccaDcZP8A47WEOI8sjG3t4f8Agcf8z9vzfgjE0HTlTpSk5K7916P5I+cbsZ1BAoyMVeaMhdxHXtXpN7+w5+2M2piSP9mDxwUB7eHLjH/oNW3/AGH/ANsEjd/wzR43yR0/4R2f/wCJr0JZ1k+n+00//A4/5nyFDIc7U6l8NU3/AJJf5HlGE4BPPakZVBJNerR/sO/tiEYP7M3jXp38Oz//ABNNP7Dv7Yivg/sy+Nj7jw7cEf8AoNQs6yf/AKCKf/gcf8zolkWdW/3Wp/4BL/I8pEeASDjng0oQAYxk5Feqn9h/9sMcf8MyeN+fTw5cf/E09/2HP2vzyP2aPG/b/mXJ+f8Ax2m86yf/AKCaf/gcf8yFw/nLu/q1T/wCX+R5DcYMb7ewqBrWNLKKRLlWaQ5KA/d+vvXr1x+w3+2I0DY/Zk8cEkcD/hHLj/4mqcH7DH7ZQj2t+y/45Hzf9C3cf/E1tDOsnUf95p/+Bx/zPNxOQZ5Kql9VqbfyS/yPOoSPLCn9O9HlluSM88c10HxC+FPxL+EGrw+HPil4C1fw9fzW4uILTWNPe3kkiLFRIocDK7lYZHGVI7VgAFgSQRg+ldNKtSrwU6ck4vZp3T9GOdCrQfs6sXGS3TVmvVMCqqvzGoyKceCCR2pgYhtrdM961SuYSsSo6lVA/vGpKjiAK4HUEnmn+cP+elIaeh9U/B7/AIKAfDv4Tfs1eIPgl41/Zo0LxNrupAw6Z4h1NHM1hF8pwpWQDqCeh+9Xyz4q1a+1Qo8oMca/cizxU/2DVb+GO7jVCSMjBwT+tUtastYMsf2uH5mfAOQc1hhsPh6NRuOje+plisRiZ4Z09eV2IHhvLmxjhjgfyx8xYLxUUbbISFG/1HpXqOi2Fm/hU2cpjimFqd3r06V5ipmtIpY9h+WQYIPGc1thsR9YcklazHmOW/UFTlKV+Zb9vIigtby7k8q0iZiPQ4r9Fv8AgjhJcS/sf/tM294zKE8Lheeq/wDEv1DNfnhDqd3pz/NGVcuJN345Ffoh/wAEbpbjUf2Rv2m2CM7zeG8qMZ3MbDUKjML/AFV9tPzR+V+JjpR4Onyt3dShddP49M2P+CGqS3/jHX2tmeUWiqEYjnJB9PpX0/8AHMSa58TJbCUEtc3UUe0jnpivK/8Agin8OR8HPCl94t8TK9jqV/cRyzwzzKAEG7YV9MqcmvQvjbrWs6p4rvPiFpkyxxWuo8T+aNwcE7cDOTwOor53E8ntnbufRZ5mVCrWr14WcHpdeSUbL7tz6v8AiJ+27oH7NPwu0fwt4Mt7fVvEMkEYlsdrMIUC4y23Ht0PevONY/4KxeKLiSyuNb+Fip9nkD5EbKGOCONze9cD8L9a+DHwo0eL4lfFPWk1TXdaiISNm3tbjON3AOPuj86k/aP+N3wk+O/xI8HeDfAmn2x0i3A+3yvEVE0mW4OccYP6V67pQhhFUc9e3ofgixVXGZ/KlTpOzekntrocl8cf2rLb43+MT4suNEaybyPKSHI6Zz6mtX4R/tKaL8LfhdqelWFsZdYmn8223MNnO0c9+xrzf49eHdA0XxhqNto2n21gsM4VbW3HygbRwMfXNa3gH9n7wt4l8HR67qHjK3t55oTIYmmAK4GcYryvZ0nN1L7n6FDFZ0pLBRSl7NaapWT/ADPVfgP+1Xqfiv4yaU3jqOwtrd2CNcZb93gHnqevSv0JtPih4AvbCCHS/FdlNkAAR3Kj+Zr8VobPZ4oGk2W+ZftAjXyeWYZxx717n4C/Zm8T+O0v08OazqWjz6bC0iwanG5MhAJ2qQAM8frXp4PDVJfDqfA8Q5yqsUsQ2raX3/I/VWTWbN9Fmvbe6ikEcDMWRw3RSe1fEv8AwU2vgP2fNPiDg/bNWaYAf76n+teQfC2P9tCP4e6rrPgb4kX/ANl02WaC90wXQVhs4c4J9M/lU/7YHx50X4pfs6eD9Cmlmi1yxUpqdrcg+ZuUIN/TGGIJFOrCUF7y3MstnCrB8jvbc+TpiM4A4rzb9qnU9T074T+VpuqG0+2anDbXEg6GJw25T7HjNekSgk5BzXzH+258T5IfF+k+DNI1hpEs4zNqmmsD5ZlypjLep2k9+9KnCU3ZH0/BWFeM4ooK11GXM7q+kdf+AvMuf8EkJyn/AAUE8P2+7ePsWqKHHQ4s5j/Sv3M0H9m34ja/olrqizaPZ3WowiXSNE1LWIre/wBQjP3WhgchmD87M43/AMOcjP4a/wDBHoxj/goH4a1G6txIiQai7xjgEfY5iR7ccV++nxk+EPxG+MPxS1L4n/DvTn1rw7r1wbqy15JEjtraEIMx3DswW2MIGxhIVICA9CCfw/xRwNLE8SKbpyqyjSprkg7O0pVby2k7KyW1ryV3sn/or4TZjXwvDDp+2hSjKtVfPNXV4xpWh8UVeV3Le9ouy3cfM/B3w28YeOfEknhbRNKKXFsrvqEl44gisY0OHknd8LCingliOcDkkA7Hjj4CeOfA3hhvHE9zpWp6GLuO1GsaJqkd1bmdgx8rchyGAQkggEAqehBrpPh/Bd+MfA3jj4SaL4oi1HxLqmp2NzYMs7f8TyO3abzIo3mCkt86yKrYZ9mACcCr158PfGvwz/ZU8S2XjzTX0a61PxXpUlrpl7IEuZYo47sFzDneqbjwzAAlTjOK/NcPk+GqYJz5JS9ypLnTXLFw5rQdk1d2TfvJ+8raW5v1LE55i6WPVP2kI/vKcFTafNOM+S843adlzSS91pckr63UeUX9nP4i2/hyPxZ4gbStG0+5sEutPuNZ1WK3+3K0YkCwBjmRgrKTgYG4AnJArg69R/al19tb1LwRAt9HNHY/DbRreNYmBEeISzKcd8sc555ry6vLzijgsLjHQwydo6Nt3u7LslZfeexkWIx+MwKxGKavPVJJrlV2rXbbb2b21PRPg3pnh/QPBviX4za/otnqkvh9rS10bS9Sj32095cM+HlT/loscccjbDwW254GDqRa3a/Hn4b+J5/EHhnRrTxB4X0+PVNP1HRtNis2ubbzkimglSJQkgUSK6tgMuwjJB4qfBe2Xx58N/FnwW0+RDrmq3FjqPh62kmEYu5rcyrJArEgb2imYqCRkoQDkgHR8P8AgvxR8Cfhf4w1/wCJOjzaNfeItIXRdB069+S4uS88ck8vlfeEaRxEb2wN0igZPT3MHCq8FSUY/uHTqOo7e7zrntzPZTXucibvrG3xa/O46pRWYVnKX+0qrSVJX97kap35Ve7g37TnaVtJ3+HTyGvqGx8DfGa/03Srv9mj4PeFtb8Fy6dbbdQutHsbh55RGv2gXkk/zpIJN6sAVAXG3jBrwa++FfiTw34S0X4j+I7aEaJq9zshaG6RpSFPzAoDleOfxHrXqnxT8CftF+MfiMPEXwc03W73wwJF/wCEMufDU7CztbPhYlj8shYGHRw21g+4tzk0ZDQr4OnVlUpVHJ+zsqelS0uZ3u4y9xrf3fefLqur4kxGHxtWjGlWpKK9pd1fepc0XFctlKH7xO9ve91Kej6cV4wk+CmhftAancw6aL/wzaSySR2OnzEW89ysOfJR/vfZvtGVBBz5fQ963vB/ja4+OOn+IdF+IfhDw/b6NpXh+51BdU0nRILF9KljXEG14lUuryNHD5b7twYY5UEO8d/C/W/jz8f7PwV8OobO812fRrRvFt7asPssV+sai8uHeMFSA3LlAd8hIUMzAG78WPhX8WtB8KP8M/hj8F/FNr4UsHFxq2tXmiSxXGu3CA/6TOMfuoVy3lQZwgO5tzsxrqhhswpVcTWhTvQU56Qg7VG/sNK/uw63doa2fM1fjnisrrUcLQnVtiHTp+9OavTit5pu3vz1UbK9TTmXInb8Rv8AguWcftKeD8tgf8IUvXp/x93FfGKCPhWMbFRz719o/wDBcvR9W1H9orwlLp+l3M6r4KUFoYGYA/a7jjgV8TN4a8TY/wCRcv8A/wABH/wr+g+AXB8HYPX7P/tzP548QZThxrjvdv7/AP7bEh1VEIXYOgwQD1qqwQ/N+ODWnB4Q8V3ILx+HL7AHP+jOP5ikl8G+Kgm5vDt9z6Wzf4V9pGrSircyPg6tKtUlzcr18jMB+bjmjI9BVseHPEcOZZfD18FX7zG1fA9+lV/tNv6j8qu8ZfC7nLK8d1Y3tChZ9PgXyskL/eHFN1qO7VkMEG3YSS+6ustfD1gg2oEX0xxWhH4UsXj8ueJZFPow5ry1iIuq5I+k/s2p9XVO9mlY848PXd/fXUr6hNKUQcEk4qCHQ57vxB9meUrC7bw7RnBxz+NelS+BdPEWzTGELH7wZuDVW8+HmryQBrSQMUPyjzP5V0RxKcm4q11ZHDUyerKlFTlzWd3f8jzvxrpjQalu+UpsAQx9OOtfpR/wRQ8NSRfspfHC1i1SNJb/AEiNVcLzBm0vQGPPPXP4V8EvodhYSLb+KPD1ywB5kgYsP0Ffof8A8EfovDUP7O/xxk8PF9v9kQCVHbJXFpe4+nescbOc8GodrfM/KPF7ARwnBOJrxkvjoNLqv39M6Dw3rEXh3REtpUkk1OEwBJy+23kVFw26M8tu4PWtTVNK8YeKJzrl/p8SxFQUt9PTheOoUE4HrXEXF+8Ua3NzIXJGFBbmt3w/4p1yyiW/0nWLiByu1tkxGR6fSvIq05xinE/P6eIjWm4Tfnv3MbVPDmqwXJke2BUtz6j8Kz7m4u7C9E1uzwsv3GwQRXXHWLi4eSW8AZ2UlWU7fm9T61DO9rdx7L2zjcHvgZ/OtIYmcV76OCrlsG37OVn5nPy6lquvXb3uqag9zPMN0kkjZJPT+QrOF1cxuVSZgPatm+sLKwIubRmRnb/VHsPrVWHT7OcHMu0gZGe9dcakLX6HFLC4qclG+vqJ4Z8R6n4Y1y38Q6Qyi5tJVkhaQZG4HI4r6m+AP7YHx18c+NrYeN9R0iTSbm5m8+RyI5I3K9RufgZx2r5jh8Kymz/tBblQu7ag7kj27D3ojS6RPLW+EfzAbliOfzrow2KhTndM83McjxOIpctSG606/M+qPg18WNJ8HfFT4heFfEeuIY9Uvz9hmWYMrb5HBwR1zkV5/wDtj638IfF2t2J+Hd6ZNStLX7PqzmMou6MBQACBk5B5zzXl8nhN9MubbV9B8Uw3soj85zKnlmMgZ7nk1z16+p3l5NfTuDJNIzyN6knJpYit7aVtrHXluG+pYOS5G3J/krGbMpRiGHQ9RXwd+0T/AMJ43xe1O+8f6atvdyyDyDEmEeFeEIOSCduM+9fe9xbz+Xh0yR75ri/jF8FfDPxk8Mvo2sQLFeRqTY34T54G/mVz1HfAqqVSMNz6PhDOKWQZv7WvD3ZKzdtY67r9Uc7/AMELLK0uv2jvFl3dWUEktv4SZreSSFWeJjcwKSjEZXKsQcdQea+zP27f2zfiT+yh490z4d/D7S9JvrfVdBXULmPVriRCW86SPokigjCDsTnNfKf/AARp+Gnij4XftYeN/DviizMcsfg5xFKB8syfa7fDKehGMZx0PFN/4OBr25s/2mPBbW0ro3/CAodyS7T/AMftzX55UyLKs+48xsMZTU1GnSte+l4yvs1vY/qPE8fZ7wzguF1leIcaGJlj3UirWqezVF027p/C5O1rbmz4p/4LD/tFeHNNk1m0+GXhBRbjJEkV3ktnsRMK42//AOC9H7S95Obm8+Fvg2aRsBpJvtjMfxM9fFNx4v17ULY2V5rF1LGV5jllJBP41lzPuBYHHtX0lPw94PjGzwcX85f5nsY7xS4vxFT2lDFygrbe7/kfbo/4L0/tHmcRH4QeCMZxny7z/wCP1YX/AILuftHyMEi+EHgpixwqiK8JJ/7/ANfCEYeW7CRIWZnwqgZJPpX1J+yz+yybeGD4j/EaxUyMofT9OmX7ncO4Pf2IBBFcWa8H8B5Vhfa1cHHyV5Xb+8rI+N/EfO8X7Cjjp+btGyXn7v3dz65+GH/BQT9rzxrodp4k17wJ4F0mOd1c2r2d60vlcHIP2j5SRngjjvXpN5+3f4+uZ/NvtA0yaQjG6RpicDpyXrwh51hj3KB0wMCqE0rSMSOlfl9bJMnxNRuOHjGPZX/z1+Z+x0uIM5wVFRliJTlbVu1/ysr+R9CJ+3N4yPD+E9Kx7PJ/8XVq3/b18cW8LWtvo9lDG/340llCt25Afmvm0Nt6jNP3kfxkfSsv9XMoT0ppff8A5mi4tziS96pf7v8AI+j7b9uTxhby+dZ6XpsDjo6JPkfk9XU/bm+Jl4pjN7pm1hgpKbkZ/OWvmT7ROnKzNz71JfTyFUD5OFwSe9T/AKuZbHSMLfeW+KszknKUtV6f5H0xH+1L8TbobrLSfDcg93kX+ctR3H7UPxqhGU8FaHJ/1y818/lJXzKlzJF/qpmH0OKv6f4u8R6dg2Gs3EeOyykVjLhnAJ+7Tj80/wDM0jxfmD+KpJejX+R7F4r/AGwP2nrS6Q+H/B/hKCAp8w1PT7xmLexWZRivE/in/wAFav2wPhV4gl0TWfgv4LljHNveJDeBJl9R+/4Pt1FemeFPHvi2Xw+fEfiuLT9Q0u3l2SpPMgnY8fdBOT17Cua/aH0H4R/FTw2raboZSCZDiJ3DSW0394Njp0HHWuvLMDk2HxcaeMwMJwel1fT8Vr6nJmWZZ3jMJKpgsfOnNa9Pus0/wJ/2JP8AgqT8cf2mf2j9F+DXjb4b+GNO0/Ura7kmu9NS4EyGK3klUDfKy8lADkdCa+xP+FJ/Bn/okfhj/wAEFv8A/EV+Xf8AwTXE/hr/AIKO6J4HurB0a2h1RI53jKeaospsOAexx1r9a6+f8RsDhMkz2nTy6HsoSpRlaLdm3Keu/ZH03hjmGKz/AIfq1cxqe2nCrKN5JXVow027s/BKG51xgSyx4B4PSrUd/r6YCsmDVO2vJZgMrgjtjrVqO6QfeYg9MEV/Sbk09UfzfG72bLEGqeIEbJEZGeNwBrRtNd8QRAAJHjHsKz7e4iOctg/SpobiBGyXPOepoVaPYLPuzbs9c1BsJcabHID13cg/pX3b/wAEnIbW8+BfxsFvpUVq02lwLJ5YADf6LeDsPevz9GrQQoGSQsQeVB6197f8EiPEVhL8A/jhfTOYorTS4HneU4CqLW9JJ9sA0603Ki0vL8z8i8bZQfh5iI2156HT/p/TMfXrWWz1E2byIxjA5RsitPw9Jm0KZGQelVdbg0m5WLWNMvWmS6G9WC/KVPIIOeetVNOvmtpDCqk7m4xTnDnp2R+FYeqqGMcp6XN2QlpAOeOnNAmctjOaqRapE52s3Pv1qdJYWbcpwSehrjcGtGj3VVpzV4sr6pIJ5QHPTpmq882SI1K/uxgFO/41DrFw32lwvTNU7aR0fg5zXZTp2geHXxaVflRrxalJHEIppDj0BqzFcQLELhJ0I3cAnn8qxZ5Dt8tsg56U1AUUjcAMDrU+xT1NlmVSEuXc6aO/OpTxW0c1tG8jrGHJCr8xxknsPeq+p6TJp9zNby3ttIYZCrNDOGUkHGQR1FYc0wWMbGGR3FQpKwyxkPPvTVFvW5E80lpHlNVpIVOC/wCtNK28zfMVFZRkI6u3tzTfMcgDec1apeZhLMlJWcT2z9jXSbOH4m6lqUdvGZf7CePzto3BTNEdueuMjOPavA/+C4/wY8efF/8Aao8IWvgzT0kFt8PUM008myNc3tzgbsYz7V77+xXuPjzUyScf2OeP+2sdW/8AgovaPJ8U9DnSM/8AIuKGcD0nlx/M/nX55/aFbK+K8xr07OShRSvtqpH9EcO5XQz3AcF4ad1DmzV6b6Kgz859E/4J63d5oVvc678RVtb0xfv7WK2Eio2TwG3DPGOcVOn/AATucqfK+JIOR3sh/wDFV9Eu7o2MUJcY65H40pcVZ9KV1Vt/26v8j+h48GcKxiouh/5NL/M84+Ff7Jvw8+GTLPcabHf3xgVbi6vFDqzA53KjZCHPpXphARdoBwOMVE0jN8/nH8TSTXTrEckema8fFYvF46r7SvNyfmexhMDl+WUfZ4Wmox8gNvNesyQEfL6mq11ZXVoB5yYGeMGrWnXUEIJZ8MT168VFq1w0xVElLAc1lFyU+XoFSNOdH2jepTD8nNKCSenHrSB8ds0m8nvWtjhT7j4svKqN61Y1I5CCoLM/6QpPrT74klB7Z/Wps+dG0dKMmV6coyOe9IVIoIGRtzTMFuSNLcCIQecxQHO3PH5VY0mSKRzbXD4VlwvPeqiHn5qNxRsg8+tDSasawlyTTOy/Zg+Htpcftg+DvGYjjjudMj1JJXWEbpkkspVALdcKen1r7wr45/ZFnS8+OWjSMf3kcFyD7jyHr7Gr8w42q1KuZ01L7NNJenNJ/qfr3AWHpUMqqumviqN/Plgv0P5/rQtcyEPesiryvA6+9V7+91aCUraJvVRyxNCBQmd2DjtTldgCST71/Wd0nsmfyLyNrSTXoyG1vvEL4kigDKTz8xrVt5r8Ab4yDnlT2qgGKsDFIyH1Hepor1o8Cc7eeGzwaVRKa0SOnD/uXaUm/VmiqSSjBDA46Hivu3/glJC//DJX7SKSZy3hbH/khf18DmaQ/MJD7c196/8ABJqZpP2R/wBpBjyR4X/9sL+uKqnGH3fmfnnjM4T4BrO3/L3D/wDqRSPlH4QftPeM/hXZReFNUtjq2lfaFIaaU+dbIT82wfxewJ7V7t4Z/aj+CupafFq1540tdNdyf9D1KQRyrg4yVGcV8gvGXG1gBxkkVWubGCddssYYDjkV2xnBq0kXxD4b5Nm9d4inenNu7a2fyen3H3Bpvx++D3iTVYNG0b4h6Vc3l1IEt7eG4BaRj0AHrXWxajJGBhsj3r83bnwzdQzC70648p1OUKMQQfYivTvgr+1t42+EdpB4V8X2DappSz/652Jngjxyqc4bnn5vWtnh6dSPuO5+bZ14eZjlsPaYKbnbdO2vo9vl+J9oXU6zHeDyTk1EGKsGHTtXA+BP2lPhD8QUsLbS/FlvDqGoD91pdw2Jlbn5SBxnAz1rvC2cYNZcjho0fmeLo4rDVmq8HGXmrbFq7uvOj2hAPeoPPkYg54A9KQPlcEcCmsVVc7sDvk1KVkY1Ks5yvcf5kjj7wx9KYoZzgDk1HFcW8+fJnR8ddrA4qWNircCq2Ibbeo420qsFI5puDG2GHSpt0gPKnpyahkO9i1JXG1FbHtH7EkjN8Q9VXPH9inH/AH+jrqf29tcsNM+I2j217GG3+H1Zcj/ptLXLfsSIV+IWqNjg6M2D6/vo6s/8FImx8V9AGP8AmW1/9Hy1+UZrFS4izFf3aH5SP6r8O8TPC0+CqiWt82/KgeA6hei5uWkVQATwAKq7s5wPwpu8g9fpT2VPIEgPzZ6V56Vj+lKlSVaTk/UYWIJwfzoZTNtUtgEckmkllhAAXOcc/WkdgVDI3GeapJ3Oeck1a4ksDQoJFYFWJAINMDuD6092fYELZGcigIp4yPzqjG3YaXHRo/xoKxnpxS7Oc5FIUJ4J70CadtR8Cosm7eOnrS3SM5UjkBetQYKnmpU81FBxR1uOLTjy2IjnpRyTkVMj7iFKA0rwxglXXaR70cwvY3V0yAEgg4qSSAhA/Az2zzT0tizZjOaddi7mwJVzsXavHajmVx+yqKN2j0n9jksvx80leoMF1/6IevtGviz9jlSPj/pPH/LC6/8ARD19p1+Xca/8jeP+BfnI/XeAL/2LO/8AO/8A0mJ/PmqkpuVxjFPA5Bz+VVPKkPBnbHXGalSRyNrZ+uetf1u4+Z/IlOfM9UTjYWIbd1zTsRsoVhkZqJWDnJPanK+4ZL8DgVnys6eaJK0JXBhlwMfdPSvu/wD4I8ePvg7F8LfjD8Gvib8W9F8K3ni7S4bazfWLxIMxNBcwySoZWVHKmZTsDbjzwBzXwaJgvBb6DB5pZBFIhDJlSORUTp+0jyyZ81xhw5T4u4fq5XKq6XO4NSik7OE4zTs9N4q6P0A/4dO/skYz/wAPIvC3sf8AQP8A5NoP/BJz9kc8n/gpB4V/8kP/AJNr8/GeWNcQ52gcK39Klivo9uOhPDA9qzdCqtVL8EfMLhHjt6PiSqn/ANg+H/8AkT79/wCHTX7IpHy/8FIPCw+hsP8A5NqOX/gkh+yDOmyX/go94WYH1+wf/JtfBPmpuBXrSq+WLFqnkqrVT/AJcFcdSVnxHUa/7B8P/wDIn3K//BHH9kFLpL7T/wDgpb4atpI2DRtH9g+U+v8Ax/V3/hv9hj4a+HNYt9Tvf+CtPh7UIYD81lfQ6d5UgxjDbb0HHfr2r83AcjavfnFBkcnlM+1a+0xLVnO/yX+R42N8KuI8ev3+eSl64eh1/wC3dPkfo7r37EHww1fWbnU7b/gr34dsI55S6WVqmmeXCP7q7r4nH1NZ91+wP8Lr21ks7r/gsfobxTRlJEI0v5lIwR/x++lfniYYZvvIM+9RmxiU5NsufpVKdX+f8I/5Hnrwfz+mko5w9P8AqGof/In3z4O/4Jjfs++AHmk8If8ABXPw/ZG5Cico+mtvA6fevj616T4R/Za+C3hfR10zUP8Agp54E1aRZGb7bqCWPmEH+H5NQAwPpX5cmxhI5t1/KmGwtzkeQOPUVUpVJ7zf3L/IyxfhFxBi9a+cyk+/1ejf77XP11g+Bv7KaQos/wC3d4Jdwo3suq2ABOOSB9qOPpk0H4E/skk5P7dXgrP/AGGLD/5Kr8iTZ26DPkrSfZbQHJgTJ9ulSqTe039yPM/4gfmLf/I4n/4Kpn7Q/s+fCP4W+Dfihe+Kfhx+1doHjNH0RrV/DmjTW0jQAzRv9pdoriRjgoE+6o+frmvOP26viz8Mvih8WbJfht490rXv7H0hLTU30m7WeO3mMjuIy6ZQttYZAJI6HBr53/4IgxQx/tFeKzEij/iin6f9fdvXzV4Z+MXin4VeLdX/ALCmimgnvpvMtZwShbefmwCOccV+dywFXHcTZlTg7yUKFr6dJn9E8P8AB0OGuGuG8Ti8VKq8JLHJPljHm9t7JaqP8vL01d9XpZ/WnBBOefamTv2BrjvhD8a/DnxdW4tNNtJbW8tVDPazMCWXjLgjjGTj1rr5uH24xivIq4erhqzp1VaS6H6tDEUq9BVaTun1QwknrSq5U5FWNOtBczBWHBz/ACps0D7SwXCg8e9ZuXQFTmoqaGKpZxg8e9OCuOi0xHKe+KcJkz8yCkVFoUq/UoaQrL2Til3QscAEZ96eAB0dvzFLYpLm2ZXwwPNTI/msAXPNI6FuA3HoTTYAVcZ7mjoKKcZ2ZYWNVmLKMkdBSTjdufPU8GnA7WBDcnriiUAkrmpvqdTiuWwM3lIFQ4Pc03zmDYeXNNlG8hUHJ6ioFXEgBNNRuZzquL0PXv2RfLb45aQVUbhDc5P/AGwevsSvjX9jzH/C9NKA/wCeFz/6Ievsqvy3jJWzWK/uL85H69wO75RJ/wB9/lE/nr4PzEkntTo4gDk+nNR5BAbONp5GcU8OAOBnnrX9fatH8bRcb6kybVPDDg8cU4byOuD15pkWzeeM8cVNvR0x3x17VnJ2OuKvqNDsR8zBj2p6q2MgjOO1RJvjJyBz09qcCTnjn1BqGrlxl0ZIciP5znB4pk0MMoAVPcgjvSoCTjsB1pWKg5ByOnWjZ6FOzVmrjEa4gbcuWB/hJ5/OpobhJeN3PoaaJI92xuRjNDRwT/IwIPUEGhtPdEpSh8LuuzJwVydvbjg9qQkhuTn3HrVdGmtNxZlkVevPP/16lguIriPzY3GOwJwfyqXCS1Wxca0ZOz0fYf5gDYVakFwMc5A7c1DvQNlN30ApxlEmCIX46/Kajl7o0Una6ZLgMODVeeFn+5IR+PFPHmjhY2HpTxFJ5eWiGc+uKUbrYJcs1qUpYpY8q+Tx2qMKvdRjPHrWlJBKqhtg6f3hVdrUTE+UAp7kmto1NNTmnRdz7J/4IfjH7RPisYI/4ot+M/8AT3b18a+LYWfxPqJ6/wCnzd+fvmvsz/giLazW/wC0b4r3yAr/AMIU+OP+nu3r4b8cXOu2fi3U1lG3GoTYIXI++e9fLZLD2nGmZcrXwUPymfR8Q1/q3A2WOUW/fxH5wPQv2b9Zv9B+L2kLBqr2sFzceVeZl2q8eCdrZ7ZAr69ukkMjSBSVJ44r86ovEGqwTLKtyQyMGX8Oa+zf2bfjddfF7wWZNWMceoWLCG5RJR+8AA/eBOqrzj6inxdldZOOMSVkuV/o/wBDj4Oz7B1+bAu6k3zR89NV5dz0mO4aOEImR79xSt9oktxhiVU4xTInwrLjJPrT5JHiRShIBXkV8Ifoad46vQgHBwelWFhhkUHOPaq2acMEkBuKbTeplCSW6JxaKxCBx+VDWbR9WzUAdozlW5HvTjcykctnB4zU2ZopUuw97aQEAGhIJAfmFILqXAzg+lKbv5SuzBx1FHvDvTvclRlyQDyB0NDyblLdz3PaoEY5JH4c0olGOeRS5dTVVE0AJ+8BzjtTOkmQaUudnyjr3xTF+9VGEpLRI9Y/Y8Yj47aUPWC5/wDRD19l18YfsdsR8etJBxzBdf8Aoh6+z6/LeNFbNo/4F+cj9h4Dd8ml/jf/AKTE/npMat1zSR9Nvaiiv68fwn8aL40TKSOh7UiyOsxUHjPeiipOtbFmBVaIsw5zVeeeSNwqEct6UUVMdzZfASeYwQEGmrM7yFTjH0ooqVsxSb5ScRIXHuOcGrFvaxKmeTx3NFFE9kXD+IvQl8qJMssS5+lR3EEAhaZYVDKeCFoorOLd0aSSsOspDKo3KB7gVOszq+0YwW54oorOp8R2Utg8xmlOezHFNmdi4XPWiipjuExkjEMB7UMi5U4/hNFFPoYVNz7R/wCCJkCN8c/Fl0WO5PCWwDPGDdQk/wDoIr64vf8Agmv+xDqM8lzffAOxkeZy8jNqd5yxOSf9dRRX85eIeZZjl/F1Z4WtOneML8snG9o6Xs1e1z+k/DvLMtzHg+isXRhUtKduaKla8tbXTteyKMn/AASz/YGlbc/7Oun59tWvh/7XrZ8D/wDBPX9jj4b3s+o+CfglZ2E1xEI5nTUrtty5zj55j3oor4upxJxFVg4TxlVp9HUm191z7OnwrwvSqKpDA0VJdVSgn9/KdMP2VvgCOR8OoP8AwMn/APjlB/ZY+ARGD8O4D/2+T/8AxyiiuP8AtTM/+f8AP/wKX+Z2/wBj5T/0Dw/8Aj/kH/DK3wA/6JzB/wCBk/8A8co/4ZV+AH/RObf/AMDJ/wD45RRT/tTM/wDn/P8A8Cl/mH9j5R/0Dw/8Aj/kH/DK3wB/6JzB/wCBk/8A8co/4ZV+AH/RObf/AMDJ/wD45RRR/amZ/wDP+f8A4FL/ADD+x8p/6B4f+AR/yD/hlb4A/wDROoP/AAMn/wDjlH/DK3wB/wCidQf+Bk//AMcoopf2pmf/AD/n/wCBS/zD+x8p/wCgeH/gEf8AIP8Ahlb4A9P+FdQf+Bk//wAco/4ZW+AOMf8ACuoP/Ayf/wCOUUUf2pmf/P8An/4FL/MP7Hyn/oHh/wCAR/yFH7LPwDUbR8OrfH/X3P8A/HKT/hlb4A5z/wAK5g/8DJ//AI5RRR/amZ/8/wCf/gUv8w/sjKf+geH/AIBH/I0vCfwG+EngbXIvEnhTwbDZ30CsIrhLiVioZSp4ZyOQSOldfRRXNWr18RPmqycn3bbf4nXQw2HwsOSjBRW9kkl+B//Z;" vertex="1" parent="1">
          <mxGeometry x="60" y="-50" width="281" height="500" as="geometry" />
        </mxCell>
        <mxCell id="aAcn2XtbqvomR7ZpY9-D-2" value="" style="shape=image;verticalLabelPosition=bottom;labelBackgroundColor=default;verticalAlign=top;aspect=fixed;imageAspect=0;image=data:image/jpeg,/9j/4AAQSkZJRgABAQAAAQABAAD/2wBDAAIBAQEBAQIBAQECAgICAgQDAgICAgUEBAMEBgUGBgYFBgYGBwkIBgcJBwYGCAsICQoKCgoKBggLDAsKDAkKCgr/2wBDAQICAgICAgUDAwUKBwYHCgoKCgoKCgoKCgoKCgoKCgoKCgoKCgoKCgoKCgoKCgoKCgoKCgoKCgoKCgoKCgoKCgr/wAARCAF3AfQDASIAAhEBAxEB/8QAHwAAAQUBAQEBAQEAAAAAAAAAAAECAwQFBgcICQoL/8QAtRAAAgEDAwIEAwUFBAQAAAF9AQIDAAQRBRIhMUEGE1FhByJxFDKBkaEII0KxwRVS0fAkM2JyggkKFhcYGRolJicoKSo0NTY3ODk6Q0RFRkdISUpTVFVWV1hZWmNkZWZnaGlqc3R1dnd4eXqDhIWGh4iJipKTlJWWl5iZmqKjpKWmp6ipqrKztLW2t7i5usLDxMXGx8jJytLT1NXW19jZ2uHi4+Tl5ufo6erx8vP09fb3+Pn6/8QAHwEAAwEBAQEBAQEBAQAAAAAAAAECAwQFBgcICQoL/8QAtREAAgECBAQDBAcFBAQAAQJ3AAECAxEEBSExBhJBUQdhcRMiMoEIFEKRobHBCSMzUvAVYnLRChYkNOEl8RcYGRomJygpKjU2Nzg5OkNERUZHSElKU1RVVldYWVpjZGVmZ2hpanN0dXZ3eHl6goOEhYaHiImKkpOUlZaXmJmaoqOkpaanqKmqsrO0tba3uLm6wsPExcbHyMnK0tPU1dbX2Nna4uPk5ebn6Onq8vP09fb3+Pn6/9oADAMBAAIRAxEAPwD8SbZAIoxjjbyTViOIMQq9M8+9Rwp/BgHHFWEyvf6CuZuxoWI4Y8HaVGOnFWoVORtPGM4PrVa0O9V4wevNXrfAfnkj26UuYasyY26TD58Z4+Y9qy/EELWcWwEFSRjHQ1rwhmcsDk88GsXxnP5YhUMO5xWlOT5kEldXDRY45nW5E4DRuG2HqRXUadIgiB2++feuR0Swa7jW/jfmJslcdRXVWQZYVAHbmqqSuwpp7mD4mlM/iWJSh+XGCKtahdhLyRducPxzVPV7O7j8SpeBC0TPywPTjvUN1cf6W7kbstxVJ+6iZGhFeu7xqWYSjkSA8/jV+21wXR8i6+RgeGzw3vXPWc5FwzY48tj9OKo29zNdWv7p2PcAngVlOKktQ5mkjsNU0q31nH2iZllH+ruPQdgfauI1zT7/AE+9aO9j74R8cMPUVu6D4inQmzvMlRjJHUela9za2uqWvkSqslu3PA5U+o9KyU3T06Grgpx03PPrp2XSZdg6sB/Oq2k6lcoDFN9wDJrZ8T+Hr3RrKRYP3kEj5Djoo9DXPWAch8k8rWycZxujDVPUseJJo9qRGLJb5lY+lYZXcTgYFa3iaUPdRqf4YsD86ymXjaG+ue9aRVkIZ0bdjHYUhA3ncOvNDNgg9e1IxzyCfxqgF3BRnYCKYxLkEDAFDksMA45odsgYP4UABGM5PFIUzyAAacNoBOD9Ka21uAeaAFyFPI570Ahh0oBPPbPHFB2jODnPegBcA9RRTVCnGOg7U5iTyBQA0oTxxjNKBk9Rx+lJtGcc49fejcF4DGgB1NON3K5/pS8gZB5IpMg59xj60AKNuN2MUjMD7jv70cnAZvoKUqCMDigBNvGV4p1NUjOAT+NKOMn3oAMHJzSAj7oyKcFDDdu6dqFXnjvQAhbHHejAYjPY804jA5NJketADecHdmgqoHU07jOaFAAJzQAgx90MB6UBjk8fj60KF6g/jS7lKbeuefpQA0EKM8807AUbt5+lJgH5M9elHygmMjJGOaAFVFByOnelZRxzn2NB7kZ7UZy2CO4zQAq4PyHp6e1KwUkZbnsab8xxyf8AAU7AAyRn8KAEJIJBbFKEOMnj+tJtG08YJ65pxGUCsc+vvQAwIe1KqlTjGacgAAAOR2oU4IyT0oAaFQ8/rQ0eRgNkHtTiCMA96R13HDHORj6UANACN8v40g+dSQ2KdtJHAGRwKbGwA29D2oAQAlsgdqQq2M9804knJJpgwTu96AFAO40bgGxj6mlOduSeT3pPl/TrQAERHkiij93RQB6TEqLMyuTyflA6VMIxkfLz1GeaiRDIxJ6g56VZhXIyvGOtcbZqlcdC43BCAeM9KvQKCuQ2Pp61TMLFVaEgY9T1q1pvmXcZ5VNrkDJ9KWyuxxTuWozlSRx2yRXNeOpVW9t42PRD/SumMbLksxBPA5rkfHhJ1eJc5wnGT9KKcrzCorRN3wZxpjFiQpOSVOK1xKxQ7ZD0zyKyvByKmiozAYycgn3rUDqkZbAwR+NE5WmVBLlMCQaxp+skmTfBcSEsccDj07dKqPKkuZUbPPBB61000CTw5b8RjrWFqPh2SJvN01gpAz5Z6H/CqhU5lqTKDRXikESTvuziMjH51D4XiR4FaQdcjj6U23mjMEyai5hGQrNjvnFXPD9iLR2thIJFGSrA8EHpV3S3ISvIq6q7abdI8JCmQ4BrUsNUNpIIrdxjbl4j0Y98elY3i/5L+yiyRl89fcVlf288Vy4d8qJCMdxg0nH2kUVe0j0CO4tNStXh2Kyyf6yBxkGuZ17wW9nLJqekxkwHrFnLJ/j+FMt9TlMX25bgqyuqo3rkd/WtbSfEdvqR8ppdkoHfgGsuWdN3RpeFR2aOE1oNPNvXkjgj0rNdVY+46+9eheJPBsGpj7ZpOyK4Ay6ZGH+npXD39lJFK4aEo68MrDBrqpzUkYSi4uxRIw2TwKQhcE4708r/AAnqPxpm0tyMe4rQkaQDwaQAryD+FOYEHJH400E5yB+tACszMuQOabggbiO9SBQOQeT15prAkYoAXBC5akwFXHajJC4J/PmkzkkN60AOO0c4pAwzgdD6mlYAr14+tJtGMUALSfKwxn86D3wf1oPADdT/ACoATafrSDIIzTsMPmJz7ZpSBjpQAw43BuTj3peuDkg+npSgE5BHAoKknj880AAUjqc0AgKeTmlUgHHrQV45FADFBJ6e5p2GHfp0xQASPTHvS0AIQetAHOMj3GKXG7j2oVCuM4HvQAhCkYNAXjBIx6YpeM9DmnZUjIAoAYqgpwv4CnFUAwppF4JK/qaNpPOMe1ACEHPGOvWlKkNvyORzT1wRnGKNgxnJOKAG4PRDgHtSqNoNKCCOKVckYx9O1ACFM/dY47ihFYjBGB3NOCsAcNn1pxGEGW/CgBm1cYHIp+wEnjGOxp6xcAqPrTtg3bxn09aAIvLU9FAzzQUUDjjnpmrKQH060rWnzZP50roCoE28oe9BHJLMcfWpvKIJ3L6jp2qKRN53dvSmBEVyDzj0pN3PH05qRhjqOKYVUnk0AN9APwpGA249KdgA8jJowoGMfWgBijMYG76fWgRN0J/Kl2jpjgdOakt1wxyMnHBxQAiR8cn9aKUuAcNkn60UAelQRZZiTjjjtU4Uqm7PI71BGpZc85J4I9KsDJXAPHeuM6BqXG4sqg5HoKv+G0SW1kidR/rW6iqFmu7zFdsEMe3pWj4QkEljI+AT57d/epm7RHFXsWTDJFEcKCu77pPPHv2rh/HsqN4j2Jk7Yl4xjsOK9Cu02rhlOOpFea+MbjzfEc3YALjj2ooNuTYq1jsPDMSR6PEq5BZTw1aA+8PM6HpisTRNRvEe3smI2YHO3n6Vttz3+mfSpmnzXZVPVaC7vlJHU1CzhuvYdxUv3kzkEgdu1MfJyBjg1F10LavqZmraHb6nE0TqNr46cHiqui6fJYSPau5wBwx4H0rZfDIGz0PQVBOrM4YAHAxVxnfchwV7nPeJbFL7UYZIZxvgIZkLdR7VyMshN5Llf+WrY/Ou31TQjfXH9oLKVlUYwvQj0riNQs7myvJIbuJoyzkgHvzXRSkmYTT5jVhkI0eLJPzTDIz9ane0cMtyjlcdwelVliuf7Jtm8k48zrj3ralhCacJGQD5OKblYlLQt6LrYuENvO5Kj7sgHIPv/jVjXtBsNdiBkws2P3c6dD7H/GuSsL827F1BHz9M8D61s2GvTQfMgUq7/OrNx+FZSjJO8TRTTVpHMa5oF1pV08FzFtcHqBlWHqD3rNI28YxXo93Lpuv25hmAkRjnOcMh/wAPauT8S+FbnTVNxEpeEtiORe49/Q1rTq8+jViJRs9DCddxCg80m3kDA49qUgg4Oc/Sg+/XvW5I3nOXIpATzk06kIOBkjrQAcdd2P1oO4nIIoCjGScmkwx56GgBdq5OcY7YoPAzzjPNA+X5TSnpigBMr1BFA3EEBhQUPVh+QoYcYHQelAC4bGD3FABA5/Ok3Aj7360oBzgnI9KABMAbT375o+U9fSmnJ4A79aUkA5HJ/lQAi4BGD2p55TIfOOuaTaNxwB1pSgUnAOfTFACKPlzuGc+tOAyOT1pqhhkY/DFO6jK/XNACYUHeOe1KAMZY8Um7HBxzSxlSNoNADVDE89KcdqjK96NrDPNCbmbj8aAFjA54596MYHP6UmDkbeR60KGIIfPXjFAClVC4J57CgEgcj+tOC54OKTvg8UAC9TxwaXaV5FAVuidc9DT0jVjgH2NACIGOMkZp6oG+UHJz6Uoj39Tg9Kt2tsJMIB06Um7ANhtXlUbRx345Naug+ENX1y5jsdLsJZ5pDhYoUJZj6ADrX11/wS6/4JIfHT/gol45gh8LaeLHwra3gj1rXpsgRDAJSMEYkk5Hy5HBzX9Df7CX/BCj9kX9jWwe40jwTbazq8yhLjWNds1uTMBzuEUu5YTnP3a8rE5hKE+SjFyl5bL1Gk2fzL/DP/gm5+2R8VjG/hH9nPxZLA+Ct3JoU6xHP+3txXpGsf8ABEX/AIKCaNpJ1mb4G3swA4hgjd5P++Qmc1/W94W+CfgLwZEIvD2jJbpnPlxLtQfRRwK1tQ8BeHdUt2t7qxGw94/lP5iuV/29Ud1ypfiUlTW7P4iPi5+y78bvghdvYfFT4Xa3oMikgLqunSQ7vpvAzXm9zZmA4PBHBBr+yX9vH9jr4I+PfhNe6J8QfA1rq+hX7iG+kmtFe6sw+QZ0nP7zCcttyBxX8q3/AAUX/ZUvv2Qf2m/EPwcuTm2glW50x85LWkw8yAk+vlstaYLMqk8U8LWjaaV7rqOULRUlsfPTjByQMio3Cg8fiKmuBhsKBnoM1EcMvPX2r3EZjGRc/MfxpCAW+8CPpSsvbNIoIByPyoAbgE4zjH61YNuYY0l6bs80yBA8i4XIBySB2qxq17HLDFZwnhHLZ2880tbgVduedv6UVIgQDDNzRTA9LjU42HjAwaegLKAVP0xUaZY5JFSxlyjbwMAdO+K4G7HQFlYzB5dhR96FghbnpW58PNJmfRpZZoeRK3GOual8O6loU2lTW12q+YtufLJ4JODivQfhto1vP4JhyimRky3r0rjr4hwg9OqO3DUI1JrXocDqkEkOVdT15NeTa7IJvEsuM4MmBXt3jS0axuHjAzl/0rw2dy/iSRipK/aecD3NdmEkpxujmxS5ZWOq0uQJqcW5j/qwAPfiugup2itndeoXIzXN2sw/tqDYTtLAVv62SmlTuCOIz0p1HaSMqV+VjNH15NRt3a92xJCv7yT05xVxoJZY/PgKyRkcshyK4/SLhxot6XbAYbR6HkGorLXNQ0k+baXTD5sGMnjFS6LbuilVjszrmjXBjDdPWmMFXKg89vpSWWsQX1pDcXojieQleDwWHJp5kikJZSCoYrkdKx1T1RrdNEEgIPAz0rP1TTbHUImt7hVYMCTxyD9a1HRNuCRnNQvAC/I+prSMtVYhq5zM2nahYSxW8BL2wU78ryeevtVvUCo047Yyfk5GetaslugYbwWUggg1S1nTp59Pe3tCFY8Bj2rVSulczlFWdjjpY57bcREdry5BPcYqZZW+woyn70+PpxVjVYLi3EFvc8OE+YkdeetRSW5FrC8YI/f87fpW/RGLTuPle902c3MBOCefcVoWfiuOWNo7uIR2+wly/I6cdakuLIvZjeuWC81zevvJF5dvuOxeQPrUpKcg1RX1ua0uLsyWKbUI4xVMnauf50pyHyp496NvODj8a6BCKSetHOck8UoDkHgZzSHOcYyD+lACZySp4p2RjrSFVHAGaQgqM/hQAADHDDPrSsB3PSkAxnOPaggqM5+tACq3PPp3oJOMjGaTPIwOmaUKDz75oARsnDY5+lKqk5yx/LpTkG7kUroW+73oAb8qLuBBFBGQMDBPWjhfvGlPzAFelAAWJUkjBpcl1PH5+tB2hRSLG2SWP05oAMBQN45oznvQI3GSeRSlM9BQABc84+lHCcoOQaCp7DNKQRyMnJGcUAAyfmJzntSqAQcfXJpFXsevWnDngDt+dADQCvCn86X7vb659aUI38X6UbFHzN9BQAKCee1LtI5BB+tKqLy4bHoDTwgPBPPoKAEwcgFfTpSlRkEcc4HrTgoyGB6elPEe45xmgAijH8WceprvvgF8NdU+KvxS0H4e6VGDPq+ox28Oe+Tz+ma4eBDxuXgHnNdh8IPHerfDLx/pPjnRbkxXWl30dxAw7FT/AIZrGq37Npbile2h/ZD/AME9/wBlX4afsp/AzRvhd4E02BIdMsI4/OWBVeZiAxkfHVskjJzwBX0HcTwW0LTzyBFRSWY9hX52f8E9/wDgq14A/aj8CaX4q+GevWuoavPZxt4g8IxzAXOmSABeASAU4XqxOWNdR/wUE/4KUWHwr+C2s6boFvNbeJGiKQxRAs8bcZPcYxmvjMHxDRwClRxUHGpd200l21OhUva2cXpb7j6/1j42/DPQ1ilvPFtqBK5WPbIPmYdQPet3TPE+n6zpqatZM3kPHvRyOCuM5r+UH41f8FR/ix4x8Tta3/jPUkeKVRJGsu3593PA6Zr7/wDh3/wUq1/4Ufs4aXqPxj+KWkeCoJPDsctnaRX8kutXiNFlJIo33RHdwfmI610VM9zWEo/uNHsur7DlTowesrn6Nf8ABRD9obw7p3hs/DzT/FFtapbhL3xVcPIAtlpqjdK7Hsxj3FR3x1Ffy2f8FPv2nP8AhrD9q3xD8ULKaOSyRo9O06ZT/rba1UQRPx/eRFP417H/AMFCf+CsfjD9pGyb4efDlLjQvDJRRfATE3WryAczXBJbaSckqhC/MRjGK+GdSvZbmR5So5rtynA4l15YrE255dtkuxlOSbtHZGfKM/NkfhUJXAJ9PbrU5jkZyQPyqzbaDc3PzTExjPGeuK+jbSIM0Rk4z37jtVq00i4kcySxkR4zyOorTis7GyG2Nd57k06ZnY/3QegFTzXWgHVt8J7Sx+G8fjWfUVMlyo8m3jAIUHHU9c815ncRlbl48Z2sRXcN8QrlvCUfgt3IjidnB/AcfpXEMzzTFzkkn86xw6qq/O+unodOIlQfL7NW019RVxjGwHHrRVuO1UJ++wG75orpOY9CEYGCGznqKky0fCc54NEYI3ZJJPf0qVYiGJAH1HevNeux1PbQhexWYmRGIbOQFrV8M+OfEfgy6NxaxecNuCGzwDVRfMTKqDmpI1Iyu7Dc5qZJSVpLQqLlF3i7M0de8dL4htmuSoEu07o+9eSWjbtZaRwSpuCWA69a7/U7CzltJJWjwQhww6iuE0G3jm16OLYCPP79+a3w0IQi+UyqylJrmOy02ytr+dfs8hxt3At1UitDxMuzQbk4ORHgEdaZpVrFZ3vl28bBdhzv9am8RXIsrDz2hWRWPKv0rGTkppLUqKUYM4/TJCugSBhgGbGfwqnOwMJbHGR0rZ1G40yTSc6bbmJGuMOOxO3NYdxtMI+Q84I/OuuDu2zndrm69yLfTNO5wfOc898qBW7pyhbFS3Zsc965zUQGj02IjogaursI4xZfKRuJzWFV6fM3pavUz49Ws5rtrNZgJFJypq35LpxJwevI65rjL8FdQkc5/wBcwbH1qzpfjbUrVkiuybiEOVCt1XnHFEqLtdCjUV7SOmdRgDgkHPH8qgMLNk7TjHPvUn2mzkbbHLtbAOxjyMjNSCP5SPbrWavaxpujM1LTLW9QRzQ546+hrHn0+60/ZbW7NJFu+bdjiulnhViNvb0qvLbKcF1z2q4zZMkrlGRS9vlV5xzis278NJrQyu9WVBhgP51sSwYiKDjC9K3fCKwW9og2gtKuGc9hVTnyRuTy80rHkGp6fcabdNBcwkEHjI4PuKrZYH5m57V7n4j8BaV4istrRiRgpKsOq/SvK/FXgXU/DUruUM1v/DKo6ex+lbUcRCppsyKlJwfdGDgA59aQbuqsOKc+7YcDNAUcEZ6d66DMacNjJpScKQB7UEZ+Yjn0pVJxu6UAIMAkPzigYc9OBSsRjPT1oUN0XP8AjQAEgHGabgbs84/rTzgcD8TSk54A7cjtQA3IK4j6980qnaDn0ozgYxikPYA49SKAHEcYOPxpAuPl64HFLtL5BPI70uR0zQA1ScAd/WlKyYycEUBGGMGn4BHHJ/lQA3GPlPBOaEAHylqXbyCw/KnFAT1yOtACYGd3fPWkIxgDknv2qQjK5z2o24T1FAEeMEsBnHWnADgg/nTxHjGF4+vWhox6/nQAxRublsYp4Ur1xgDr60bc4IX8qeEBTDDGPWgBqIGIwMd8+tORCWz+NKseG24I+nSniNScYIAoACoOSB9acqEj2HWnrCCCSR1HFPSNicDgdqAFhUZHJ561Zt3KH5Rz0NRRx5Xp83arEShmBHbrWckmB0/gj4iePfh/qsGv+DNbvtPurdg8M9rcFDn14PP417xY/wDBV/8Ab8TTG0Y/tJ61HC0JjMckNu/ykYK5aM9jXzVNuaYMzEgDgE9KntWZpBtBP0Fck8PRqS5pRTYLQ0/FvifVvEOs3Ou6/qcl3eXc7TXNyVAMkjdW4A5NU5fEmqXUaw3Oo3E4VdoSeUsFA6Ac8Co7uGa4UGNDu9CKZZ6LqM8oH2faWPXcMGteWNtegrIrzM0l0glVVDMM0TaKs8zGJ/LQckdz9K218E3srI1xcxKUOdvc1Hd2L2krQOwyOcg0KUXomUk2ZsVvZWeBDEGbuxHSmzF2BGcD0FWnibPzLkH7wxULKN/Q4PGaq9xFQxYTcSPpUUw3E4TOTxVl4inXoewpkgwNoPB/SrjsBQvbeJbOSc4DDAX1rOiTyFMzLuPYenvWnq0brYHLZyQPristy7R8kflVxAkQh13sCSe+aKSFP3Y+X9KKoD0d7+K3cAyKAxxgmpYLmF3wJQ3c4NcxewXF/dkkng/Lg4rqdF8Nra2KSTAb36knGPauGSUFudEeZy0LKBXYzAbn7n2qVFYZkcHBHT1qkbfUba6aJIztB4yOPzq1b6kvmCO4QjPHHSs3GTZoN1BNmkXTMAf3LEH04rg/BUe7xFGrHJ35A/Gu916WJtDuzG6k+Q3H4VxfgGES+IIyg6ITyfpWlHSmyKtuZHfiMCUFlwT6etNvbAXkRRolcL1VxkGrAQuwU+vJqWGE7Dz97pk1zps3aWxy2reHrZ4BaW6i3Pm78kZXOMcY6Vz+raJqOnRItxEWGOHiO4H346V6PJaRPCY5gCCOmKzbjRVQGO0m2A9Fx8uK0jWcXZmM6fM9DnGg028is0kvSlwlsjDcDgjNdTaW5+wCQnJPPFZd74YgJ86WMiRQArIPl2g5AxW1aAppplZOPLY4A7gUpzUkOMJRep55fLLJPdNCv/Lc9B1wTVO5jRLiJIV4LA49+9dFLJpt1b3N5pFq8Ukci+YkjZySTkj61iXckk1/CssCo27oq4H1rrg7xOaSsa1svmeK2jdMN5KZ9fuitzUtStdIhjmvtxVmx8p7+tYeiytN4tlJJJEa449AKt+O1I06FT/FMMc/WsJpOaTNqd1TbNRJrO+wttMrlRgrnkHr0qKWJ16ABfpyK47Uri703WJLizmZG3jlD7CujsPEckn2e1vFzNLHncOBTlCVPVaocaqktVYmuYgEZnGfl5zV3SNy6erRpyIgVUHjNQ3QPlNjA5/OtPwtYSy31mJ9gieaJcFh03DOT6YrGrJcnMXGKc7DNI8V+TL9mmUxSdCsg4PrWzPBpuu2zwOFDOuGDDIYV0fxJ+F+iXGjT69alFEU7jMeCvB42kdK8+vdWGhRxOIndSoB29cVy4erDErngrM3qU54eVpnNeN/hTLa7rzw+gAAJaI9D9PT6VwU0NzaymC6iKuvUEYr3PS9ftNUgAdg0ZOCDwR9ax/GXgLTNfhe7iA8zbhJUHI+vrXfSxMoLlmcs6SesTyIEjlgTQUydoP/ANar+u+HNU8PXP2a8ibafuSKOCP6VRKMRux+Ga7k01dHO01uNI7AdKUF9o+bn+lLgKdoGTQDj5QBTEGOMgk0qg5+5ihfmyopQ2DjdyKAGspGSPyp2f3YITv6Uowcknn6UDAOefpmgBEXGffk0BBnJIH4U8BdvPAxxQc87h+dAAFO3r+IpWQkDnnvzSqqsM80sY39F568igBFTaeRSgK4zjv6U8oGPPNCqwO0n9KAEEeV2jpSeVuG3jHfipljAJJHbgZ4oVADuX154oAgWNlXaE/GnCFmwCe/p0qYIVJ39+wpBGVJLHg88UANCbeASMdMUpBbjHb86fGhBOenb1p0cee/SgBqo2TjpTgjnhgPUU9FyMAdD+dSbBjHJz680mrgNRSzY9R3FTRo2/aOmORTkgcjJxgdKnjh3SDA7dTSkBEsOZAwB4qxFEGyEznPNWIbMtnK54q1BYMBtC9evFK+gF7Q5/DyxBNW0xpmxwcjB/Ct+306wutJ+32GjpbIHKqwI5OOuKwtO0Ke6uI4Y15ZscCvQH0I2OnDTlKt5MYXKjr71yVLLVM1p69DhdStZVty4fPPUCm22mYt0mMr+uM8ZrfvtKcW5iMbbj220WmmTtCENq5KgD7hxT5ly6isuhhy280y5diSeQD1qCWzdhtAxkda6g+HNSaIvJbqOeCWHT6VnXOnXqPsW2IOePlzRGcXsxKJhPakMM/j9ageFQ2AMgdq057G+DHdE2TwQAaqm2vIzgwk+mEq010IsZ89u5YAKTj1FRtpUzfMyAIOcg5q7I9xGCPIc5HdTVSa8u1GEt2X1whppvoOzM3X7fyrFEI6njHSsuC2MnOeMcmuh1yMXmiW7OoDbjuGMEDjtWVP5djHsQA8YwPWtYOyEQohRdsbKB9KKjNvI537sZ7A0Vd0B3VnpwmvQjoMlh06120/g+51ARx2d1Gjr0illC54681h6Baxy38blSPmBFdpq9o0mpiO2U5CdRXBUu2lfU9CnG6ehk6X4e1jRLe6bVrRpPlVU3Dco55Iplv4e07VVfy4zF5YJZvvZ/CvTfBXgDVrrQk1C2Sadw2Ns2WUjjsc111r8Eb7WrKW6uPDssO5f3r28XAz6AYrSOFxLi5KDfmkzb2V9D5p8XeG5rbw/cXsMyFAhBXdgnj0rkfAdtJBq32oR7tkZGO3OK92+MXwavvD2hTz29zviXgrKNrj/gPevOPh/wCH5LHS9Q1q5smaGKVIXJHALA457dKI3hTcWrHHVjL2lpFuDUYWf96NvrkVcQxyAOjAnHHPaq8Fr4f1qYafazSQ3MjYjjHzAn3JPFVbmz1DTJCY5A6ZwWQ5C49a5Wk5aOxom9zVkUGM7QOPxzVZwNoTbmq0GrMIsT4wOWIPNWIr62nk/dyrgDuamSktbDuhVC48wntgjHWkGHjMQGBjpSyONxxjPXOeKTJZeM7u/HalbUei3Mi/0iFY5ozbhEkIy0YwQR3wOtYN/oN7qF7b31u8bRwttYEhXI9cde1drKoIyenv3qrNaWrrwoB9V4PvzWkK00zN01I57w+bO71V5Es3huFOxmyfmHr+lO8Z2lzdG2igidwsmZODW1FYC2mjkgCkKc7ivP0PrVPX7XUpdStbmymCxR580Fuo+neqUuaaa6E+zkqdjidZxNqbYzyw/lWqkJ/tmxj4wI8E/nWXrCzLf7biFoyZPusMHFbMVpcf23b3Hl5WM4JB4xg11Sa5dTn5Xc27qAJCOCct3/wrpPCGnw3Gs6Xbv0e+gVlbpguBWDdYePdu6kdPrXQ6FDGl5a+bLsVJo9zk4wNwyc9vrXnV1+5djuppKod98Q9B1bT/AA/rEllKosxqk0SxKcjhyMAdsfrXinis3MIt5ERzsXLYz7da9X1TxreR6Ne+EI7B5LQ38ssN9uLiTLZI3Hr9e9eY+MJZUiDghdpJA9frXLlcakY2ka42UZtMztNmlWF76IKrPExYDpkdKu6R4mljkS2ukZXPTAyGqisLzaJM6Dl4GyRxjP8AKq2hI5uszbmG9RGT0xivU5IyTuji5mrWOp1DT9M8Q2pt5okJdcENjP4eledeK/hzqGkSvcaaDJCOSp5I/wAa6O31G9tropbyb42fLBjgr9PWt+31K2nT7FcqrYHJ6kfWiMp0XpqirQqPU8XK7HIcHcOOaFABOK9E8YfD+z1HzNR00BZNufkXgj6V5/NFJDI0bYJU4P1rsp1VVV4nPKPK7Ee1ifmPXtmnCNT14x05oUDg9vbmnrHuctWhI1fnO0Jx24pwRcc9j060LGyEsM05VzhgPrnigBBEo68g+nan4zgKOlHl5xg4xUkaqOp60ANCkDcVGO/NSKmRgDHsDTlhBcfMcVJHFub5R24wKAIREFGSD1+tPEW4gnj6VPHDkkN0pywdsEUAVjGAuQCRSqmwdDgirRtyoKx9D+NIYWPyH8qAK+wqNw5FBj+bGMeuTVgQKRgn60x4mxjHQ8UAMKbRkDJ6YBpwjIHAwc5x7U9UxkdvpUkaB8k8AHoaAGIhLbexGelSw2zA5Y8c8U5VAJ/KrECYH1/Gp5gGxwFvmUHbxVyK0DDcB7Yp1vDuYbR3xWnbadnnHOO3SpbAhsrNmwFQ8eorVsdJmlcARknPPNXtM0ouNpU9scV33wv8BNrWuQIIS65zJx0FYTqqEW2xpNuwaH8P/sGnW8k1qDK6bmbHK1r2/g2aQDELHuea9w8NfA/VfFVxBbadp7vwBhUODXpEn7HfirS7FJr3Qp0LjK7oiK8f28qj93Xq7a2O9UXFWSPlFPA+7B+xjJJyStTx+ApyoAtT9BX1joP7HnjDVCqWXhu4l+c9Iia9B0r/AIJx/Fu8sVvR8P8AUCjLncLZun5UubFT0hBstUu9j4Jm8Bzkkm2Jx321XuvAoXOLc8kYyMV9+3P/AATx+JsUZB8BXwIzwbVu/wCFc9rH7BfxDgBEvgm859bcjp+FU/ra3ptfIfsU9z4Ov/BBjBJthz0wvNY954R8ncPs2Pm9K++X/wCCfHxWuoPNtvh9fyKeARaMefyrjvG37BXxX0a1e5m+H9+gUEkm0bGPXpXRShjKnw05W9GJ0FY+Hr7RY0UkxDIXjK9K53XBBYLlotzZ4AFe3fGX4c6j8PrlrXWdNktp9pIjkTBP4V4P4olzOyLJlmPXsK6qSqbSX3nLVvTdmc7qtyZJGUPlz2HQVnC1CjfKc55JNazWkMYLNy3qazr+eNB5acnvxXWnpZHMQMFDfKRj60VCBuGSxH0opgeq+E4/NvYRs6t8gBr03w8kdxrLx3EYJ2r/ADrzHwYHXUrcNnAbnH0rt9OuZE1lpQ7KA3X2rilJqZ6VHSzP2Y/4JT3X/BK6w+EmnWfxp8Ozr4rZ8Xt3qRK22cDhcyY657V+m/gb9j/9ivx74Th13wZ8O9IvdMu4z5M9uAVYEeo+tfztfsoePdM0jVNPl1fEtvHcxvNGT95dwz+df0f/ALHnj/4XeLvgR4evPAs0FtBJp8YNr5vKMEG4da+n+v4qeB9pGpJO9rJ6JegYukopTjfU/Pf/AILY/wDBPz9gr4X/ALNmueM/D8FtofiyJo/sdjHeMzTFgSPkZsYPHbvX4g6Fptp4V+C2v60kStcNr1pGiOoKlCsm7r+Ffqv/AMHC/wAQfBx+Mep6No+uyPJHZWwlhE26MNs579c1+S+va63/AArCXSY2JS51ESk+pUt/jXgZliKmISc5cz0REIKMea+trnLadPoOoa4t6+kC0uEbcskLEgn3B6VzqeG9TutYP9geILe9gLljCJvn69NoFX9HaVbu4uGX7kZIPaud8NPKfEgZJCoLHG0471xwTu7fiQ5KybVzYn1O4j8QPomq6CI0dv3MjEr8uOo9ehqu8uh3rldH1RSQeRPhMfTHWl/4TPV4fEb6Yyo8PmYJkUE4x0ziq91/whGtXO65sJtLl6s9r8yk++40OHLbfboCkpPct+XrNlCJ7iNvKPCOV4NLHqqRD98CuTjnoagXw/4ltIifC+sxaqnVEjbL49wRipbuRo9KhuNf09oLgyFZVUc8YrN3tun+Ya310LhkWSIBHyOuR+tNUhUIJAPrVMQJdxx3em3WVlyEQn5iR14prXt5bHZcRDjr6mpUWy7ou46MWAPQ46mmyw+dGUmTII7etVUv7abjfsbHerMRLRjnI7+9PWLsgckzN1HRo5YQjRCVD0Vxg/n1qnDZNZ6j9oy580YMbDhfpW8wVsgg4FNmtlI5Hbg+1XGpK1iXTV0VLpgtvlcZLr9OtdNA+yAfICQo5IrmbuN/JVOcF16fWupihKW6SFzgqMZFRUvy3LXxMtTa/eTaJ/YSyBYlYuqiMZyeTz1xXF+MrO7a1WeKBmRVYOw5ArpZEYvjbj+tKf3KYABX0xkVFOSpO6QSvNWORsR5fh2VtucR4Jx7VHo1uJVhyuNoLYIxnmug1DTre/tZra2jSFpVIPJ69qy9P0PUtNlRZ4CVwQJF6da6oVVJMxcLNXMkCE3pIUkdCSMd6t6ppl4s0d2kEkRIyrgcMKq6dg6kU2Zyx4/GuouVkOiFoH+ZhsZSO3XNOpPlki6MOe9+iON8b+Ibqx0BY7eQhrg7GI4wBzXAlmY5OTnnNdl8TbZorC0R85DnOfpXHhHQcjtjNdtFLkOWpfm1DO0ZFC5IIVutJwCFxzmpWUcLjnv9K1IEViV2uaeiEYU5+nrUZXLbQOKkQYO09e2KAHR/KdrA1Mh3Y2gelMjU7txGMVYhjZW6Eg9DQAQLuJ55FWYYCy8DrRbwlgFCAHvmtCysJemMjA5oAgjs/lGUOPepDZsSVA4x3rYs9IdwAsfB7mrg8POIi+3nOBxTsyeZHNrYnHC5555qKS2IOW//AFV0kmjkoWKEdsj1qnLpoU8qTgdTRZlGMIto2nBNRtAQDuGPrWlLb7QQAARxVeWE4ywP40gKiKSPkGQelKFLNgj8ql8gbtqrjFOEbA7T39O1S7AJHGed46HrVm1Q4ywI54I5psUDE7Sw9qtxx7QPk6GpAt2Vtl/mGeOAK3dKsPOxkHB4IrP0uFmxhOa7DwxpbSujSjv0rKUtNQNjwX4Qv9ZnjsrK0MkjnCqO9fTf7PHwP1NYklu7ELLcMAilecen6VyX7OfhyQXSta6Gk7PKENxJn5AfpX35+xt8Eh4y+IOk6Y1mzxtcqGVEzXzuZY1wi1+R6GGow0lfXsfXv/BLn/gnFpDaTafFf4kaQpiwH0+3kjysnuc9uv5V99ax8IvhRLYBdQ8CaS0aFRzYR+vHarvw78P2nhTwfp2g6XYeTBbW6oqEYIHrXOftG+OF8D+DUulmCtLcKMk+hBruwVJZdlzrT+Jq7/yM5TnisQox06I6DT/hP8NLBQbPwPpMYzxt0+P/AArYTw54ejjEcOg2YQDAUWqYH6V5t4B+O+m6urRXd0CQsZxn+8cV6Nb+JdKuIw6XKkBivXvXRg82weLgnCaXkZ1aFek9UK3hfw0/3vD1ifraJ/hUEvgbwdP/AK7wppzdetlGf6Vc/tayU5M6kEE8GoptfsIcBpxywXr613SxNKCu5W+ZklN7DE8IeE4ECR+GdPVR0As0/wAK8D/bu/a1/Zp/Yv8AhpP4l+JOj6RLqFxbsdM0o2UTPcHnnBH3cg8+te5X/jjRra3aRrgAbGIP0OK/D/8A4K1fsEftI+KG+If7RfxN+PUOp6To0TXGj2nmnzXTC4QoECqBk9PSuf8AtXB03ZVE3fRX3Omhha1SWx+bn/BQD9p24/aY+NWufEddNtbM6hds0dpZoFjhTAAUAAAdPSvlfVQYpH3Nu7kmu08ZLNpUrtcyliSctXnmr3ctxIdhwCeR61uqk68nUmYVG+Z3M/U750ZowvGeuaqbJJAGcZUnrmrZtGBBkAJ6YJ6UyVFj+UHOD0q1boZDdkXfj8KKjaWTOFiBA6UUwPTPBSF9TTBJ2nrXcafZaTcM0kniKGCbP+rmz19BgVwnhO8jtb6GTP3uDW/d2H2i4O+7ELEZCuDyfTivNqtue9j0aU0ktLnoHhnxFrnh6+MNu7vF5alZEb5Scnp3r1nRP23vit4Ja20zRPGGo26LFhFjuSFXA7DNfOdrfanYSRSQFsrbqjMjjGRnNST+J5LXVrOe5jSZlEm9ZxxggY6VdKtVWz6HS60oRsnu9Tsf2kv2jfGPxKuP7T8V6/PeXMuA8s75ZgOleex+LIR4K0uKZCzSPOXP0fisL4v+KLTV3tlstMEEgLeYYujdOlWvCej2mv8AgfTQ2vQxTxNOBBLnc2X9cYpz1pJy01OGUpTqtbi6bPHcWWouhwFgYgg1h+Eoiuthh0DHrW+3hnXdH0fVFeyLiS1YRtE4bcfoCawfDBmtr0NdQOkgPzB1IIpRkrOz7FNNJJoiu4NviTzsjMjn8OKq3MbxsRsVznBz1q5cShtbhPrkk+nWlEJeYg9jxnvVNuNmZU4pszNQvLvTbR5raVoSCMFTjvXY6L4gvH8K2VzqNut6GdxKk4+8ABjpiuc8Yaf5fh9pMgguuD+IrcsIp4PA9kVU8NJ+PArCrKEqafnY6adO1Wz7XJL/AE7w54ht7WWOOXTcySCMW+PLQ5Gc5yacvh7xRppVbG+i1a3Tqi8ce+QDWdJcyWun2q4cESPwvbJFWbbVbhJBgNuHRs1k+daJ6GkIU5rXcj1V9PWI3Go2H2OQSqnlIDtyR3zmm3OlanaBGtJhIpwdqdvrmtZINU8TWlwVsTqLWcZlaCXHCDqR09q01h0u5mst0TwSeYM5+6DjpT9qo6dSY0JSu7adH3OR/tJoW/0m2ZTu5Parsd1FIuVcEkce1dbqHhK1vsMNk2OmR8p/rXL67oFppd04km+y4QMC44OTjAxShVp1Lco6mHq0VeWxW1CDzDHtbkyADH1rd8RPcaPpa3EbqzfKFDdDzWPpun6hJJDBcyKU8zKPn71dZ8RvDM2p+FoTaKA6shYHpgEGqla9n3M1GTTaRzOmeKF1C7WyvrVoXYcE4xmtUxE4QtzXP6Hpl616YblcESqUx6Z7Vb8WEWut/ZvtcttN5IPmfwdOmOuTVyjG+hKk1G7RdNtmThjwcY/rTZyyAjqO4NRaTd3yaZJdaigYRuAzRqTkHODV2JLLUButZw+eeO34VMY8rBNMxZ/D9pLfDULfMeBkoOhp0jTxqI3jYJv4+laslmIlIZSM880za0cZVWyGHK4q23NajjZPQ85+LQ2JbA/3iQD9K4sY7uOefpXoXxS0yW9a3VYQU3ANLsJCZOM8VxV/4ftNO1OW0i1KK7jjbassQIV/pnmvQoNKmjiqJqepVitJJyGVsD1NW3sNy5R/mGPxp8ax/dUDHTHpipFKn5VHIrRu5BQMLxkqw5z1p6ICRjkdxV2SCCVcOuec01dNB6MpHYEU1ICGIApyuPWrMUPIYE0t1YSWWHl4Ts2KW1ntgSVmAA7mhNNaAX7GAswJXOB+Vbuiad55DAHGelY+nXNszLGJFZieldf4ehPnIpTawIzVpXYnsdR4L8Bz6y6RQQlixGAB616Pefs3+JtO0ganfaHPDCwBWRoiAfoa6v8AY9tfCI+KXh2LxfGh099YtheGTp5RlXfn2xmv24/4KX2P7FQ/Yi07QPhlaaC+ryJajSlsCPM24G7JPTtnNd2GWGnUVOpfXr2OeftbXX/Dn88viP4dXFqxSOA5zzx0rl9U8HXkKsvkHI7kV+tnwS/4IWftM/HrSIPFV5o9ppFneqJbeS4uI5d0bcq37tjjIIOKi/aH/wCDc79qXwF4XuNb8HwWfiAwxl2gtZFiY/jKygVo8HzP3ZL70bxb5Ls/HbUdIeFmLpjA6etZdzZiMZwCT96vVPin4Fv/AAXr93oGt2fkXVnM8U8QYNtZTggkEg/hXnmppGCw8vZtPAH8QrzqsHSm4soxZIMElfyoihDjGMH37VYcqH+cfXPamHa2QrA/SsQHW8ADFieBgVr2dkslr5wtOFYbnzxz2rKiYk7eevWtewdGiWAx5KnJb1qJuyuNK7NfSrdNwVUAB6YruPCemzSyIFjzyMY7n0rlfD1nJcMFWMn6CvVPhBo8l14ig863OLf94ykcHBHFcNabjFyNIwu0u59Vfsq/DOWa1hS2s2JjwsrFerNyCfwr9o/+CWf7L2m+EfBo+JfiDTIXubhQLIsuSo/vfXIIr83/APgmX4U1L4o6z/wqbSQy/wBqapE8kuBhEC7T/Ov3L+FHgDTfhn4F0/whpx3JaQBWY9SepP614WEo/XMek9VHV+vRHZUkqVFpbvT5HQXF3aWSr5sqpuOFzXx9/wAFNPjbZaDpFp4WsZ8SRy+Y8ingn0/Sve/2k/iToHw68KxXmu6mLRJpWCz5wUwpOR+Vfld+3v8Atj/D/wCMV7baV4IjuQ+kqYri7lPy3OM/vF74Oe9elmuJUqUqKaX9bGmAoJTjVZU8Qf8ABTLxF8G/H2meGdN0bTbizv0tjfXuoPJmFd/ONh7DOOK9k+G3/BVrUvGfjDxvoE9zotroehaLLc6fqsEkoleZo5THkNxncq9u9flF8dPiXLN4lsJ4RulgVJAR1bnp+lYCfEfxBrF5eusVyU1WRDfQ7htk8pi0ef8AdJNfGrL+WCnT0bW/zPchWwzSU9T9M/gZ/wAFavHfhT4K+MNe1LXodb8U2uqodO0vUpCEaGZpDvXbg7sBTycVmav/AMF0PifL8OtS8TW+gwR61ZahbJFptyx2FCr7y21s5yBtweh5r83Ps3jGaW4ke3DfaxsjLZynYY5rAutF+JNusUMOrSqJQ5C+6HFb+wTupSum77/gP22Ei7qmfpJe/wDBaf47TeFbi+vtC0aF1uESBDJJ5ro6lm/ix1r57/a//wCCofxi+Nnw+v8A4d6nJZHT9btymqRoW82NPUds8CvnG88BeMWiOl2uqzLJK6MzlvvEr/8AXrhPE/hj4iaGLbUZr2WQz273GR/CquUwfxrXDYTDxqqStda/MieKp8tlGz8jzr4l/CaGZI9d03xdHcQ3SlzEM5jHPB49RXjOo2n2O8eLeW2Ngk96918ReH/GVneNaPK8ii6NqFI6HZ5mK8V8QKRrc6tt4kO4CvsMFW9pG17nz+MjSVuSLXqZk7A5Urhs54qq6u2ctnk1YkdWUgnBLflVWVmRjx1PWvQjscA1FjVcMCT60VDIJmcndRVAei3GlSWWoxw2MwHHzZ6dM1ND401EbU1C1WYLxkcH9a9ctf2If2wLzUVvD+zH45RCmQZfDVwpGR6FMj6ViXH7BP7aAnYr+zB45cBiFP8AwjdxyP8AvmvmFxFw63aeMpX/AOvkP8zkef5JF3jiqf8A4HH/ADOR0vxr4bkOLq0eCU87iM4P4U0ana6l4kml+2RyxpCm37R05zxXYf8ADBv7aKA4/Zd8dewHhy4/+Jquv7Bv7apecv8Ass+O8OseAfDNx1BP+zSef8Nu9sbS/wDBkP8AMb4jyTriqf8A4HH/ADPIvHuq3CeJWSAxRoigKsQ4z3ra8BaHba3oMs95qoh2ThVR1JBzkk8V1OqfsA/tvS3JYfsoeP23N1Hhm5P/ALJW7oX7FP7cegaOIbf9lDx0xkky6N4XuSRjP+zxWz4i4d9korG0r/8AXyH/AMkYrP8AI3Uu8VT/APA4/wCZzVkmueDtLubjR70ibyz9nMLgHd2/GqOn+LNd1V5JvFemI+xTuuJYT5n1DV6zZ/sQ/tltbR3k37M3jQM/3ox4enDL/wCO1aH7Gf7Xd5GLO+/Zq8fMMdG8OXO0+2dmK4v9Y+Hr64uk339pD/M6v9YMjvpi6duznH/M8Z0iXwlrcc0/2d4lto980khyVGccYHqasWXhvTtYHn6D4ltbphyYmBjP0y2BXrdv+wd+1PAk6N+y94y8qePbMkHh6dGYZz121i6h/wAE6P2qHO7SP2c/HVuDz5c3hy4kP0yFFNcS8OttPGU//BkP8wjn+Sw2xVJ/9vx/zPLfGmma8dHTS/7Blb58sYnEowMf3c1Pe+IU07wtZeH202VLhcsZCcYBA4wfTFem2f7Cn7fvhsC60D4E+N1jAwYotGnU/wDfOM1d1L9kf9teW4jbUf2S/GF4gt0MznwlcM+cHcAdp5pS4h4dcUljKTV7/wASG/3lx4jyTmcvrVNNq3xw/wAzyC+Ci1t0lHUZySM81d0iySadZH2gcAZNW/Er+CZHitZoZ7C6ECkmU+YijHTYADkVWi8F6nqlg134c8S2dxt7SsIT+TmvWdmtND2qU4w13Os+FfxV8L/BrU9W8TeIvBMWufa9NlsrG3mAKQTPjbMc9du09OeabrvkXZsb2JQpmuPMKgcLnJx+tcJrel6xbeHRZ3VuzTJLubYM569COtdtNHcLb6bEsJDeUGA9TWVajBSjNbvRs6cLWnOM4PZbeWp0NpZr9gjuAuCE4Yr3zXHeOr+KS8dNTs1uFiwFEgyc5r0m2MEPhcCcZl2dBwK8t8aCZ7qQg/6y4A+gyK48DZ13foz0c3SjhotWu7Dba305tbiksUlSRXAlVjkD6eld94rjjl8J3EU5ACwnBJ6HFcNpltN/wk06Kelxg57812Pj2xvr3ws1jp67mY/MGPXpXfO7kkmeJQfuts57wdprX91aRNOCEt43wwz2qL4oafpq+KEid2WWWFWBPK4UDjAq94FZoNYjgMe1orYKec8gc1Q+J08bfEG3D4GLXn8QK2i7T8jOSTp+ZZiL2miiWwleLfcRIxUc4wcisuys0066urxnjB+zszvEuO4roZhGvh2GSLKq91HuZDyTg9ay9N0/+0tOvb3yyYvs7o6qcEnPalpuQ4rmSMfTtau7q5FvJeC4VjjIUgp7HPWr0d9a3NybRH+dTgowwT/jWT4Qs4XvxPbOzJJPkKeSmBj8a63T/D9nfa2TJDu8q23xu687s44J9qqbURRUmrkM1gj+HpUkQFTMVKn8OK4PxJ8K9M1NjNpDC2lByePlP4V7FoHw2+InjvS00r4feC7/AFi5FwTPb2Fm8zhcDBOwHb+NXNd/Zq+OegWb3Ov/AAX8U2SIpeR5dAuQiqOSS2zAFdOFoYmVNyjF2vv0CpyOVpHy9r+gah4auFtb4rublHXo2etVNpCgr3rrPjEsLatHChG6Jedp6VxcT3QJTYz+gAroi21dnHNKMmkXEdVUjaS2KtWav9qjOc5YYrMF4YzieJl7citDR76NrmNVkH3xyTjBqmJbmj4pty+kEQw5YnpiuRaB0bbLEwI6A16jqWnxRwwErgyJuYA5rN1bwrYaihkMRVgnykDp/jXPSrqOj2OmpQk1dHHaEM6hEFypznd74rv/AA34guWuY0vkL7zgS+pHrXJ2vhrUdM1ET7Nyrkg5xnitzw9LLJdW9pHIocvggnjP1rp509Uc6i72Z7X4H8V3Glqt7EWQKQEYH0r0y2+Oetalax2t1qTlVGAC3Wvnuy1XUdNkl01phtDHeC3celXrTxNLAwJJB/3uoralW5d36ehM6avsftt/wQo/bQ8j4oJ4K+KXxl1CDTlsXFlY3V+EtgRgAEMPy5ruP+C+v7eGu+DLrSPB3wU+Nd3FZ32mTHVLXSNSUxOdygBguexr8QfAnxR8T6fq8C6JJN5hkCokJJbJ+lN+L/xo8QeKtWlTUruRygCOpbnIGPwqqVZ0q7aV009+hslF07u99jlfiT4ol1bWLi6JaRppGZyzdSTk5/GuA1WRSQVjAGckVo6lfSXMrSMx6569ap3aRGyWSP5yT82TWFSpeWvUhQum+xkSOzMflLcetNRQWBZas3CW3lCSLOfcZqIq6sWxkds9RRdNEtWJIjn7p7c1oaWYw5LVmqypkn9KsWb4kypz0471EloC3P0W/wCCVyfs96fJe6z8Yv2UV8e2UMKcvPCvlOVPP7z/ADxXm/jjxT4Rs/iJr1z4P8MLo0F1qszWtgGB+yRh2Cxgrx0x09K8U+Cf7QHxh8DRyeG/CWvTWNjcqHu/LVlLIvoc9cE1r2mvT6vqcmqT3LSPK7OWkfljnqSa8OEcbQVanNp05NNLqj0f3EoRkovmWj7H1B+zz+1p4++BGsr4k+H/AIvvNLvVXaJrObY2OuAe3Ir9kP8Agjr+2f8AEv8AaT/Z88eeK/id4xvNVvdD16O3t7i8n3siGCNsA9uWr+duLxBJA88aPyuAD1HIzX6xf8G9nxNa0/ZU+McMs5Dv4wgVc/8AXrDXk4mosv8A38dL7+ttDSFJ16ih5n2D/wAFbvG+oeJdI8M/D/RLl0l1S9SPKN0GCTn8Aa/PX9vzw94Y+GniGLRPCkCxKkAXjv1619fftm+PrW6+KWhaleT5XTYmnUE9wj18Bftz/FG2+Ib6L40spcJqVh5xUH7jHd8tfP4fGV8XjU6nVfie7PDwoYflj0PBPEUNlqOoLPLGGZUgKsfRnxW1YWlpatFNGirm4uUOOvygVxEmsGWY72yPsllxnqfMNdLpepJeFLZXVQtzfM7OwAUBQSc16zUuVXOCK0PRLY6e3lwmHcdkJAA6HFP1HwzCjwS3ggtwFkKi6kWMkE5JG4ivOfG3x68PeC9FZPA+px6hrM0MBhkubVvKt1jX5+D98nIwQeMV4N4o+NfjDx3qJvfFniO81GRWZYxM7FFGeVUH7o7fhXNHBYqonKK0/E2U6MbczPqmbxn8Ph41j8Of2khaNQ32nzR5chwPlB7devtVTxxo9tPokRgEU4h0KVS0MgcLm4zzj2r5Ah8cM0CeYpKs5UAyDGMnj2q/4d+LvjXw9czRaD4lmjV5RCLV5CYjwG2sueRxV0ctxsOvpdBUrYaWzPd/EulWVz4nMZgUH/hK2GSO32Gvij4hadJofjbUtPnmDGG7YFgOD+FfVOifGfw74pex1DW78W2oz661xNHDASrj7OU+UDp06V8v/GWWK4+JOr3VuGKSXbGNmUg49wa9/I1OE5xkmtOp5mOlGVJNdzlL0ELvjUA5qFnL8upJwfzqebDHBOfaoYyHdlcnA7Zr6Q8giEKMMsSD6UU5mRWIIb86KYH9ZNv8IB4q+C/hnxLpcuj6Yz3uoR6jqmq36WyykPGIo8scu2A+AAcAHOK4rUfh34t0vxfb+B73TNt/eSxJZqsgaO4EhAjeNwSro2RhgSDXdXvgjxb4++AHg5PB2nyatLpt9qf2uzs3Ek9uskkW0mP720lT8wBAyMkEinXer6d4E1j4b+GPE19H9v8ADGpmfWwjBxYo92sggLLkFlUMzAE7S5U4IIr/ADlzDJMurxo1KtKVGPssK/aXShUcoUozjFcqXMk5SbUpO8JuS1fL/EeMyvBVVTnUpypx9nh3z3ShNyjTjJLRK6TlJtNu8JXX8vnek+D/ABBrnitPBWm2Jk1J7loFt9wH7xc5GfwNX/Bvww8S+NbW41OzmsLKwtZFin1HVr+O2gWRs4QM5G5jjouSBycCvUvht8KfGWh/tHL4y8TWKaZo0OuTzLqt5KEguA/meWIWP+tLZBG3PGScAEjkvhPB4+v/AA/qVn4a8I6f4s0tb5HvPDt2jSSxORhLlERldcjKFkb2YfdNcuH4Tp4erSWNpVbzqV4qKT5nGnGm4y5VFz5bylzOMXpF8q0Zz0eHoUalNYqnUvKdVKKTu1CMHF2s5ct5PmaT0TstGcj4z8Ca94EvILbWfs0sd3D51neWN2k8FxHkjcjoSDgggjgjuBWNXe/Gzwtp/hqDRZYtGm0K8vbaSa98Ly3bTCxO4BZFLEsgkUZ2N8w29cEY4Kvls9wEcszWph4qyVtG22rxT6xg+u0oxlHaSUkzwM2wkcDmE6MVZK2l77pPrGL67OKktmrpnpGpaxB8GvDGgafoGgaVc6rrOlJqeqX+qafHdOiSswjt0WQFY12KGJxuYv1AAFZXxW0nRrrSdA+JGhaVBYR+IbSY3lhacQwXUMnlyeWP4FYbH2c7d5AOMAbPijwj4j+L/hfw34q8AaRLqkthosOlaxa2mXmtp4SwRmj6hGjKEMMrlWBwRiq3xF0yWDTfCHwXtZ4H1XTY5jqircAxw3dzMG8ovnblEWMNg4ByM5Br7DMsPiZ4LEQcP9m9nS+ru3uublTXuO2s5QdR1EnrJS5ruKt9LjqNeeFrQcP3HJT9jpo5Nw+F21k487mk9WnfWOnB6bqE+lahDqVqkTSQSB0WeFZEJHqrAhh7EV7YniDxjffALVPG2q+ENA1ObU1a2tYbDQLJW0y3BxJeSiNA4JOEToFyXb+DPmsfwn1yLxvdfDrV9QsrLVoYm+zwy3CmO4mABEAkztVm5Aycbht4Jrqvhb4A8a/CnxcnxB+Iuh3OiaRpkU63ct8gT7UWidBbxqTmUuTt+UHAJY4AzWPClHO8BialGdOpGlPmpzknaNKXwynUVnH93FttT5bL3lJWTM+HqWaYOvOlKE1TnzQk07RpvaU5qzXuRbdpcvdNWTD4IaJq+r+DdQ/4Vf4Y0vWPFyagpmttStoZnisdnDwJN8hPmZDnkgFemc1F8dNFv9I8NaUvxD8OabpPjB7uY3FppkEURey2rsknSL5FcvuC4wSoOR0NL4d0vxT4l+DNronwgguJr4alPJ4qs9NfFzKp2C2LKMPJEAXAAyoYkkAnNReNNP8AE2g/ByPRPiwk0errq0b+HbbUH3XcFrscTgg5aOEt5eFbALAkDqa9KpCP+q/1f2c7ewUvaafVr3U9Fy39r/y7c+f+JeHJbU7Zwj/YPseSdvZKXPp7C91LTS/tPsOXN8d4cttT+Z3xfdeHtd8X6jLdGPIv5gOkbABzxVB/DOiyx79NupIScnJcy5/LpVDxZ4S8Wt4v1Rv+EavznUJ8Ysn6eY3tVRfDXjC3fzE0HVV2/wB2CUD8sV/fFH2caMeWa2XXyP7YoYik6UbtbLqeqfAzUIdN8S2+ia3cW8trfxNaXN1qNmJFt0cj94ob7rDHB7V9Aft52n7NOifHrTtA/ZxaOXSY9MtzdzrOJYxP5SbtrDjBJY4HQ18eW93490y3a4udLu0hjHzvNZthR7kjiktfHt7bSf6RbArnIZJOfyroqTdbCKjFJ2b1W+vQ66FenGpzKV/yPbb6xmuwpjj8uPdkBTv3D6DpXIeM/B88epAIiAGQPsdwDj6dqw9D+MM+nTKbbUZFAYMBPDuH61qal8QV8X6ydVv7q2aTA+aKQL3/ALorzaVCrRqJ20R61fF0MTStrfT0IdL02dfFcwe1kUSXOVJQgdexr1F9EdLbBhDD3XOa8+8JGbVfHK3AvJHWWQMqMPlXnoK9o8Q3nhzwtaJN4j1SC1R3xH5jAEk+maurJq19zClBNOxwM/hOyhvFv4LPy5B/c4Fc547+Gp1+/XWLacpOqgc9CB2r1uLSrLWLdbrS50miYZWSNtwNUtT8Nuq7dmKj2s07plukndNHkmo2epab4XisDZO8qXSErEueBnnipfAllPceEdWaeEo8MT5Vl2kZ5r0vTvD028nygQD3XNek+APg5pvxDZfD2r6Qq21yNs4tV8tnB915zUVcZGEXzELC++mmfK3wh0RtSkhhSMbiWIAGc/Ma9j07wRZSeHLq7KIs8EHyMVyQc/4V9Aaj+wBpPgXx5pH/AAh8NzGkunFjaSREgDeedxPJzXjHj/wf8VvhT4o1PR9e0SGXTrq5Kwy20nmFY8DkgDjkVzVMfTxkkqUrPtsOOHlSS5tTp/8AgnP+0V4o/Zt+PljrWiaxHaWl9dwQam1xb+YDCJAWwM+ma/Sn/gtd/wAFSfhDc/BnTPBX7MPjGwvdQv8A7RDrypYDHkPGqgBgeDy3HavyG8CaTdX/AMQbPSrRGDSzkAd+lYvxb/tLSPF+r6Rcz7zDqEiFc/dIPpXrUcfUj+4Xa9yJ4aMoKo+9jx3xh4EbVtclvtMTc0uSySnofxrjtT8IX+kS7mgeMgn5xypPsa9q8NWb3uqHaoJEbcNz2NW/EPhu2tliheyBWRCzbl3AH2z0roji+WfI9TmWEUoc54hHc2aQC31XTUlbbw6p1+p7VsaH8LtI1YiWS5MYc52ovT8a3PFPgrRbhZEsJ2gl2lwuOGx1NU/BStp3jBbKTUywVR+5J47c10+05o3ic6pKM/e1Hal4P1Tw4r+XcvdQBdu6Q5Kj2zV2706zhsLaWKRmZrbc4J4U5IxWvqWsXJ064tLi3WXzAVXHBH41lxW5vIWt9/PlhcNwAd1cdSTk1c7YRXK7FbQrS0nuB/aUGYxHlsjOD61RvvDWm2upG9sSB5bbgwOFYHgYHavun4Rf8EYfj78Uf2X3/au0LxR4QTw0mmma4nn8SIv2fHOyTI+R+R8p55HrXzv8Kv2RPiF+0FrV54b8Bajo0MunJE00up6otvGwdtq7WI+Y5FbUqNWnKLvpLbUdWMHSd9bfgeJyXM5mmLO7PuGSc88+tXrDVhayKl4qOrqF2kgEZ71714W/4Jp/tAeIPjtqfwGsNX8LDWNLsftF1PNryLahWD5AlIwWGw8duKtfHj/gl38aP2fdJ0rXfHGt+Frk6leRWsS6T4jS5k+dgqtsA6c8ntXbKk1F3tp5nmRu5LU8Jt9Y1DS5l1LSdRkhaOUKjwyFGwfQiqWqXt0dQkkuw0juwd2c8nPPOf519V+Jv+CQv7QmgW0WpyePfALWi6SuoeVJ4tiWVY9iucpjqAeRWN8If+Ccfxh/aZ0/VfHXhTxT4QsbDT51s5jq/iGO1LOoK5UEfMPlPNOFKo0ttdtSp2Uz5guYwrsj85/iQ8A1HFaO1s7xsGJ4CgfrXe/Gr4MeKP2cvFN/4E8YX+kahcQHDXejXy3dvkgEAOox0Ncp4e0yKWdZpZQAw3xjf+HT+lYTk46S6GkafM15kngv4U+L/G0rW/hvw/dXrr95ba3aTA99oqTxl8J/Ffg2X7P4g0W4s5M/cuIWQn8CK/Rz/ghN+2V8I/2cfjEfBfx2g8NxeGdWcyXc2p+HLa5k3beglkG6NflHQ9frWD/wXa/bn8AftH/Gu6+Hvwa0nwwvg/Rr6R9MvNH8N21rPKTkfNNEu6RcAYySK7cN7CvTbejSv/XcmrR9k9rrufmyNLuZpxb20TPIzABVGa3v+FaeKdOslv5rSMqSDhZQWwfbrXTfDjR7rVIJ5IbJcI2Vfb82frXq/wAP/wBl39o34sWK6l8P/g34m1yxMhQXekaTLPHvB+Zd6jseteNiscqVRx2Xmb0MLGceZnnFjd/Y7aG1MQA+zgcJyeBnNS6I7MnnMcMrEAA8da9huf2Ev2qLS4aJv2cfGwd42CD/AIR+ckleDj5fWvLdW8K+IPh74iPg7xz4cv8ASdTgkzc6dqFu0UsYJyNytyMg5rkhi6dVWW+9jeVCpBJvYgXUIxeTWswbeoyNpwOnU1+j3/BDDxVNp/wI+JunRuT9o8XQsoz1/wBGiFfmpcMJ/EF9v4CxZwDjsK/Rr/ggZJYTeA/Hb3mrWVvEniWNm+3TKoJ+zxjgHrXmZ7TjUwWumqOjLm1ilc+iP20fEmoya7c6hbwSOYNOOFAPfI/rX5x+MvE+p32gppVzdGSGw3IpY5AOOgPpX7MfF3SvCWqrcrL4x0Jp5LDYIY9Phmc5P8OfvV+eP7fPgnTvAnwis/DlvFHm0lZpZV8MR2ZLEAYMq8v+NceXYTDxpqzTf4ntYuHNFtPofHH9sASsWfOLS07dP3hp/ibxTNBpEiQzMnmz3MbYODtcYP6Vzz3gcEhuPs9t3/26g8QGS5ibazY+0ycH2NejTpw502eFKT5dDBvtRkDxytdl2jtjEquMhVxjgeuKx7idYtqwscKhwSPXk5rWk0oyy+X/ANNE5J6Bqp3GlsZNvrHKen904rui4rS5y8rktEYcmmxSJJCSQHIzz60iWyxyi6LOWDA56DgYzXW2fheOa7WKQfKbmINx2K5ouPDMRtEkCY/dMSf+BY6VTrxXUXsm90c7oyyxXEYtpHXy5xIJAfmU9Mg9vSuN+Kd2bn4iaqz4A+1HHPsK9YtNAjtY5cYyyrg56civJvi3Elp8QtTkVQWe4J9h0rpwlRSqteRjWjy09upzkkbu3mJGQPUjvSRWqxEszZ3enpVlnJUMc7SOmKZL8h28ZA6D0r0eY5WrFWVBv4jJ96KsrnHC5/CiqJuj+rr4E/CDwn43t5tW1z4pJYzCN9mnWTCK4iA4yzsW3BiOgVeo5NN8M/BnwxcQ6vP4xvNZtjbITp7W8KYmbP8AFuB4+lfGPxP8Sa5o/wC0i0OnarcwKyQfLFcMq/6kdga7vSPi18RbIqlr4ouF44DNuB/Ov4ooZdwrh8iy7nwNOU50Yyk3zPmlJauykktr+rPxF8KcOYbh3LKkcFTlKrh6VSbkpNuUkrvSSWttdD6L8P8Aw/8AB+peCtS1XxT4l1iObT0/0C3jVTGD77s4H0xXB/AO60bx38MPHvj/AMTeJBa6n4WmuE0mw0w7PtGzeE3sxYknaMhQMZrzCf8AbB+KegC40y61VJo1BBX7OmGI9flrN+BPxQ1DRvgd418b6lYxXf8AbmrTr9nc7FU7zkjb/vV2UMv4XhGVWpl1KVo2V+dO91Z359+h5kcv4a9q3LL6UvTnX48x8jWf/BVH9u7xB8T9R8H237OnhW2tYL+4jh1DVYb1FeNHIUs/nYLEe3Jr9Lv2E7HwF+0L8BLPx/8AHHVdQ0nxHLcSx3Np4ciVrRQrsF2mXc3Qc5NfmRc21zc+JLnUljCpLfSMEB6AuTiv0G/YM8a+B/DvwFtNO1HX2trhJ7iSZJAAAPMJz+tdtfL+FPZN08qoLbfnb89efqYvKuG60245fSS/7ff/ALcfRV5+zv8AByFWm8P/ABj1yycqRmfRUk4PY7Zk4ryn49fCLWfAOhG4+GXxV0zVNTdC8Fpq/hiSCNh05kW8JHPtXo+h+KfCniZCdK8V2swx/DJmptft/BPiPVrOe+1qEiGE7Rnhhn+Wa4amXcO1KLisuoJ9NJ//ACYo5Tw8pJSwNNr0l/8AJHxr/YP/AAU+vt0+g/Dz4S3UOfkH9rXgkI913HB/GsnxRqf/AAVs03CS/s/eCr4RDCeTLfygD0H7zivvLS/CHh0Xdxd6bNkTxY3xngHjp+VJdeG7mC2trSz1eZdsuXY8lxjoc1rDKeHY0bSy2j8lPX/ycHl3DjlaOApJPyn/APJn5ieLv2pv+Clnw5uN2v8AwJ8DaZICQGuXvoz+fm1wfjL/AIKSft8eHXjurj4G+CtUa4Jy2ni+nZSP7374Yr9WvEnw7h8UTX8N3qEKxo5VFks45CB/wIV5/rv7OnhnStCVh4a0vUXllcbbpfKBAxjlBmnRyzhtV1GWV0pQ7Wnv8pmlPLOGopOeApNdvfX/ALcflf4r/wCCxn7ZngsRHxF+z94Ss/Pz5IurS9Tdjrj9/wA9a524/wCC6/7UcD4/4Uz4HI/653n/AMfr9Dfib+zt8FdYtZdP8e/s42zQyRuslxpU8srKrDkjewx+FfNfxi/4Jf8A7IPiCOK88EX3i7wwI8CdH06J4zu5BLO5IxX1WAyfwvdNLG5VGMu652vu5rr8T3cuyvw3rPlxeXxg+65pR/8ASr/mT/8ABOz/AIKIfFD9uD4k+Ivhf8Vfhv4ZstMtPDMl2V0+3mb7RmaKFo5BNI6shWRsjHP0r8lfGumKvinUxHEkSpqEwSGJAioN7YAA4A9AOBX7bfshf8Exj+xb4zuvi9pPjX+1dK1/QvsEAmRVlDNJHMGwoxjEZ796+VPir/wQR/bh07UL/W9A+HKa/FJPJKv9hb5SwZiw+8o7GvpPDvCZLlvGWcUsnpqOHVPDOyvZNqpfd3vfc97gXB5JheLc0o5UlGhyYdpK9rtVL7637n5vCCYZUJkAc+1LpYuU1BVMRJ7BeP5V9X6t/wAEpP21NLs5NQ1X9mTxXb26Ejz2sMA4/GvK7/8AZx8ceBvEHkeJvD93YvA/zJcwEH6Gv2hVVKHMk2ns+h+ruhNSt2Oe8Dr8WNR8S2tt4R0+C3uDNi2eVtwx75U12vxZ+CPxstL2DW/ibf2txLcnEaQznZxz93aAOvau/wDgdoVnonjjTtU16HbEblQCB0JOP6165/wUS+Jfgj4SWHhhdS0xp4755dj26gkfIp55HHNKnRp4iN3odsJSw8ee/wB583fBrRPiTe+IU8LeGtWihMgLMsr5QBee4OK73Xfi3oFhqsuh+ILYh7JRFNNbruDOowx7dwa6b9hPQdG8efE6TVDbmOGazllhEg5AKkivm39o/S20z4+a/o0F9+7+3uUcOQMhzxUywNKDT6M1qYyrOjzaaM+qPhs/wu1rwsuv6n4kgt1nci3SeQKW5IOea+z/ANk34D+AdSey1t9ch+zDa7OCDke3PNflH8XY9Q0n4WeEtMsLxo2upG8xAcbjv65Fe7f8E9PAGq+JNem1yXxL4lvL7Q50uLTStOuGdZsAcMC44ya+fx+X1ZU5VFUsl0sa0MSnNRcbv1P390L9izwJ418d6GmAkf8Awh7N5wiBOTcdevXBr5F/4K6f8Eqbb4O/CiX43fDzxBNqNtayE6zDPAIxDGeAwwTn5iowcU34U/8ABWHxz8FPHV1e+PWlez0LQxp5h1uNYfJcusgQlO+Dn8a8i/4KMf8ABZjxB+2J4ch+DfhXQ7fTNLZjJcyW0zMLkYPytntkA/hWeXRwSwEpSj77+/1RGIeL+sLX3T879C8fn4YfEqy8XSaNFerpdyzvbO20SZBGCQM965X4jeObH4s/EjxB42GmQ6Sup3ss6WhkJWLJLbQT19K9Q+BPwHu/2mfj3YfCayS9Mmpyzbjp8QkmbZGz4RTwfu1N+0T/AME/PEvwW03V/FH/AAnOjTW+nag8Uuh3Fw66rF8wH7yILtBGefm7GvewuXVJw9ul0tfyPNq5rTpVnhpSSe9jwTwvqFlperG5vJMKUK5Uexr0PWLHwv4h06xudBu2kdoGFzGwHyEAY79+a86gso5bhVC5GBXs/wAG/hrd6zaNMsQUFCc1E6UZTUluj08I5Ti4RWh4P40XTdAv4ZrtmWN4plGFzg7hXE+G7a51H4jx6hpirLFK6hWPB7dRX0d+0T8PbLw74bYTwhrl0do8oPlXv+fFfONjpGsm4F/o8U0MMMgWa5iXIQnmumjU5Y2Zw4mnKnWtbzPU/iN4L+GfhH4U6V4zh+Ij3HiDUJz9q8PrEv8Ao0QLDcx3ZByB26GuN8I6hoWvl0j1KISRLlYw3JOehrl9a1u9u0lsZbhJY0+UeZ95j61k+ENC1eW6k1EW7CGNt87RscYzinUgpxbbsKnWcaqsrpn3v+zj+398afDPwusf2KrjVoh4A1zWoG1awW1TzJFZ0BG/G4fcHftXn/8AwUu8P+EPhH+1b4q8N/s+aze6XoVtP/oym5eFyQ7cHaxwRgcZ4rzD4GfEO4+H/wAbPDfjqLSpdV03T9Shnnt3jBJRXBIx3r1L/gq7+0X4O/an/aV8Q/FnwP4fOlWOoS+ZDYzQrHIql2PzKpIB59aypwqRknKWnRF1KsKkml+HU8P+F/xo0YeI1t/iJrviHTJJS4ufE2lX0s90+R8qGNnUEZ4Jz3NfSP7F3g79mL9pr9oHwt8Lfi18f/F2mWt7qM8P9p3alwkgdRbAB5sDcT83p718W2UET3whRcfMFUjkk5r6h/4Jifs+eCP2jP2qx8IvEjXKg+HL+8iuraVkaG4hi3K4II5VuaMTh6cndya6uz08zOk5x7fqe4/tu/Dj9hr4JfF7xV8M/Cf7QXjnxjeafbx2+l3ttGwtfPKYeIslwcqHGCMHGOlcb430v9nHwl4UsdR8K+FfHlnpk1giX07z3EURuCoLSjEuGIIbA6EGvfv2s/8Agl3+y1+zx8HdU8XWvxO1jWvEdnbLf3ElwF3KxQvsOG5Bz1PPFeift+/FzR/h3/wT58H/ALKnhrUdF1s3mgxahrOrTWMMd/bb496W52LwCsnBznCilQ+oYiq/fkopbJ9Tsq0690pwV3bXuj8n/if4l8P2Pi2e78PWVxdaTcMFWDUZWJYYGcsSSDkdax9RsNQ0W2TV57QW9teDfYsRncnTjPuDV/Uo9PV5ftUMbEHMauxyoo8Tai3iG1tdLu7gBNOj2xbR91OTj8zWLryU0l833Rbofu20/RHIWninVrOVbr7S3C4jIP8AOrFv4mlvdTivtWUTqsqtJEzkBhnlc9s9PxqheaVNLdtbxHMUZ3b+2KbpkESXW+V2eIuABjkjNerCrFq6PGmqkXZn6R/E39or/gnqn/BOzw5oHwT+FAtPi1fXUcGpRC4eRYghiyQxYk7suBkCuy+Dv7an/BSr/gmf+y7pN8nwYk0Hwhrc8txp2o6vo6kTvcbSrq7xnIG4EDODmvm341/Dv9jXUv2XvANx+z3qFy3j2SPd4ynmkIht5NkfyoQx53bwcgVznjP4xftd/tC+AvCv7Jt54wuvE1poNxs8P6DbYkkV5SigZwGb7q4BJxW+KhhqkIOs+jd1vfs/62NaLqxptpaX67H1vqH/AAcPftyGeG+m1jQbcQWoUP8A2FasBlRuc5i74zXw58Zv2h/Ev7U/xt1L41ePdeS91rULhBdzW9okUZVRtBCoABgAdq9r+GX7BXin4Vftq6B+zf8AteWCTS6j4W/tG70ppWja0EkUUkW/btIZQ/I6ZBr6w/4KF/8ABMn9l/4I/skeM/EXwk+Dtppr6JpMOqeG/EtnqU8lxekQF7gMjOUCrKQvHpXixowp1OWV7tXXz9R1MVqklp1sfmr4w8MnSLmTVJHIe8g3Ku3G3AAr6v8A+CQOsy2ngjxlpbAFJdaSbaB38pBn/wCtXzV8R7a3uPCGk31nqn2xpLFd7IMszY6YHp0/CvqP/gjLq1r4C0jxndeKtDLG7dfsgu0Kr0j+YfkRXHmkYTwfK9ro9TCU5/W48ibuj6V+L+t3c/iGNIb2eIlMKYpCCMAnjBr44/ay8Ya1qV5NZ33iK7uYvm/d3F0z8/Qk195fGD45eDYJ4ZU8L6XIEswkjeY2eGJzxX5//tsfFLw98QvEc154T0AWi+azSPFGxDseDj8K83CUKEJpxleyPUxNKvyaxf3M8GS7i2/IxJEFv2/26tzyCaIlhj9/cEE98CsklUG77BcODGiECJv4DkHp3qceIC0Xkt4fmDhnIby36N1r1EtjxnRq/wAr+5hAI5FkcEH54OKqMSI1YgcRXA59d3SnxapHao8R0yRtzKf9W/bp27VTn1iGIeW2lTEsr4IibjJ+lNKWxHsqnZ/cdJp7RC9jMvyj7REWI64CVHc+V/Z6MhyPJfnHP3z2rCg8VNDKGTTpc7lPMTdQMZ6VT1XxncC0SO00eV8IdwEb5zn6UlRk5AoVU78r+5nTStEWlZewB/lXiHxePneP9SkYHCzED0+td6fHmtlSp0KRQVCk+U/rnPSvPfHsWua74puNQGkXP76XOEt2Ix+Vd2Bg4VW5PoYYiFScbKL+5lPSdIvdWgLWsRKRj5pGGFH1NaFt4Wtm/eX+pIZCCFS1xIDj1PGKn+HnhDUtW8a6Lomo6Vei1u9TiiuB5TqChdQen1r9fP2SP2Jv2bx8DvjNqeqeD7WW70Tw8zaM05yyvtm5XJ5PAq8Vj4YarGD1beh1Zfk2Ix0HKzSTtt3Pyi0T4B/EbW9OTUtF+Gt7c28nMcyh8N78Civtf7BLo+j6TZWNs0KDR7ZiigjkxjP40V5Es5mptWPcjw0+VaP7j7J+MPh/xS/7Rn9qw6RO1nJHCY5lTKsBCAf1BFblpeX1rMM6Wx2/eyjcV3+leM/Eeo/tK6L8P9A1e5gtFRRqUDKhR2ZWcFeM/dK5z3zX1jafDbw3Gsgm0+NzMmJXaMZb61/MscF9YyTLGv8AoHpfkfzhmFZYfhjJbvfB0fyPgbUra1nsLm4mtV3NG7HK+1QfDaNH/Zklt1OPO1jUnI9l2mvqz9qT4O+BPD3wk1XxBo+hw29xFCdsiD1r5P8AhjKP+GfEh29JtXcj/tmOa5Y0qlFThLyPnJzpzjeJ80W+s2qapNbFSSZ2AJ7cmvf/AIR+J9Z0vwRb2Fg4VW8wNx1BPSvmeJi2rs56+eT+tfTnwm05p/DVlHt+8CRn61vmd40FbyFgXeTPVvhvrvjVIzJaa3JbRjqUUf1Feg/Enxp4z8Ga7FZaG0yW1pagPOkYbcWw2eR71xNgI9J0cW0X35MKMetex32uahc+JZ9MifMJgjyhAxnYvrXm0pRlTblvc7aitNaHlOnfG7xZBdm41HXdWjaYnYbSNNxGPRhitzwT8XteuNOuJLnWr1JpGJhlk25A9T2rvh8Nptbslj1cSXEo4iJVdqL19K88+OvgCT4caNHqFnbrH5r7crxkelN1a6kuV+6VKjSjFvS56D4L1PxprXgh/F0nxIuwouHjaJo49rBQDz8ue9X9X+LaaJoVj/aEBupJYixkde20YIxXDfCG40rUfhrb6Q2poZZFnkMIzlMR5yfritOeXTJ9Itv7S8RpZI+l2YYNznOR0wTXu06k1OMYu3qeK2rSclexz0vxafXNXeysbJ3kuXCIbhPlVs4HTtzWHpngC88Q+LzFe6hDOyrLE1tJ9zc56nAzx2rprrT7G28S2Wk6BqMV9ZrcLI8wHKtkHHQcVF4TttUtfHzRyeFbuxWbVABNPLGyuC55G1iefetvrdSNVttOy7F8sZU1yq1/M7H4k/EHwW2m2XwgtNXhOuaYkdzPYrncIAmwuOOm51H419P+Hv2yv2IviRpEei2nxb0K9dYVjlt0eVDuAAK8KOc1+Wnhf483fxB/4KZePvhi/hy5gg0Dwarx38gGycme2BA56jP6V1/w9+L/AOzn8N/F39nap4H0zULi5me3jTVJtqCdnzvO1lwByK+p8O62JyvirMoOHNKrTwzateyaqvp5NH6L4YZDGHE2awrS5JRpYaWrS1kqjS1t5eh+rnhJf2f5tIitvDM2lG2uU3wbpchxnGRvPrWL8RvhD8D9X0drTXRo3l3gKQq1jAwcgbiAQuegNfnr/wAFK/C/hO6+Ifgn4daVrr+H1tPh+17Da6TOwSVzcyYRTz2bPJ7VJ/wTIl13x34XntvFHie9vbfw9pk0oE8u7c2xlz+tftOKzh0cPyKFpbW7H65hcs+sylPn0jrrrexX/a4/Zk/4JnaFonivxL4l1HwpZ6mkU0+m2mlzz/a45sEqm0/IMECvwx/bX+M/ib4yaLoUUng6e20rQ7x7G01OUcXbIFVj1POMH8a/RvxN8KNJ1/xT49+KF0zyLNHAw81iVYvPtb8wa+Pf+Cpek+HvC/wu8G+GvDOmRWkH9tXMghgGPmZYsk/XFZcOe/Qc1fW103fU0zGE4wtJ9O3Q2v2EPEujeAxN4w169S2sdO0bdczseFBjP88V8+/FHxt4d+LXxYu/E2hQk20urP5bsvDgyHDfj1r2T9iP4X6Z4o8M654T8QXPnW2o2kDSqpOQCGyOfrXGyfAL4k618S9R0v4T/BPXrrQtP1RLVb3S9LklgV0A3BnAIDYZWIzxuHqK9vF18Nh6cJ1pqMV1bSX3syw9DF4uPsaFNyb6RTb+5XZW+OMWk6p478CeCo4yHtoP9JRRxl2RlP5V9GfsGeENXHxcvfC2ga/f6bJcBR9q0yNGmC4XIAcEfpWL8Vf2YviZe+KPDOu6L8J9YmuI2gW+uItMkbywoAycDjGO9fQn7CGkfEX4BfH60+Ks3w4mE9nGZI11azdIWkBGMnjsPWvCx2ZZTXpSgsTTSf8Afj/meph8izyE7/VKl/8ABL/I9V8efBvVNA/Zi+JGs6fd3PiG81OXzLyTXoEV7aURooEflgfwqDz3Jr4s8JeH/DHh39m6x8QrYA6nf7vMuJCS3U8Dn2r9EvHH7Tev/GD9nfXda8V/DA6NrXieaWW/0LTLKTdDtBjX92dzchFbv96vg2++FHxUb9nzRdC/4VtrwvYN5azGjztKuWbqFX5eD3r5fDY/L6bcHXhpJa80dfxO+tk2cz5X9VqJ2/kl/kZX/BOqx+KGv/tjaLpXwh8TW+j6ybe/e31Wfpb7LSVyRwckgEdD1r6s/aM+PH7Q+u/8E5Nf+HvxN+FHibxDPqOpRBPHN1p1mkLlZY2LK0ZVzu917185/wDBOX4M/FjwD+2p4c8Y+O/h/rGj6Pa2up/aNQ1GyeCFS9jMiAuwABZiFHqSBX3L+1P/AGn4s/4JcaV8PPhHqFivjRpLZptLkuU8+PDxGQsmcjgH8q+hr8X0MJFUKVam423covffr0PElwVj8VifbVMNVTfaM+nyPxu0DRmsNVht9UgeJ5L2OBEYc+a7hUX8WOK+m/hDpV5Z6hJ4Ue1NtdRIwkSfjacH0z6V4n4r/Zx/bDu/jNosU/wp1+XS7fXdMl1O7s9KkMUu24UtJnH3VwST2HWvqTQPhp8SLX4x3mozeANTitHklVLk2jFGGGwd3TniufG8RYGlhnKnXp83K2rSjvbTqfdcG8I4nG8Q4XC43DVFRnVhGbcZR91ySlrbTS+vQ86+M37H9z8T9Si1638SRLOkDRyWd07iB845yo3Z4/WrPir9ldte+C6fDTQdP0bQLiOEiY6ZLI0F/JziScyIzggHA2YGPevunXf2c/2afCWoJ4K1j4zeJL/Vrq3hca5oXh1LjSNOeSNW2TOJPMm2sTvaJTtBwA7KRXB+GPgBf3vxCvvCfjHxbp+laXpHmSajr1u32uKaJCB/oipg3Uj5GxBjOcuUAYr8jiOIcZKpFTr020+koaPzs7L56fif09h/CfwdxlKdZUq0Uo83vOrFyj3imry10sk5arT3o3/OnR/+CYHju2juRqfjHQmdoz9meGWfIfP8WYunXpzWpL/wTX8Yf2Xbadb+OdLB2/6U5aQfNz93EfPbrX6LfEP4M/C+58Jy+MPgl4l8QytYTRxajoPi/TYra9kV87Z7YxOyzICNrpw6cN8yk7djx9+zt8G/gp4S0HV/iv8AEvWZ9V8W+D7PW9D0bw/pUbm3SeLcr3MkrqoUuGRVTc2EZjt+UN0QzzNcU5OnVg1GzbTi0r6LVPr2Jh4TeD0VTiqFbnqNxUL1XO6SbvG2iSad3pbZn5yaf/wTz8YaNpdtb6Z8QrIXCRATs6vt3A5+XCZx0603xh+wl8VvF1rAl3rHhL7VHEqy6iHuhLNjsw2Fce4APNfo9afs+/BTwX8OvDvjH4xeL/GUj+KNMF9a3nhDw7DdafYxmRk2STyzL5sq7SZI12lCNpJJyOW8M/AfSfE3j/xBptp8SrJvCHhi2N/q3jGK1d0FiXRY3SDO5p3aREWEkYdiGZQrMOn+2uIKdo8yblbT3b7X17aa32XUmn4PeDVdVKkaNVRp3XNzVUm1Lkai7e8+b3VFe9Jv3U7n5xv/AMEzfitFqgvbTxl4Z8vblo3kuPvfhF0re+Ff7Ev7T/wW+IEfxF+HPxQ8N6ffLbywO0U1zzHIMOufJ6EcV+hnij4Q/CXxZ4L1Xx1+zt4w1y+Tw3bpceIdF8UafFBdpbNIsYu4Whd45Iw7qjoSrruVgGBOzXi+APwQ+H3w18J/E745fE/WE/4S/R3vNO8N+GdMSS+QLczRGWR5mWOOHEa7eS7s5woCFjf9uZ9KTXNCyV7+7a17b+une5MvB7wepUoydCvzynyKF6vtOfl57ctrr3VzXfu21vY+HvAf7NPxz1nWdV1X9oT9oXUNUt72RSulaSytBdRgEeTMZYlYJjC/Ic475rmPil+yH+0t4yuZjoPxwsYraYbDa3jSEJEo2xoCIiflXA/Cvs745fCyD4SeNo9D0vW31PStR0q01XRNRkt/Je4s7mJZYy8eTscZKsMn5kOOMVx1cc+Ic2oVHF8qa0+FHvYXwI8L8xwkMRSp1JQmk0/aTWj8nqn3Ts09Grnz/wDsz/8ABKX9qDVfHdt8S7T4U6X8RdE0y5B1TTI7PUJLa5YL/qmeGMHPIO1Tu6Vx2p/8E8PiUmu6gb/VtAsTJdSeZYKbkfZyCR5eHj3DbjGDzxX6OftZeKvEngPx1oPwi8I6/eabpXg3wxpSWNtp90Yoxdy2kVzcXQCEfvHmmdi5+bgDPAAo/tYSw+Jo/APxZmjH9peLPA0Fzr05Ch7u+guJ7WS4fbxukEKMx6sxLHkknpxOc49QqQjP3oNc2is9bO3o9PPfTY+eyrwb4ExFXDVa2GkqOKTdO1WfNH3eePPd2fNBOTslytcvvX5j83dZ/wCCanjy40yCPTPH2kfatmLlpxKFHXhcJkj64qhY/wDBJv49WmjDxhd+INI/sqS8NqmoiG6+zmcKHMQkMO0uFIbbnOCDiv0A+Cvwj1742ePrbwTotxFaQiKS61fVrri30yxiXfPdzHskaAn1Y4UZZgD7j+0h478MeOP2NtC0r4a+H5tO8KeG/iTdaX4bgnjAuJrZLCJ2urggYM00skkr9lMmwcIKrDZ5m88NOq5pJLT3Vq1a/wAlfV92vks38GPDHCZxhsDSws5ynJKb9rJKnGSlyt95ScXyrspNtWSl+XHw8/4J/fFDwnBMt94z0qWx85cvCJj5btkgcxgZIU45/hPpXr/7N3wR1f8AZz+N2mfG/TJtK1S+0q4imtra9jkCEowbB2444r661fQoPHfwO+EvgrwJqVjBpt9rs1j4pEMirLFrU90yxS3YyMj7KV8lmGNqTAHh6ueIv2dP2cbX4i3v7PXh34z67L44t9Wk0y21K/0NItFnvlkMa224OZ0BfEfnFNu7kqEO4E82zyo+ZVE1aO9ldtXSV9+xdPwq8JKFOVGvhKqd6milVm4wpzcHObirRT0klvytNXV2fAP7SP7Lnx9/al/aN1z9oX4kfHWNL3WLuRlS0jkD29uWJSFGwMKikKM5yAM1f8K/s0/EzSPFV1Lqniyyk0CaxW1j0ddTu5F27ArsRICMuRuIzjJ44r7H+EP7MuueMZvEGvePINW0/Q/CN8LLXF0bS2vb+a8JcLaW8S/KZCY3LO7BEVSSSSqtL8bP2eNM8G+EbL4qfD6XxF/wjt3qn9mXFp4u0b7DqFldbC67lBKSxOgZlkQ8FWVgCAWqrn/Edeh7SbVrdknZaXtvoyl4M+CsczWDjCbm2lpUm48zXMo83w3cbNK/VLdpP4s+DP7Jfi34YfFqz8d3viPTp7G1+0YtoWk3jzI3VcAqBxu9a97r2z9oj9nj4N/s263rPwv8T/EzWNW8Z2YR7a20rS41sbVXRXjS4lkcMXZGDny1KqCoyTkLo+Jf2bf2ffhlLp/hH4qfEvxlaarqFjbXH/CS6Z4Win0KPz4xIrRyGYSXMS7gDLGBnkhflwfJx1PMcbiHLENc0Uk9Urauyetr7/qfoPBr4J4PySGHyaFX2NeUqsPcqSc/dhecU48zjbltZa/ZTueBUV6J8OvgtoWrW+u+OPiR4zGneEPDN8lnf6npEIup9QuZN/lW9mhKq7OI3be5VERSxydqNJ8R/hH4DbwO/wAX/gZ4r1LVvDdtqEVhq9prtklvqGmXEiu0RcRs0ckUgjcq6NkFSrKMKW876pWdPn+drq9lu7b2/rofcvPstWM+rXd7qPNyy5FKSTjFztyqTTVk3u0t5JPzeivefFn7O37OvwZu9L0H40/GDXpNX1zRrC/hsPDGixy/2SlzbRy7rtpnQFtztiKPJ2ICWUuFHlPxe+G2qfB/4m658MtYuo7ifRdQe3NzEuFnQHKSAHkBlKtg8jdg06+Dr4dXnbR2dmnZ9nbbYjLOIsszeooYdy96LlFyhKKnFNJyi5JcyTaTa7pq6aZzldb4d+Avxs8XeFJPHPhb4TeItR0eNWZtSs9ImkhIXO4hlXDBcHJGcYOcVieDdCHijxfpXhoyhBqOpQWpc9F8yRUz+tepftM/GPx5on7T2uS+B/FWpaNa+ENak0vwta2F2Yk021tG8mKOJUIVRtjBOPvFiTkkklGlR9k6lW9rpaed9de1tutxZljswWOp4LAqHO4ym3O9kouKUbRs7yct7+6ot2lojxuun+HXwV+Lfxc+0/8ACsPhxrGv/Y9v2o6VYPN5Wem7aDjNdX+2Ro+had8eb/VvDelw2Nnr2l6drSWUCKqQPd2UNxIoVflUeZI5AHABwAMYrzSz1LUdOLHT9QngLfeMMpXP1wamdOGHxMqdTVJtaafmmbYXG4nNsmpYvCWhKpGMlzpyUeZJtNKUb220a11O08Y/swftFfD3w7ceLvHHwU8S6Vpdrt+0399pEscUW5go3MRhckgc9yK7L4H2XhHXPD9roXw+/ZE1H4laxGnneKtQv5LtUtwzHbBbraSARLtAxNIS7MWwoAApfiXq2qfCH9mHQvhNdapcPrvxBeHxL4mEszM0GmpuXTrU5J+/mS6YY6PAe1dz4q+Hvhrwt+zd8L9A8YfHiPwHoutaFJrU1pY6fPd3WsX89y4+0SxQFf3UUCwIHkbPyuI1PzV6dLDU4VpOmvhim+bldm2tLyXKtGrtrR3W58NmGd4vFZdTji5XdWvOFN0lWjzRhCV5uFKbqzXNGXLGM7OPLUbSTt8+fF7RdD8PfEbVNI8O+Gdc0S1in+XRvEcOy8sGIBaB+7bSSA5CllAJVScVq/s9fDXw/wDEz4gPaeMtQmttC0bSbvWNda1KieS1tojI8MRYhRJIQsak8AvnBxgz/tE6F8TdI8U6befEbxhF4livdEgk8P8Aia3m82PU9PBZI3DsokJUqyFZQJEKbWA2iuf+E/w91H4s/E3QPhlpNysFxr2rQWMc7oWWLzHClyB1Cglj9K4HHlx1uS+vw7X7L5+R9dGs63DHtPrCh+7d6qvLlsvel7yTbVnfmV091dM9auPFGkQlDb/8E7tOW1dA9j57a08hhP3SziYeYevz4GfQUVleJfjJ8AvBmvXfhTwD+y/4d1XS9OuHt7bVvEuo3017fBGK+fJ5M6RoXxu2Iu1c4BPWiu91qcXZ1I/+Ar/5WfKU8uxtWmpxwlez1V68k7dLp4y6fe+vc9B+ElmLn9sxZWTPlpCQR/1xFfaygkADnivmT9nL4S+J/EXx91vx9b2EqWGmWMEr3EkJCSDaiEKx4YgnoPSvpxSAeTX5zhaU6fDmVtrfDU3+B/i5nVSM+HskSe2Do/keWftjyCL4Da0zP/yx6V8OfDDUYF+DMlk8mHNpqTouOuYua+vf24fFF9D4esPA0KR/ZNXinN25B8wbSgAU5wPvHqDXy7o3g3SND0BvDlk0xgaGWLc7guFkXa2Djrj2rwcTj8FSxVSFZvboutrr5Xtc/U+C/ADjzjPh6jnGCVL2FVTceapaV4uUNVyu3vR+4+P7R91+ZM4y/wDWvt74K+ANMtvh/ZarfarGHNrvRA3OcZANeWQ/sp/DOCTzEu9VJz3uk/8AiK9F0Oxh8PabFpdgzGKFAqGQ5OB61y4vN8HWpcsU2/Q+iw/0WfFSm22qP/g3/wC1O78PaJH4g8QWFqLxQouQWTHJFeyeEfh3e+K/EtzrEN6iQ28ixsrgkthRXznoPiDUfDusx63ZOryxNuVZgSufoCK7fwz+078SfCYmXTItNYTvvcTWrHnGOzCuHC43CQl+9vb0Omr9F/xTcfcVG/8A19/+1PrXT9JtrBFRYlyFAzivE/273UeA9NgwMyXr8+nyVF4F+NXxn8X6FN438QeJfCXhzRIbn7PFqOs204W6nwC0UKRlnlZQVLYGFDDJ5AriP2nNf+JmtJpmkeOrnRbzTLiM3mjax4f3NbX0ZJRirsc5VgVZCAysOR0z71evBYD2qg1DR7La+javdJvRNqzezPDp/Rr8SKmO9hz0HPVW9q7XSu0nyWbS1cU7patGB8GrK8tbK3vbk7bZrGYRsDzkxn/61O+Iek3OoWFvc6Vexw6nFpNklq0koXgZ3jJOBxWV8PYPGOv6tpfw+8Ho091dTLbWcLORktxljkAADkk8AAk8Cu21r4Dp41ml0vQ/jF4M8Q6zb2ZRdAsWuN1z5IJKQvJCI5XxkgK3zYOO2ePDyrY5KdKDkk7bpXfZXa5nqtFd6rTUvFfRt8RMDUcMROjFtX/iSdl/NJqDUY6PWVlo9dGYvwp0fxDp3i6P/hIwqm4tXcOJlYTbBnjBP3f61y37V3x3f9lv4Paj8W454Hmhu9+lxNINjTAsRuXOSMjnFdT8JPCXiLxCs/iRfEWkaFpHh+EwXGp6yXWGJpwQIkWNS8kjBGIVQeFJOKwP2nv2Y/CfxR+F9p/wk+reHPGPhi21URzXWjiQPBctudUmSdFdQwV9rYwdpGc8V6eV1cH9dhi8XSk8Na7StzOKdrqN7uKas2lZWep62T/Ry4yw2bQw+PlRaT1tN25mrxi5cnKm7r3bptPTdHxn/wAEnv2hPHf7QX7W3xC8Y+OtfkvLnUPDhuJEc8IRcwKoX0ABxXjH7bnjPw94n0qI6dpUYW/uBdX1za/I4fcSwye2c17j/wAEs/hhoHw9/bW+MWmeFlIsdJim06BWwSii6jKrkADovp2r57/bg8EQ+HbG/vNBils9OuLhxpkFzMPMjjBIyTxnJGeg61+r5J9Wl4k5jUoxtF0cG4rbRwqNfhY+EyeNXCeI2e4eq/ehHDxav1j7RaeSPd/2s/8Agojo3xwfwN43+Bi3mnLpHhJNIlF7JvZiHYlSVAz619/f8Ef9K1PR/wBlK+8Yao5ae+0CUtI/Vsqea/Hv9kP4L674p+Fsd3q9xbRQSajut2uU8xBGE5fIOF5BGDX3v8K/2rfjPb/BTRPg1+yDDYPqcdtJpup2+rOqpPGqNI00ZZkCZ6Y5PFfVZ7i8Mqn1akm5rV/M/SsnhVTnOT92Wi1/Qjk1OJ/g54jnGMSvCrDHcSqc1+f/APwVN1c3tn4QtdwIXUpGGfcJXtvxHuP2ufD/AIGmiv5tMtbDULsqtrFqsLzORht21XyV98YOK+Pf2sbP4k3d1pUHxA1aa4aK4We22wtIo3EZHBO3GK7+HVKnRal1/wAjXNrezbvfpofQn7Bt7ZWeoXi3kpWLyIA49BznFfpL4M8P/Af4iarp/h39i6yl1OC7ghTWYoISpOsCJftRJYKAqqELOflABJOASPy0/ZJ1horTUc7w6RRBgyEcc46198f8ETdZN98Gvid4S1O8j0nU/Eur6tpuhz3biNJJS1m4hLthYxKqMm9iFBYZIzXz/iZh6eL4dp0qjsnUj6vSVopvS8novNrc+68JMVVwXEzrUldqlPe7Su4pyaWrUV7zStdJ6o938c/A/wAW+B9EPiU6rous6dHMsN5e+HtXjvY7SVs7UlMZ/d7sHaT8rYIBJGKk8GfAXxn4x8Px+J21LRdGsrqRo9Ml8Q6xFZf2gynDCASEFwDhS/CBjjdkHCa78F/iv8OPD15r/jbTpvDUL/6KlvqUrQTaiSVLRRRDLSKBhmYgRjABbcVB6/4i/Drxv8c08N+MfhFolzr+nReGtP0ua309Az6VcwxCOSCVc7o1LAyCRgEYOSCcNj+dqeWUpVZt4apzJJqlf3ndtOXw83KrLTlvdp3sf1LUzetCjTSxVNxk5J1re4rJNR+Ll5nd681rJq3McTd/Av4o2PxHX4S3XheVfEDW3njTgwL7fIM+OO+wZx+FQfED4T+IvhpBb/8ACT6po/2yVylxpdnqsU91ZuBkpPGhPlsOhB6Hg4IIr3nT9YPhH9tbw7dN4gsmk0rwJBD9pivElhilTQmUhXBKN8/QgkEnjOa+YHdpHMjsSzHJJ7mpzbL8uy6lUUFJz9rUgrte7GHI1dJayfM09lpt2rJMzzTNa1NzcVD2NKo7Rd5Sqe0TSbl7sVypr4nrv3SvXvEfii2/Z80bQPCPhHwtoF5qeo6Ha6tr+pazo8N5Kz3CeYtqolUiONYimQBuZmJJ6AeQ17H8QPh14w+PGm+HPiP8KPDtzra/8I9Y6VrcFj+8lsr62iEJEidURkRHVvukE8gggc+TrEewrywibrLltZXly3fM49b/AApta8rfS5055LC/WcPHGtKg+bm5naLlZcik3pb4mk9OZLrY5r46eH/D0a+HPiP4U0iHTrPxZov2ybTbUnybS7jleGeOIHlULR7wpJ2iTAJAFcx4J8bax4A1weINDttPlnETR7NS0yG7iwcZ/dzKy5464yK7/wCK+h3Oqah4F/Z+8P3drc6poWlG01EpdqYYr+4uJJ5YvNztPlh0RiCQGVgCcVwHivwP4i8GeMLjwLrVqn9pWtwIJIYJVkBc4wAy8Hrj60ZpSxGHx7xFGLjZxTcVZKpyJyStompc2i26BlFbC4nLY4WvJSuptRk7t0udqEnfVpw5dXvfV3PZvB3xi8Qah8IvFvxH+IPhXwpNYxW40jQrePwfYwm41OcEhg6Qg4hiV5SARz5YPBrzH4O/DW2+IGu3F94jv30/w1odt9u8TaqoGbe2DAbEzw00jERxr3dh2BI2v2g9T03w8NF+Bfhq+hnsfCFoy6jc2zho7vVZsPdyhh94KwWFT/dgGOtSeCPjz4M8NfCxfhX4i+CdhrNq2o/bry5fWbm2e6mAZUMnlEbgisVVegyxxliT6eJxGHr5jTw+PrXVCLu5czUqm7i3FSfKpe7dbxjdNOVzycLhsThsqqYnLaFniJKyhyRcKWyklJxjzOK50nqpTSaajYb+1hY+E7H4sofBHhW20TTLnw7pVzbabaj5YRLZROQW6u2W5c8sck8mvBP2l/iT4c+Jmu+Frvw1dzTJo/gHSNIuzNEV23FvBskUZ6qG6Hoa+mP2v/GngDxB4h02w8NfDqysbtfDukyNqlvq00x8s2MJWDYzFfkBC7vvHbzzmvyi+KlhqvjXx38B7iV7yW6Ny1/cyxyHH7uC3ldpB/EDgjnoWr7fhzDRrZ/mNGnUjyylduKaSsqkrJNRttbRW7Hp8NZssp4fwuY1cPOVWnCnCMXJXftKlKi22udt++pK+rs07Nn398D/ABNpvhLwrp2ofDP9t658AmRQ/iXw3rNpeSxrOCA0sSQRPDco6gMFcKwxsbPBNJvjT8ENR+K3xE8MRaXPovgTx/bx2n27T7H5tOniljljv1tQR+7aVHZrdWGxJiFyUVT1Pxk+Ffwh8beA/hRqGt/HHS/B19D8MbD7dZaxpdxKJ4ftFz+/he3RvMfO8GJgpGEwzbjto/Dz4UaP8UP2PvE2geCPFul2s8XxZhbRpPE1xHYG+gWwn2xiV2MccxUl9jOF+QgOzYB+3cMSpKjDl0V1re/u6q3M+W6bTta79Fb2VicjnTqZjXdVOc1Tk3FQVP8AfLln7RUYqq6coRlFzdRRind2cnLl3vfhd+zz4A8T6T4R+Kdj418R+MdI/shJdEtLiKz0qxaWOSaR3uERpZn8sRrGqYVSzl87VPM/GP4heGfGXw9+G3h7QriV7rw14TmsNVV4SoSZtQupgFJ+8NkqHI9cdq6rxRrWgfAP4Z6H8JX1PSfEHia18bxeJNY/s64S7srFIoVSKz85flkkY7mlCFkA8tdxYMF9e8XfFP4qePPFV78U/ht8ffhtpvgO/ne9W71zR9IXUdHjJLNbT2ptjcyzofkHlLIJCUKuQxIzVJVIyp3tolyxV7XfM9XJbNK7u7Xs7WOyWNng69LGezdROc5qtVm4KbjD2UUo06El70JN04pR5uXmjzuTb+ev2jfiN4Y+JGreE7vwtcSyJpPgDSNJvTLCU23NvBslUZ6gN0PQ153XseifEnw/cfAf4xadqXi5bjVfEviHRrixN5bJBcagiXNzJLJ5aFgn3kZkViFyBk4FY/7M1v4lfxNqFz4D+KuieHNeisD9is/EhhSy1iMnEls73GYd2NrKkq7WI4Ksq54KtP6xiIvmu56u1tNWrWvvZXtfrY+qwGMWU5RWpqlyxw7UYuTlaScKc+ZtU7qKlNxb5HblcnbVLp/Eb/Bv9pWz0Hxt4o+Nth4L1/T9Ds9K8SWWtaXdTpcraxLBHeW728b7y0KRhon2sHVsMQRjG+I3jj4V/F34teGvCt34kvdF8C+GtGttAstaksDLcNaw72a6eFM4aWV3fYMlQ4HzEZPV/Hu98PeF/D/hfxX4503wEfiJZ+I/PmtPAT2zWlxpse1h9uS1Jt1lMo+Qx4LRs28cLUXj34K+F/i18T9S+O3hf4zeFrHwPreqyareXeq61HFqGkpI5kktpbIZmknQkooiR0clCrENkd1WFWTcYpOV4uW6bW/va6WfxWtrrc+Xy/E4GhCnWqzqQpKNWNJ3jKFOV1G1JqneblFv2LnzNxTiot3PPdB+L3i34AeOdaf9nf4o38FhcuYItUjtVikvLdWym9HU455x6jPYV6X4h/b5+MfiH9mdPAOo/FzVZvEk/iq5fUGa1jCyaW9pGipuCY/1gfgc1TvfjV4A8da98ePFsbR6XbeKtBUeG7C9CrLMy6lZlBtXK+d5SO7YP9/nFch8OvEvhLTv2Y/iV4a1TUrWPV9S1PQm0q2kx5syRy3BmKeygpn6is4Vq1BunSrWjJT2bSVm9lfrbT16nZiMvy3NIU8Xj8uUq9Kph03KMJTk5qmm5S9nqqftHzWsrw05VoqvwctPh+df8FanDrV+PEKePLOLUNIeIeRNaGWNknilA+RlYMjIwP3lZf4gPXPjF4R/Z+8D/tSeJ/jTrfxwttUt9M8b3l/J4Kg0q4j1O4vI7xnNmzEeSkRcEG4Eh/d/ME3Hy6+atD1i+8O61Z+INLkCXNjdR3Fu5GQsiMGU478gV6p4C1Twn8ebHxv4a+IWraHpXjLxLq8WtaF4k1cLb27XIeU3Nm8//LBZVm3KW+TfCoJXINZYSvCVP2XKua91e9rpO3XdvSz0bOzP8qxNPG/X3XqKjyOE1DlcuWpUjfeDahCN23FqcYp2eitv/Cj9qLUdWtfGvgnxB8UtW8B3HjLxL/b9h4p0a4nWKyvj5m+C4WAiRreVZAC67jG0SHYwLEc78fvGcdzo+meGNS/aY8Q/EnUorw3N1dPe3R0qyTBCJEt0BLNMQcs+2NUB2gOSSsniXwD4P+BPwd1zQ/HGpeGtb8Z+JprWLSLbR9Qh1BtCtYZTJNPJNEWSOSXCRqiksULklRgHy7CeHtZt7iJ7O+8jyLjay+ZC5KrIY3B+9gnYw9QRRiMRiYUVSqvW2ururtuzV7X67XSdu1nlOUZPicwnj8EmoKXupRhy1HGEY88ZuDqKP2bKajKUHJJpty7X9q74j+HPi5+0P4o+I/hO7mn03Vb9ZbSWeMo7KIkXkNyOVPWvXPhH488IeAbfTLvw5+27LZeCFWOXV/h/4h0e7vZdpyZ7L7N5RtZw53KHDICJNxCkGvJPjZ+0r4v+PVvEPGPg3wna3aXCSyapovh2K1up9sZjVJJF5ZAuML0G1cdBUnhL9pzxb4I+IV38SPD3gXwbFd3uktpstkfDUX2MQMAr7YfuqzgYZhyQWHRiDdPF0qeNnV5r8zvezW7beikvuvr8jDFcP4/GcNYfAOjy+yhyqHPTmnyqMY3lUoyV7XamoRcWttbGz4R+IPwj8Z+HvFvwR8QTSeENB13xOut+E9TkR7uLSJ4xLGttcKnztE8UgQyruZGjU7GBYiHxrr/w5+Evwc1P4JfD7x1B4t1LxNqlpe+INd0+1lhsraC283ybWETKrzOzSeY7lUC7VQbssR3r/tgaTffsr6np03ww+F8OvTeM4Uj0mDwXbIPsZspg1yIwMb1faok6jOO9fOvwg+PXw9/ZU+KK/tFfE7T57jRPD2qRS6tHbR+ZI0RhSIYQ8HDS5xWyUatWnRpyTlNW5rWaUpWta9ur6Xtp2t5k6lfBYLGZjjKM6dLDydR0vaKUakqNPnU+Z0+feENFLlclzNN8yl2v7R3xF8MfEj4iaZ4j8LXEstra+FNEsZWlhKETW1hBDKMHqA6MAehxkU39qv4h+Gfix+0J4o+Ing24ll0zVL9ZbOSaExsyiJFyVPI5U187ftSf8FLfGHw7+EXgvWPHba7r2ja/aLc2OlS6z8tpiGJkU7lO8hZdoJ6AHHWvH/hx/wAFo28La/8A2x4F8Aa1o18sDqLq18QiNmXGShKx8g4HB4yAe1bRynNsdCVSnTbhOV2/dWqunZOXdvqeTifEXw74TxVLC43GRp4nD0uSMH7WS5Kipzi5SjQ3cYweidrtWb2+rbG9uNNvodRtJCstvKskTA9GU5B/MV7t49039nP4/ePrn46618fLfwomuzfbvFHhq50S5nvra7YAzpamNPKnSSTcyMzJtDgOOCT8ffBD9s3xD+06IvijqGjala6je6oyC9udWM83mRuFD79qkEYGMdMADpXpFjdJql+z380hzcss0pbLMc8tk981jDLcww8/YzpJqUoqzf2m7R+GXnZ9DoXiPwHxHN4jA5jKNahRqzk6cJX9mkpVEva0eV25YuLspXWis5J+r+IfG3wu/aM/aG1fxr8VvE114O8P3cAXTza2LXkkEUEKQ20BVByfLjUFgMbuwB44z4b2nw1/4WppsPxI1m4XwrBqYfVLm1tmaae1QliiIOQ8gXYM8KXBJwDXY/E/4pappPwE161uvjD4vvJdO8Oy3ltpt1q260lSPA8qRdu5l5HG7GAPQV+dOif8FZP2ifhlrkuu+ANK0nTbyLfELmzluY3ZCeVJEoyOAceoB7V9BjOC8/w7hWrU0+aTbd1dvdq3Na33bnwuA8f/AA1jgKmHoYmpBRgqcIKMrQUU0pKTpcylZq7fOtE0t7/c3xn+KGr/ABn+KOt/E3WoVhl1a9aSG0j+5awABIYE9EjjVI19kFeiPr3ww/aK+HnhPQvH/wAWofB3iDwTo39jpPq+n3Fzaalp6zySxOj26s0UsYldPLZMOFQh8kqPy/1z/grl8bvEHigeI/HPhzSLye7uAb2+ma5eZiBwQxlPQAAegGO1WPiR/wAFZvH9l4htdc8A+G7C5lliW4ub7U5bgzi63Elg6yKfQ55Oe9cVPhvPPaTk4KSlvd7636PR38/wOiv45+FM8Jh6NLEVKMqCXI4U2+S0eTlXNBqUXFtO8ezSUkmv0R+PXxD8HeIrTwx8NPhxPdXWgeC9KlsrPVr6DyZdTmlneee58rLGFC77UjLEhUDHDMyhv7KPjPRPh9+0h4M8W+JbuO306212Fb+5lICwwyHy3kOePlVy3PHFfmpo3/BVP42a/wCIbSxu/APhpje3apNKRcFsswy2TLyec81+kv7C/wAKtD/ai8A/FTxV431a40+58CeEW1bTItLKhLiURTPsl8wMSuYgPlIPJ5rCeQ51Tx0JSjHmurK6tpay9Ekkd1Hxq8KsRkdXLoV6rhOMoybpy5m6l+eTdkrylJydkld6JLQzPiX8JPHnw28d6p4L8ReFr+G4sbySMFrVtsqBiFkRgCHRhhlZSVIIIJFFYPhr9uz9qnwj4W0rR/DXxg1y1shpsMkFpFq8wjgDID5aAsdqjoAOBRXPUyTlqNO68vdf48yv9yNqXjrlMaUYtwnZfF+9jfz5fZS5b9uaVtrvc+hvE/8AwVOPwO+JUv7KP9g3cpEcZW5t2Kgeagn5wDnrXU2X/BSdYNOCN4clZlTh5DyT78V8XftW/Bf4hSft3wfEjwtp2r3ttqSWyzLDpDyQQCO0CZ8wcDJUficV03hXRPjRrJuIJfh/eR7Iz/r9LPzZ44yK/K26kOH8q5Xp9Vpfkf5IY2dN8O5Omv8AmEo9PI+nvhh8Zx+258T00fxfaS6Vpfh+C6ubuWzZWle3SF55AmRgORDtBIOC2cHGDc134qfDTxXpVz4evPglpWiW6Rn+x9Q0GSX7ZbOPu+c0rlbpSBhshDk7lK42nxT9lxfiL+zfrd38RNWni0y9F0ssKX0QCCLY6OJA4AKOsjKR6Z5Br0/xx+0V+yt4X8L3OvaL4X0jQrvUI/Lk1DxD4piuLGxDDDfZUlCjcc4VpWkKDkfNhx48pQqxqQotKd3z3g5uUeWKSjaMrNPm6w1cXzaXj/oV4KXwPhvlEMZdc1NyppVYw5eavWlzyTnFuMouDTtPRSjyq7UursW8IfBb4f8Ah7xRd+BNM8S654ptZrvGvI8lrp9qkzwqqRoy75XaNmLsx2gBQoJJO/rPgb4YeJ/iJ8IJdF8HJo9l4zFu+t6bFcvJEGbUpIH2M53BSqnCnJUYG5uteRfDv9sf9mTxd4es/hd498aaB4otdMMsmgt4f8Y2sV9ZCRt0sYx5iyRM3zYZcq3KsASD22uftCWWueMvBPiXwf4BtNO0/wAECIaVpsF68/nRpdNcAySkbizFsE9M5ICg7RrGrgsPQUa6io2pWg6b51JSh7Rt8u0rT+0+ZNKytaP6LicVbFvlrWqXqtz9tFQcZRmqSUfaaOLcF8C5XFu7vzSZ8cPEvgLTda1b4X/D34baXZ6fpWrywQa1KZZdQufLkZS7SFgoViMhAgCjA5OWPnVaPiO/vvEniO/1+XT2jk1C9luGiRSQpdyxA9cZrMMsQODIoOe7V8vj8RPGYuVSySu7JJJJX0SSSPqctzDJMDgoUvrUG7K7dVSblZXbbk938j0v4wGaL4M/C62t1/0I6JfyqwH3rhr+US5PcgLGPpijXszfsneHJb8Ykh8balHp5IwWhNtbNLj1Afb+LGs3wd8WvBqeDU+HXxX8Jy63pVncvcaPPY6mLW6055MeaqOUdXjfapKMOGG4EEnNP4hfFvRPGEukaHofh2DSvDWgqy6doi3xlZi7h5pZZiAXkkIALYAAVQoAFe1WxGFlSqV1U1nShT5LSunFU029OXlXI2rNvWOl728GhmGEjWpYd1IJU61Spz+0p8rjJ1GlH3+bmfOlK8UtJa25b2P2f9P8U3vxa0m68H6vb6fd6e730l/eRl4beCGNpJndRy6+WrAqPvZxxnNet+DfiH+zDrPjttL+DXwzvvDXinUi1r4Z8SapdPPawXkoKK5thIfIBLbVbdN5ZYNtbbXk03xx8PaN8Trbx78O/A+maHALQ2txobXZngu0dDHMjZwcSKzDAwRkYORmtC8+OP7N3wq1GHxfpPwuudJ1yGTztKHiPxar2dpOpDLIIzEjy7CMhWfB43Zxz25PiqGCgqMKkHao23KEpNxtGzpe43CWju1ySuo62WnFnGJwmbV3U5neVNRjGFakrSvJtVkqiU4q6snzws56XevQfCFNI+HXgPxLqPxz0M6l4WuNZXTZPD8RIurnVYFZg8cquvkCNWYPJ824SBQjZysvj/V/AHjn4HX3/CgfCknh3StG1C3u/Fuj39w1xc3DuWit51uC37yNSzKY9qbWkDfPn5fL/C37XXwXj0q/8E/FzxNoevaXqOptqYEPieC1u7a9ZdrzRyfMCGU4ZGUqcKRgjnU1r4+/CO58C6h4O+COkw6dpmpyxNrupXuvx31xcLGxeKHciokSBvmOBuYqMnAxW8JuOW+yjH3OSUbOnL23M7tJT5bKPM1dKajyuV1zPXacIyzb20pfvPaQldVY+w5Vypt0+e7nyp2k4OSmotSUUrfH3/BOHxFHpH/BQD49fDe506QXF5ez6vHcsCAIhdIgXGO/mgg+gr5f/wCCqfh3xPcatp3jHTJtW+wzW7LNHcWskUSvk5IVuB0r7w+APwOsPh9+0p4x/aV0TxaNeuPFGniyk062tFVLNA8bj94jMWP7sDkDOc1hftR/s26n8ffCv/CJfEr4uppto7/u/M0OFCOTwCWU/rX1/DfFGBwHGGIxVZy5JUcLD4Jt3pwkpaKN1ZvRtWfS5/H3/EHuL6viRneZxhT9lWdN037ehd61L3j7TmjurcyV+mzPjT9gPx/498V/s6eIvh6/hy4u/sUmyw+yae7OVwp5IB3HJNew/B/TPijoN/o1rplpP4f1d725NvdajZMqKBbOTuDbcggEde9fYPw98KfDL4b+GrTQ9C8A2dubaJVe708raNMQuNzeWgzn61j6zp3w6HiKfxPqepW6lU8lI7/U/MWAdcfO33uTk8HBxX0WYcaZPXxM6lOMtevJP/5E+wwnhTxLQScuS/lVpf8AyZ8IfE/4ifFPwz4v0GDxrqfhyeefwnBdwyQaeihIWMm1Adxycg8989K+dfir8bdR8V315qOtyslpEvlx20UZBRhnDA9wcjj2r9KPjR8FP2dPihe2t94i8f8Ah3TWt7YQ24jntk2wjOEGXHyjJwBxXltz/wAE/wD9h7XZT/aHxgsLiQ/eWLxDCoP4LJXq4Ljvh6lSSmpprtTn/wDIhW8MuLp3jFU7P/p9S/8Akz8+/h3+0F4q8EXF03hvxCz/AGgJvW6tWk6Z4GTx1r9FNJ/ah174Jf8ABPbwf8bvB3hK0v7/AFS+EE1rcWzqru8twGkKxlWzmIcntV7wr/wTn/ZO0i3aXwz4hsJkxzK8sU+PxL16V4q+Dfww074C6R8MdR8d6Xpmi2F8Daahe+UIZHLStsXc6ru+dsYOflPFeDxfxdw3nqweHcZSpxrRlNOE1ePLJPom9WtFqfY8C8E8YcOPH4iLhGpKhKNNqpTdp80GvtNLRPV6eep8q+KP+CyHx/0/Tpjq/wANPD899bonkrK90yJGVztOZfpwCMc1HoX/AAV7/a2uNEbWtJ+DGgpbzfu3a3gvcSqc/wB2bkV654g/Y3+EXwt8IX3jmO9s/EEOp3Cbrm4gVkjj2tnyxllbOOuRjFeSaklhbW/2TR7SO1s4SVt4IYwq/kKmj/qJi054PAxmr2u3OPqrN3OmcvErB2p5hmEqcmr8sVCXo7r3fuKZ/wCCyP7QtpcNHP8As72V2oHH2fTr2M5+rOc1Uu/+C0H7SCRlLb9mG0EmeGktLwr+QbNXLWaG02zOQzdQuM1WLEsSwPJrZYLhLb+zIf8AgUv8zP6/xxf/AJG9T/wCH+RRt/8Ags/+1WbhftH7MulNF1ITT74MR7EuR+lXL3/gtd+1HbTE+Gf2ara1Vk2yefb3rFge2UZeKmhkgi+ZgWYdOKiZi7Mw4HpVRwnCUdssp/8AgUv8xPG8bPR5vUt/hh/kTaL/AMFcv2vtUWCd/wBnPQ1jncquzTr4lNv3mceb8qgHOTxjNfSX7Fv7WvxM/aVm1C58V6B4etrOyuFt/N0uZxJ5xSRiAkkjFlHlnLjgcA8sK+f/AArcyRXQCuwEkUkcioeqsuCD6gg9K9j/AGL9N0bSPG72WkaPbWqhJmAghVM5BzkAeteTneE4Vjk2IdLARhU5W4yUm7NLfVn0nCGK4wq8S4aGJzKVWleXNGUYq/uu2y76nkniH9u/9pzTf2g/iV8P4/F9tFpnhzxVNZ6RC+jW+Y7dXcKCxTL8AcnJqwP26f2kyST4ztQO3/Ent/8A4iuJ/aJ0e10T9pjxp5WkvDcajrdxcTMjmRWAc7WY/wABIOQtcyoB5x+FfWYXh3h+rgqM/qlP3oQd+SOt4q726u515Vnea1aFRSxE3KNSrF+87q1SVlv0VrLtY9fuv25f2kpLdRa+MrYSOhxt0q2BB9fmQgVqQJLdePPgbdMd5Xw9qDuwPrp8Az+ZrxKKwnu0KW8RkfaQEQZJ46V7lpG/TvEnwSs7iHEp8OXcLc/cI0+En/0HFazy3LsujbC0Y07qd+WKV/3crXtvbp6s+x4er4rE4mc61WUvfwiSbbS/22jqk9m+r62XY9K/aQ/aP+JsFn4V0ua+01rW00ldGhNxpyPJHbQzrNGEY8q255FYjkq+DxXYS/GnWLH4br+z/HZWgsdQ8SR62905bzjJHazQiNecbcNuz14rwn9q1kx4cQkbzeSlR3wPLyf5fnXReJb1h8ffDmn+YcHTJ3254+7KM/pXApSlhYSe7jUP0athqFLPMVShdRVfBtJNpJ3u7JOyu9Wlo+t7notpqGh6v4gttEsLZT5KW63vku255HZgwJJIBwOwGPSuL+KfiWfwp4TSRZ50vJCEjlV9vzDGd2AB/Ks74YeJLnSvFvjXWLU7pdM1PzolfkbkMjDj6ivK/wBvL473nw++E3hzW2tlkv8AXA0qrjADCON2Ptgv0q8FhPbZhCkktWv/AEm//BPkvEbMsxw/h9jcVCvONqb1UpXTWLjFO9/5fdv202PGv2lf2rPiZ4W+Ikfh3wj8RNVhjhhiZvIvXCszKCwIB5weK81uP2qP2hruwaJ/jNr4kLFs2+ryKyjJ44PFcDrV9feMJ7fxXeNlmuD5zb87izZA+g6VYsfDCWdyWjILTAsXZuK/UqGW4KhSUZU4uy7I/hapxZxRVqNrHVv/AAbP/wCSOmH7SX7RUKm4f46+LCp4CnXJjj9aS1/ac/aLlck/G7xYTtJH/E5mA/nWNqOhRQW6OswZt2cgZApulaQ7sqOpfdDk4GMc1bw2Btf2Uf8AwFf5CXE/FLlb69W/8Gz/APkjYsP2n/2krwBV+N3ioEvjnWJT/Wugg/aT/aHLgD4x+JCPQ6nKf61g+Hvh1Hay+c8TdNww5ODWy+hxRIIVVSc/Q0nhsBJ/w4/+Ar/I6afEXFK1eOrf+DZ//JH0d+yL8UfiZ4s+EPxL1bxX441O/utN0rfp9xdXbO9u32e4bKEn5TlVPHoK574M/Gj4peIPBqTap8Q9WnmFxIHllvnLYzxyTWn+yPa/2d8EPiqwTBGisfri2ua8m/Zm1aa48Cm7kyWe/uBg9vmr5WrhqHt8XaC0lDotPcP6HyvOs3/sjh5yxFRueHxLl78veaxFk3rq0tFfZaH0J4R+J3il9fgstf8AGGpvZ3EgimYXjBlBOCVOeD71qftD+MPEPh79m3Ttc8HeM9W024bXfKj1Ca9drho98/DvwWB2jj0A9K8zillVv3jckgjFdV+1XIdQ/Y10aWcESNrEO0KO+Zx/LNeY6FJYyhGytKa6eTPrK+OzGXD2bYhV580MJUt70tG5U2mnfRqzs99WL+xV8ZPFvxB+Jep+HfEXi+/1JbbQTNsubtpE3+dGu4Ang4Yj8a5Pw/8AG74m6j4dglTx7qrNvlEkrXrlmxIw659sfhWV/wAEzrN7f4069IVbDeGH5b/r5hrnvh0xHg62U9RLPn/v89ehiMLh4ZjXioqy9n0XaR8zwtnOb1uCMpqTxE3KTxd25ybdqlC13fWybt2uz0Bfi/8AE4cHx7qufU3r/wCNdzeX2oeMf2QfFtz4gnm1Cea6PmNPKWaTa1vgEnrjA/LFeRV7B4M4/ZP8Qbjn/iYHt/tQVwYqEKLpzhFJqcenmfdZHVxOaQxuFxNWUozw1dayb3g1dXvrZmH+0R4K8PeJvg98MZ9d08TLY6Kvk20qfLlra3HKn0Aryy0+Enwv1i2lsr/w3a2+5cxyWyLG2R/tAcV7d+0MS3wy8C4PP9nA8f8AXGGvJIsmRcnjcOBW2XVqv1RWk1rL/wBKZ5nGOU5bLPJxq0oyvCkm2k27UoR1+SSPb/8Agnn8FPE2j/CueMPZJbafrd1coJL1PMMXmsy4Gck4FevWM6rDdTpx/prH9RXyt4T+MXjj4PeNdPj0yTdoN8wi1VFXcyF8BWHooycn86+kPDOsQ6p4RudThnBR7vKuPQ7CP516UZOWJoVJ63rUv/Slc/IeHMt/snP84wsE1FYDGON+qdJtettvVGv8YNQaT4e+It9x8p8E3g27u+5a/KrXpR9oucdBMxz7Zr9Svijozy/CTXryGYMx8KXRJPYblr8r9cbFxPuH/LVhnHua/d+NHQlluGdONtX+SP5V4Y9t7ev7R310MPVtk0UIdvl8wHnt/hXof7S3h34baL4T8BXHgS6he7vPCsM2tLDMr7LkvICDj7pwF4Nea65KVt1ZFGd/5/hW98Rvihqni/wv4e8N6jpGk26aHp628Ethp8cUsygt80rKAZG56tk9K+FwteNKjOLinzK3p5n0NfDurWhPma5ei6mP4HJi8VaW7cgX0Y9TncK/eb/gjHY3GqfC79oS3lPyD4XOwGMZJtrvvX4M+Ao3k8U6ZcPnaL+PI7n5h2r+gL/giciN8Lv2gQIyu74YMArDBP8Ao93XjYiMZY6lfufRZdKUMLUa8vzPi+ENNpenglh5enQp+SAUVr20FjFYWqL83+ix7jnodvSivIxFFe3l6n2dKk3TR9G/Fn9pHXvCn7Rr/C+HRoZLZEh2zG6Ktl4BIeAPf1rZX4y3UrZfSXHHJXUHFcT8YPgpqfif9rWfxwdetbe2UWwEJf8AeHFsqnjHrXcW3wr8ORHN54plz3URLX8zV7LIcq1/5hqX5H8r11/xj2Tu3/MJR/I5j43eJH8Q/BnXdUKSRkQqmHuGkP8ArE7nnv0r4f8A+ClFjq1l+zDY3kNzp8dmTa7oWvibhmZl5EZHT3zxX3H8etF0rQ/g5rllpFy0sRhRy7DncZU/wFfEn/BU34ffDfRv2XtM8X2sVwdeuBZK7tcuVVdy5ATdt5BPavp/DBr+3mu7f/tp+4Z9FOvw/ptlcP8A09VPnL/gm14P1fU/i1/wlsLQrZadbvDcNLJhg0v3cDHTg81+xPgbxBpmn6ZZwx69pM0iW6fLHegkfKODxX5Cf8EwvG0unfF8eBP7PSSHVWWaaZycp5fQAdCDur9ntHvPDkGm24g0m0Rhbpz5C54Ue1d3ij7d8Q2qLTljy27f8Pc/GuJfavOpue1o29P+HuXdIu9a1SbMVpE0ZOfMjkz/AErJu/hb4suZh9lW3WNmO9nnwRz6YrYi8TWdqnyhF/3OMflTL74g2GlwG6urnCjoAeSfQV+aU6FSpUUIK7fQ8qhQq4qtGlRi5Sk7JLVtvokO0n4I6XNGG17xZLA3VxBCHA/UVT8RaJ8C/Dem3sqeNbO7m06HfcxT3vlMozgA4Jwc14l8bf2tL/xDM/gr4XEuZ4yk18DjZzztxnNee6D4csrWCSTW7+W7mmXE2+ZsH2PPP419Tl2S4aEfaYxN3WkV38z+iODfB7D06cMXnq5m1f2SbSX+NrVvyTVnu+hq+Nv2rfDmnavNF4a8A2IeF8Q3aa7JMoweoBXBryf4hfHn4reONUGpxeObSFkbdFHdaHBdKn08wU34rf8ACLWGoDSNA0pYnT5ppQxOfao9M8vRtChkh8Kx3nmrvlnkJAUYzjj0r67BVo4K1TDwjFvtGKf32P1WhwdwthpuVDCQg+8br8mcP4s1f4veLyx1f4pacoPQ2ng6zhYfQoARXG6h8LvH9+rAftAeIIVcjdFas0SH6qsgBr03X9U0rUnE9tp8Vr0ykbE5/Os8tbSbbeGMc8u5Ne1HiDN7L95+Ef8AI2fDWSN60f8AyaX+Z7P/AMEhvh/4i8HfG/xJc6r8Uta1uGTwoypZ6jcO0cbfaYDvAZyN3BHToTXzR4t+FnxN13xJez3P7RXiV8XcnlpJM5RBuOOslfX3/BMA/wDF5PECgcDw22P/AAIhr501kvJr14BkA3cnT/eNfF5TnWaR45zSqqnvShh7uy6Kduh+UcNZDlM/FnP6Lp+7Glg7K8tLxq36nGWXwE+KWuOtvZftB+L7lycsI7uVFB9tsnIqfV/2ePiDZSR6Z4m+PniEGV/nt51Z/l9dzSZJr1zwd8TF8BWLWFjpStcScySuuefQZqt4y8VXXjKSLUbqL95G3ZAOPwr698RZ5KVnU09I/wCR+s/6s5Cv+XP/AJNL/M8q1P8AYf8ADusL52o/EzWJe6yNcO/HsC+BWNdfsK+GtPm8zSfGepSNtJyUKke/Dc4r2q9i1S8t4JrIOsTRgKi/zq7b+G/EdrapeatbXEVu33JWTAPtmqhxDnaV/baekf8AIJcK5HGX8H8Zf5mJ8OvgD8QPgZ8HH8WeEvijFrEepTsqaXPODcRup/u5JGc8D2rR+KfjrxTd/wDBPT4XeJdZkVr+5+JaQXouIA3yi71CMqVPHAUD8K29Jt7Zb5tDlu8x3EXm2rBzhZMZ2/UnArB+NekXmkf8E/Phpp2v2jQzx/FgNJDLkE7r/UWGfqCD+NedjcyqY7FYRVdZKvB30u/cqdj2cFlOEwGFx1TDqyeGmmul1Upd76vU9h+I13537H3h+ezb5ZNRUYAwCN0/GB2yOlfPF1DqErYccDoDX0T8WJ9Pt/2RfD8ulQhYP7SjCIGyAcz55Pvmvnm51N5HLcD0r5/If4Nb/r7P8z6TiT+Ph/8ArzT/APSSp9lnyTsHB9aBDL9D3qVrhnbDv+VNyTg5r3vePnRqwSA9Bn2pRDI7crx3wKcrgHP8qtWVndX0yrFGSrMQDj86L2WoGp8P7K2uNcBuJIYUit5HDXEuxSwXIGfUnoO9epfsgW98/wAXptSmCrFJaTBFV88/SuT0LQvDVj4Ycz6ZNLqYlyzH7qx569eoGe1d1+yo7P8AFctH/qvsc2zjFeRnMk8sr2/kl+TPqeEYNcQUL/3v/SZHzv8AtN6lMn7ZviLSbnRZUOqTNFb3TyMEcLheF6Ej1rlRBFYXbW90pYoxDqeOhx1rf/4KAX+t6Z8fhe+HGP26PUL1rbagJLiUY61yj3d7estzqXyzPGpmGP4sDP61+kZQ3V4fwdTb92l/4CrHy+TYlw4hzTBbqNVzX/b+rX3noXgDxVoWkaja3dtFBHJaBpN1wgK7sEc56jmvRJIry+8c/By+t2jkjTSb6S4dTxtOnxgEe24r+deA2jDY58zClSpNfSnh2LTdLufhtpEmuLHNH4flS2gdBuuwlrCGx6YGGOPSsMwfJb0n/wCkSR+scLQlJ1JdFUwn/qZR/wAjn/2rWVdR8MbiBmS6/nBW34m3f8NNeGxjj+w5+fwmrD/at0jVNX1jwnFpto0mJroOV/h/1J/krflXReJll/4aL8ONsGz+yJ/m752y15Uf9zpf4ah+iVKkJ8TY+MXqsRg7/wDgMX+TMnwWbk33xSKKd/2ibywB1+SfFeYftv8AgqHxl8O/h1DfQF/ItZCy9+YYM/yr1jwMzprXxJadQqi5cgj02zc1z3x+sH1PwL4Nlil+7Z7twUHIMUVdOCrOhmkJrpb/ANN2PifEiManhjjqfVwf/qaj448efCy08N+EIr1YzGf7QiVY19CTz9a7GD4b6TNDZzRwB2SBSzFcdgeR3rt/FvgWz8V6fHpep3jokdwkqhEByV6Ctuz0vTIrRLXyguAFUj24r6qtmtSUIpXvrc/iOjl0PavmWljy65+Dejam25rFxuPJEhUfgBV2H4YWUFqumWdoCkcm7OznOMfe6ke1emw6RbzjdGuFH8XrUv8AYyBzFEhLMcnA6Vzf2hWW7Z2rC4dP4TzYfDIODEgY4POGIxSH4QxJJld4ZvVieK9UGjwW0Q+Tk9c1ZsNE2L505RNxycHPFP8AtCs1uP6tTa2J/gB4Gk0z4R/EPRoAd99pDxIT6m3nUfzrwj9nvwPqnhfwS2n6vtDwajcK5Rs5O6vrL4VWkdv4P8SMrLse1I49o5Oa8E8ICL+zL9oyCn9rXOD/AMDrjwuIqVZ4i/WUfwjY/e8FQhHKOH32w+J/9SDV8OwWM2rwR6k5ERkAY+nNem/HDwbFrH7Pel6AqBlj1RJEGO377H6NXlljG81yFX72c4Fe461PBrHwT0m4jkEiNOoBB6kGQH9RXJipSp4mjJPaS/U+tThLhjN4P/oGn/6VA8+/Y18AR+EvHmqXqxbTJpJTOOf9bGf6V5X/AMI1J4TL6FIwbyp5Dke7lv619F/AO1ih8S37p1NoQfb51rzP416FaWi2Oq2ww0qsJSB1O5uf0rWliZTzCopO9+X8Ez5zh6hFcDZVyrZ4v/05ROBHIr2Dwdj/AIZP8QnP/MQOf++oK8fyOgr1/wAH4/4ZN8Q/9hE5/wC+4KrH/BD/ABx/M+34S/3nFf8AYPW/9JD9oQ4+GPgUj/oGj/0TDXkRZgAenPavXf2hCB8MvAnp/Zo/9EQ15ExBGMUst/3ResvzYuM/+R/L/BT/APTcCW7QaxavbXWSskexgrYOMY4Ir0/QviMfBv7I/inxTcWEl2uhakkKxLIVaVf9FxyORjfj/gNeV2zmGYEnoeRXo3iHVrjQv2HvGGrWCxrLFeAoWjDDJlthkgjB6966qlSUKtFL/n5D8JI8DC4KhWw2Y4hr344PFK/WzpO6++zONvP+Cm3gofCDWPA0fgK9hvNS02S1WaWd5AN3YFq8WbQfhr4ohGp3iPHdzDMpWYqoJ/2QcV5P4p1m81mS41G8dHuTGSNsYUD3wBitLTtfa7s44Z45FkRAE8v+971+mY7MsZjqEKVR6R2P4wwWGwuDnKUY77nReNPg+Xs8+F9SWfnpP8mPoec1wOv6VJol6dOucCSIcgNuwa6jU9f8Q+GYFhvI51lkTdFHIO3TP0rhpNRuL0veXcxeWRiXJOea4KKqWfNsbV3R05De8GanaaZrenajqTt5NvqMck3kpuYqGBOB3PtX7G/8E/f+Cov7G/7PXgf4m2+tTeNJL3xh4FbTbWBPDQ8uKXyJ1Us3m8KTIOcdBX4xeGWkfVLKIx5U3se4nv8AOOK/c3/gi38PvBGpeGvjhD4m8I6ZfMnwo8+3F7YRyeS/2a7O5SwO05A5HpXNiFGOKpt73OzAOpKnNR20ufMHhn9pL9nW80K2m1D4l2trP5SiWCZkVkYDkY3UV5ZZ/Djw7fme5XQrc5uZMnyV9fpRXnYijh1XlzTd7n0ccRi0rWR9n/tA/EG70r9suTw6l40cYS2+TPDZtVNdUvjC4f8A5bn868K/ay1ma3/4KMzWJldVEdlgAjB/0JDXdf27Ci/PMp475r+aMRSX+r+UW/6BaX5H8z1qjfD2Ua7YWl+R2PxU1B9S+BOuXDyFj8i5/wC2sdfB3/BVXxLNJ8KtI8Pmf5fJtTtz6Fa+29evl1P9nbXZYjuxcKv5SQmvz+/4KnrL/wAI5oF+ZozHcosSxrnepjC5J7Y5r6Hww5I8RuMnreSXm7Rf5Jn7fxDXhSr8O8ztzZZBLzftar/JM8u/4JuF1/aR0uRe1tNnP4V+vVp4lkjtYlaXOIx0PtX4nfsqfFGb4RfFXS/Gcdms6LN5M8b5/wBW5AYj3x07V+iVn8fPGPxQsRqfg6zbTdKWWMpO4P2iRQPnC9Vxn19q+t8RMhx2PzmGIVlT5UuZvRNN6W369EfFYvhLPOJM9jDAwunFXd9FZu9/vPftT+O2kjfDoF0t48eVlkT/AFUTDs56/lXkfxF+MWueMrp/D+hXcghd83E4P+uPt6Dtxg8V53P4v1d4pNFfWHWyDMTCQBuJOTyB1JJq1aX2nWMIMF2sjEc+X1H5181h8uwuC/grfq936/5I/ozg7gPJ+EKTnSXPXkvem9flHsvxZ1Oi/wBm+H7YRQsDMw+eQnkmn6r4xjsrSWbzvmCHAz3rjLjxRbRLkKZT3VjWXqWu3N/H5EVqsatyQvf8639hzSvI+45mV7+/n1C8a8vHy8r5YmtrWfF0T+G49Gs3IZUUFl9utc2/mg4K9OlRSuxOCMGunlTshCSKRjdnkZpysYSS3XtmkxuGScCg/Mff3rQD6W/4JesG+Mev+/hls/8AgRDXhnh7w4/iv4jjQY3CG51Fk3MeBlzXun/BL6No/jHr4Yf8yy3/AKUQ14h4dZLfxrPdvceWVvJCr5xzuNfGZW1HjPMm/wCSh+Uz8k4V/wCTxcQ3/wCfWC/9JrH0V49/Yk8G+D9Lu/Ffiz4waLbzSxrJaWMErFmO0Dbyv1pvww139j3wJpkUXizwLqGvXoH75rkBYs+2xwcfWvAL7xFrVzfPBLqbu0YPzSyEjGaj0dNS1uWbM3zKu5EJ/wBYc4wv8+a+s5ppu21j9hSu7pH07bftEfBPQTqMXw++ElhZ3Ly+bZXblnaBSeEAZiMcdx3rkfiF+0x4x+I+j/8ACN+Jbe0ubEt8sKWyJg9uVUH0rjPBfwh8V6nCNa1a8t9Ot24ZrhucevGa6J5/hz4Mu4JbGRbyS2U75Cf3czY69jwea4pyt7t7o7oYedaCaVjg9c8FajbWya4LOW2txJmEgHk56DPbpUP7YgmP7Efw2WVGDt8SrHcO/Ml5XWfEf9oHXPFunpoMs3mWseRDEiqAn0qn+03pl5rv7Fngp7C1Ym38Z2NzKHIykaTzl2PbgZNc06jjmWCctvar/wBJkd0MLFZRj4xd5exltr9qBsfE0xR/sVeGhbElf7UUAt1zvuM/rXgcVy6q0iyheORjOa+gvHEEerfsYeGwjqFbVNytnj/WXFeIR+EzIjOt7GMfw881OQtKjWv/AM/an5j4jTeIoW/580//AEkxvMJbLHrV2y02K+uRHHclIwBveTtU0vhowxNILxGKdRzVMTu4ChwoAxkV7jdz521jpz4F05GEFvq8NxIxBQxN8rKTjI4r0n4R6L8MPAvjmGD4o3kr2BjjJjt1UrIxJ+8TyF6ZI5xXicdxPGQ63hz7GtCy1WOKcfa5JJQSMnOT+tZTg5dS4TjHoex/tOfEXwdbeLItC+HXg7SrOxRtwvNNnlcTRvwAd5PIHp61b/ZWZZPicsqKFU2cuAPpXlk2ntq/h+XWkBIFyqR56kBv6V6p+y07R/E2GGRQg+wyBQTgsdv69DXlZvZZXWX9yX5M+n4SlfiGg35/+ks+fv2wL/w/c/tUW+myETy2+tzG6t4z843SggfiK8m8KOBrk3hKSGaFxdymOW5+625yQvXrg/pX0T8Z/wBlf4i6/wDte3Xxg03VNAl0hdULz2N/LOJsBhkrtj254OMnFcxrP7F/xB1TWrnVY/EWiRCe4Z1CvNlQScD7npX6LkuOy2jkmGoSqrSnF+kmrtbdLny+K4D8SsLxLiM2weXymqlSS5dLOnpaV+b7SWnY5638Gw2OlXceq3EcZ+zmQTAn5OgzXteiyaxa6h8LLRNefym0OZb2LyUP2siyi2kkjK4ILfLjPfisfWf2dfFeoaRNp0Gs6crS2PkAu0mA2Rz932rop9Pj0Xxt8PPDlzfwtd6fp11HJHG/LBbVU3AHnblTg4rlxWKo14rkld2n93Iz9oyXJc8ymtP65QdOnKeDs3bWX1um2t+iSe3VnLfthPdxp4XksmYSLfTFSpIxxHXUeJp/+MifDlv5f/MJnbf/AMBl4qn+0f8ADvxr4+TQx4P05Lj7HcStdB7hI9obZj7xGeh6Vu634S129+M+jeMLe1VrCz06WK4lMqgq7CTA25yfvCuJVaP1KlG6uo1L/Pb7+h9Nh8rzSPHOb4h0Z+zqVcA4S5XyyUI2m4u1mo/aa26nOeF5XN38TnMe3a8oGe+Em5rE+OU0sfw+8GeWpy1iM7R/0yirp9F8P6/bS/ESSXR7hRfiT7BmI/6R8kw+T+9yR09a5b4+i+0/wD4Ohmgkikjsds0brgowiiBUjsQcitsM4zx0Ld1/6QfJeItGvS4Fx0pRaXsuqfXGp/lr6HmsbMGEskBLA5Bq1Fb3l1Jn7OyRjoPWqFtdypJ5stwGP8Ix0q/DrJlcQ/ayrE9T0r6f2Olmfxsqli/EL1V8mOFjk46D5auQW1xB83kOWzkn1qvBfxQRDF0HPc+pqSPVZrhBIbpAq87OcvWLpyb0iJVEtye3W7ncytavgH5alkTUJmEMNo+TwPYU2HxDPEuPlK46+lWLDVXnlN0JEyw+XOen+NROEo7qxSkm9DvPhZazxeEPEEU8DAG1wq+v7t68213wroXh/wCG91qWn6OLaRr0neGP3mbk8nvXp3w0vZJfCuvyyHOy2yP++Hrg/ihebvhX5YJJe6TJ/wCBCvNoyqfWqi7yjf7j9/y+39iZC3v9XxP/AKkHn3g7R9W8VT3Nna6lNbuLVys8KKWRscEZGK9lsdMu/C37OmiaTcX8t5LDcFXuJkAdyZJTkheO9ecfAddniC5uN/yLavn06V7hql7CPhvY3eF2/aBgY4PL1WPqNVYRtopL8mdqcvYZprp9Rq6f9xaWpg/AqO7Hii/kmtWjT7JgE9zuWuS8cWup6h4G1KO5tCDayF49yjITPX8zXoPwpvRdeJr9UACi3BAH1Wud1GWHVo7nSLyUpHPuWVse/wD+qs6cksbUf+H9T5ujmNTLeCchqLaVXFRetlaUqS19N9ex8/ndXsfgazvLz9k3xJBYQebMLmZ44/7xURNj9K8m1vS5NG1i401zuMMhBPrXrvgDWH0D9lHxPq8YAaCS5I3dM7Ix/Wu3G3lCny788fzP0vhyrDDvG1JbRw1dv5QbM342X0+pfBb4c6ldQiKW40SKSSNf4Ga3gJH4E15dENw+bmvSvivcPdfAX4YXUh+aXw5bux9za25rzcHCYx7ZqsArYe3nL/0pk8VSlUzZSlu6dJ/+UoEtpbfargQwwb3PQCvV/hta+HfEn7MHiTS/FFqtxpja00UqEkeYA1v16ch+Pwrxu810aA0Fy1u7me5S3XYR8pc4DH2Fe4eFoI5/2YdegmstwN+d0fQP88PNVi+aCpy/vxt9583gc1j9ex2XJb4HFTl/4LaS+er+R8reM/hiPC2szSW2m21notzuNxI+S0S5wCM54xWXe/ADxM3g3/hJvBHiNZblgWm0+aNfMxk424XpjHU1yf7Rnizx3N4zu/DUM9xHYaegaO3XkAEA5/WuMtfjX8WLNVsrfxbdqoGI1+X/AAr7uFOvUhGcWvNH8lOWHhUcZJ28iXxH4Q+I1sZ9V1nQLtEh/wBdPJ91P1rCl0jVbO0gubzT3hS4j3xFx99fUV2Xij/haniPQLbUfEfiCW9tYrlBd2wX/j3yR94gDPUd+9XP2hILax8Rafp+nxhIYtPUIgGAoy1bqu+dQla77eRzShB3cb2Rx/hSQprdnGwJf7bF/wChiv3a/wCCQN7Pa6L8Z3KY8z4Qbcjvi1u/8a/CLwy88fiGxIIIa+j/APQhX7m/8Ej11aKz+Lll5e5X+EJbj3tLquPMP41N+Z6+TKDU0/L8z5D8G3tiujESDDee+c/WiuQ0DWbqO3ni8kjZdyr+TUV51ejVdaWvU9jQ9S/bU1qSD/gqPPYR8ny7DC/XT0Nd20rDLXV0kHHALg/yrD/bk/YS/bc+KH7d198ffgn4RsbvQTFYC0nutatotxS0jilzG8qtwwbtzivRof2JfjicPceGIS2PmzqcHX/vqv5mrZ5w5/q7lKWMpc0cNTjKPPHmjKMVdSV7p67Pz7H8h1uIMmeRZZFYqneGHpxkueN4yildNX036+ZoaReWi/s1a/ctdCSNLw73HAHzQ+tfmF/wUG+MGl/EDxlD4d0HVLi5stNTaMt+6Sbo4XjrkDJ6V+ofj79nX4yv+zF4o+C3hfQ0j8TaswOm266hEolUvCWPmFtq/Kkg5I6e4r4w1X/gil+2D420iez1TwRZaXcwlPsE51+0kQ8/PuVJM9AMc19N4eZ3whlOIrZjmGOpQfM1CLnG7TUffSbu10uuzP6M4kx3DtHA8N4nFY2jTk8tp8qnUhG69pWfMnJrfZPvdXPlX9kTwLpPxC+K9jpOvQztZQ/vpWhHBKYIUkjHNfo2X0i0s7bTvCmmzRxRQeWzXLKz9AMArxiuW/Zt/wCCSv7S/wAC9KngvPDdteXd5KDczR6xbiPCk7dqmTIPPNe5+GP2O/2hdNmVb3wlAqbgSf7UgP8AJ69viPj3hPNcx9zH0nTjov3kbebtf+rH3PB3HXhvk+W2rZvhVVk7y/f0tOyvzdP1PP8Aw58D73xjMUt9IaR3bI2r1Jq5r/wO8P8AhRPL1HT2aZT8wyMD2r7z+AHw+8DfCrwqqeJ9GGpamwBbbEoCH+6CSfzrhf2i/A+peO7Kay+GvwS0+CWUnfe3tzAWHunzDaa82XFXB0I2jjaT8/aQ/wAz6f8A4in4aOVnnOF/8H0//kj4L17wpoEUhWCKSPB7EViT6JaDKx3Lge5r3jWP2Kv2j76VpI/B9uc/9Ra3H/s9ZMv7C37Trk7fBFtj/sMW3/xdcD4s4YvpjaX/AIMj/mEvFLwy6Zzhf/B9P/5I8Rk0pEbic/UmoXsFHBm/Gvapf2DP2omPy+BrX/wc23/xyoj+wJ+1IeT4ItT/ANxm2/8AjlL/AFs4Z/6DaX/gyP8AmZPxS8NOmc4X/wAH0/8A5I8Ya0+XHm1F5Gw8Pk5r2s/sB/tRscnwNa/+Dq2/+OUQ/sAftQhvn8E2wH/YZtv/AIuj/Wzhj/oNpf8AgyP+Yv8AiKPhtf8A5HOF/wDB9P8A+SOu/wCCYSyj4wa80r5x4aYD/wACIa+f/EGlX0Gr3DTW0iLLcyGMshAYbz09a+x/2I/2aPip8E/Heq+IPH2hQ2kF1pBt4WjvopSz+bG2MIxxwp5r52+MN5fW/iQQ3aSpZwPINMgnmDtHHvORgfdycnB9a+fyLMcJjuLswq4WaqRcKKvFprRTvqj5bw9zPJ+IPFXiHFZfiYVqTpYJKdOSnFtRrJpOLa0666GB4a8D6TLp0moeJ9altnK5ihjPzP7dDV82nhfTJI73w/a3Q8mP79y6k59ePasRPEB3mWaPeAPuk8fjVe78Q3l1D9mDbY/7i8Cvt1Gc93ofvMXh6NuVXNy58Z6jeiO2W+ZUjGAoOPl9BWRe6o8spkErYJ43HkVnK005EUasxP8ACoya1dP8I3lxF9q1O5S0h/vSHLH8OtDjCC1JderUenUpLLNO4jhiZix4CjJNeo/tAWV1ffsBafp1rZmaaWd0SDOC7E3I28965/RfiL4X8AWLQeFvCdld3jKQ+o6pCJSh9Y+hQ/n2r1ix8A6n8df2YNE0HQtYsorkai9xcPNISqkSTEqdgYhv3gOD2NeRnGIp4SphMRN2jGrFvysnue1kuGqY6ljMNBXlOjJJLrdx2PLfEfxI8PQ/8E7fAHiC9kGlxXerRWEUch+7Mr3UZUkcDmNjnpXji+N9MTO3xXaD/t8T/Gvfv2hP2A/HHxO/Yl0D9lrwR4s0i1v9H8Q/2hJfapJKYHQyXUjKCkZbObgYyuOD+Pyo3/BBz9pZwQfi94G/Ca8/+R69Ph/G8I1KFeeIxypOVao0mm/dcrxfzR4nE2B44p4nD08LlzrRjQpJyUkrTUbSXyZ2dr4og1Mm3s9dinIGWSKdWP14NSJ5jHCmuX8L/wDBEf8Aa98FXr6h4U+Pfg+wmkj2SS2t1eqzLnOCfs/Su+8J/wDBND9vjwrZSWTfHbwFqJeTeJtSe+ldeMYB8kcV6OJx3CtN3oZjTkvNST/Jo8vCZfxlUssRlVWL8nGS/wDSk/wM6KCYthlyAcnDDOKt3RDorQWixop4csNx+vNbI/4J7ft8ZO74q/DA88fub7/41W14P/YE/a8s7md/HHjj4f30bIPs62E95CVOeSxNu2RXn1M0yOEHJYym/JN3/FI9Klk3ENSai8DVjfq1G34SYzRJDb/Dj7ashWNbljMWcBAQRgnPvXGfsT/Fnxt49/bd0vT9b1wPYxHUVgsrcnyQI7aZVYZ6nHU5r07xl+wh+0d4m8AXXgbTfHHhjTlunUySR6ldMCufmXH2ccEcVX/Y9/4JxfFv9nT44aN8SfE/jTw3d6bpcF2jW2nSXBlJlgeMYDxKvVgTz0qZZvw1/YWN58RB1Z05xhHVu7i7WdravQj+weL/APWbLvZ4Waowq05TldJWUle6veySbZ8z/tT+Ko9G/ab8dx2skwlHim8yI5Dj/WtXBy+OtdlUeXq11GuckLO2f511X7U+paZeftH+O7zRzb3Mc/ii8eO8hlWRHBlY5BU4Irg1jjzlgASQSAK/YMqpx/snDXX2If8ApKPwfPK9Z55iuWbt7SfX+8zVs/HXj6+V7S58SX8doqbYY/tB4Oc5/nUtg2r2Wpwa3YeK72G8t5Q8V1FcMsiMOhDDkH6VQguIAo27mC8gMelP/tRI4zFbwZLfe4rr9nzLZHGsXipSUp1JNxtZ3d1ba2ulunY958N/tr/FjSdFt9KvtL0rUpoIwhvLmOQSS47vtcAn3AGa1Yf23viLInzeEtF355VVl4/8iV8722ptHFtQsMnnmrS6uVUqkjZzl2z1NeZ/YWXybbpI/QqPi94jUacaccyqWSSV+VvTu2m36vU+g7n9sn4j39s9pa6NpNrK4+WeOJ2Ke4DMRn6g1y3i74reM/HM1vN4p1r7SIFIijWNURc9TtUDk+pry601+ZJNokj6ZJKHJq2niaaXEcJDMfboKujlGEoS5oQSZ5mc+IXF/EFB0Mwx9SpTdrxcrRdndXirRdnrdp/gdqdfAkUKOg5JPAqzHqtuh3ABmPU1wy66I2wYNzHqc9aZc+KGhAiVFBY4AB6V1fV7u58n9Yjbc7y41ppI/LgVWLdSvBWpYNYmi2rHGQFOASRxXm0XiyS3TZ9rKnPzYBplx47uI1IhuHLdsgj+fWh4KbZLxMd2epDWpJXWESgd3DHPHpWrb6/BDGrSTRK2ODnGK8Pfxnf2rBhcNuY5bb1/OsrW/HupuGCTye2T0p/2e5vUX12Meh9ofAzV11vwx4ps9P8A38kVsqqsfJZmjlwuPXiue8R+EfGOt+AZdKbwnqZukuAyRmwkyRnscYNfL3wt+P8A8VPhbcXN34K8Qvai9A+0wywLLG+Oh2uCARk8jntXd237bf7QbgNN4ygOfTSbcf8AslePVyTMaeJnKi4uMmnq2nordEz9v4f8QeBIZHl9DM/rEa2GhVg/ZwpyhJVKjqXvKpF3Wi27np3w48KePPCy3cepfD/WUE8RxMmnSMV4PYAk/hXpPiqS40r4KaaL+OaCQXQDJcRmNxkyEAqwBHHY14b4c/bH+Md9btcXWv27qBg5sYQc/gtVfG/7S/jDxdYpp3iDVVlhjcOsUaJGC2OCdoGfx6VzSyrMatePtFFJO7s2/wBDvzPxA8Po5bjXgHiXWrUJUEpwpqC5pRlzNxm3py9me5/ATVEvvFN6izBiLHJx/vqK5y08UaLa6651PVoINrsyiVsFuowPU1zX7F/xCg1/4ralpMk0MW7RWMKNKoaVxLGSFGcthcnjoBT/ABL+xp8X/EmsW+r3niPwzK9ndGa188znaef+mfoa5qtLCUMwq08RNR0jb7mVlWRZ7xDwFkdbLMLLERo1sQ5qLXu3lTte7XZtLrbzOO1+5g1bxdPdJJvilueG9R613/jayvbf9i7xzY+H43kma6ZYFQcnL24I/LNN1D9kj4tfZnbRdb8Ow3OB5Us1zOyqcjqohGfzr0Dwr8I/iVY/BXVPAfiXX9Jm1m+vfNiurQSCBUzFwcruz8jdu4rKvjcIvZSjNPlnF/JNH6rgeG+JFRx9CWEqJ1cNXjF2STlKDUY6u929tLeZ578VbC6tvgB8MYJoSrW/h22SUEfdYWsAx+YrzSPMhEYHLHAHrXvv7RGiywfDXSNEuJo5LmytlWTY3UqqKWGecEg814RanaUnWMv5Thyq9SBya3y6ftMNdd3+LZw8X03hc25amnLTpJ+VqUE/usUPH9vd+FNJt9U1CBdguomUPzgZ649q9W8HeObOf9jnxL4oivopI4NSKmQKdq/PbjGOv8VePfELVJ/F8oe+U7Ix+4j7Rj/OM12XhjSJ4f8Agnv44sbdNkj6wzLhf+mlpz+leli6FsNRjPd1Ifi0fkHDGc0854pzTEUFaCwGKir9bU3r5XvsfO3ivx2x+Kf9qQWlpcfb9PeGTchKEZUfN+VZo+F1veQr9pWwMpkLJJaIykE5OCTXLQapLYa8DfsrCKIxsGHByQa6ax8VwxorQzxundM/pX1dSlVhFKnptqfz77SM5Pn1/Q57xF4i8deErS78NrqlxFZ3DgTW+4FXwQRnHXoKj+JnxSHxMbTLq+05Irq1s1innH/LQgnk/nXSatqvhvXLQiZEJC/dbHyivMtat7e31SVbT/V+ZkDGMCuqjGMrOUdV1MpvlVou6Z0PgXwv4m8RajDN4X8Pz6i9lMs8kdtGWbaDnp+Ffpn/AME+v+CvHwa/Znt/G2kfE/4a6pZ6j4h8Dvo0bXJUIrrBMiALjcMmTnNfnB8F/jD4++DniCHxH8PvE95ptyWHnPbTFTKoPKnHUHn869M8e/tT+Gfi1qsl38SvhRpk7vEd2pWMKx30kpBwWlJORnGRj1qK9NVaibW2z6/cdODrexTd+2noe0eDNe8F6/pcuuyeNrC1+2Xkswt3Ygxhmzj9aK+P76y0ee6eaz8yOJmJSNjkqOwzRUPD3d+Z/cd39rVuyPftM/b1/a6t7iF5v2lvG0qRyKXR/Ec53qCOOW5zXr+r/wDBWH40ahpz6Z4Y1zXLbUH2iC5udXaVF55JXjPGe9fEkt1eW87W8ylHU4wT0rY8L3M1nO+r3kZMECnzGJ4AIxye3WvmsdwNwpjJwnVwdN8u1opLpukknt1PisRwpw1jKsZVsJD3drRSXzStf5n6A6b+05+0Br//AATT+Jvxv1D4kayPFWm+I3h0rW4LyRZoIhNZLiF85VP3kgwDj5mFeZ/stftiftS+L/hNFqviT4+eLLu7OoTo01zrUzPtBGBkt2rofgreeFNW/wCCRHjrZqc8dkfEDR3kjZkMBNzZZC/3gAVP1Jry/wDZ2tPD1l8PZbbwxfvdWcWr3KRXEkJjaQAj5ivbPpX55HJcn+o5ivq1P3MU4x9yPux5I+6tNF5LQ/f8TkGR4rF5LTrYWnOMcBFJShFpJVJ2SunZK573b/tN/tDElm+M3iQ47HVpP8ani/ap+PqNhvi74gP11ST/ABrz2J9sZ2gfdxRFbSOu4KQO7Yrxf7Fym/8Au9P/AMAj/ker/qlwov8AmX0P/BVP/wCRPTE/a0+Owj2f8LU108/eOoP/AI1Vm/ap+P7sSnxf8QD6anJ/jXnBZgcbulHmkn7tP+xsp/6B6f8A4BH/ACH/AKpcK/8AQvof+Cqf/wAiehN+1L+0GTtHxh8RD3/tST/Goz+0/wDtDMf+Sz+Ix9NVk/xrlvDmjf2xMYGeNOMlncDH09a2td8AS6Q0Ktplxh7cOZSp2k5PzA9x71P9kZPs8PT/APAI/wCQ/wDU/hVq/wDZ9D/wVT/+RL//AA05+0MeF+M/iXP/AGFpf8aF/aZ/aIY4Pxp8Sde2rS/41r+HvCPgLS9D0m68VeCL+f7TKzTX8V8yxyIVG1RgYDKeSM9K14vCXwxGvXMs9rNFpyW5+ykRkszKCefrxzUzynJ4/wDMPD/wCP8AkaQ4L4VlvgKH/gqn/wDImDpv7Qn7RF5OkQ+M/iMF2AG/WJAOfqa1pf2g/jpo16LXUfjHr0pXBcR6y7A59CGrC8Y6Do175eseFzHFCkY82FpRkYHUVxn2lYpzczLvRH+761msoymorrDw/wDAI/5HQ+EOEaG+X0H/ANwqf/yJ7t8Vfi78Xr/w3Z65p/xa1ZLPVLMrLYLeyRsAo2MCC2Tu5PvmvEtQv728uDLfXUkrgYzI2TUeveNNc1y7W4vpjhECxxjhVUDHA7dKsabeaJNbC41CN2m3/KgbAx65rpwuAw+Bi/YwjFPflSX5bno4TL8ny+8cBQhRUt+SEYp22uopXIrayur6RY7a3di3opx+fatJ/DEenJ5+tXqKO8UbbmP5VHceLLjyja6fCtugGAUHJH1rMku55m3yyMxJ6sc5rqSmzscqcVpqa51+z09Quh2SREdZZBl/zrPutVvb+VpLq6eRs8l2JqssbyngE47AZq3b6aciS6cKvXHc0csVqHNUnoU7mQrCTgnn1rU0pZdD8QWpa4Z4zGkhihkOCcA8gVS1a+0tLX7HB9/fnp/WpPCzSSeI4popIwEj3SeawA2jGRk07Nx2M5NxmrM3P+ChmoXdt/wTo8N3kF1NE7+L4fmilKtgm9OMjnFfnVBrWqyuFfXdRPPOLt/8a/RX9vu2k1b/AIJy+G12kg+L42OwZwu69/8ArV+f9jpdraAKsefXIz+tfb+GkY/2DWuv+X9X80fnXi1Kf+sVC0mv9no/+ksLUajIFdtZv8H/AKfHz/OrdsmoW8gZ9TvmBHT7U/8AjT82docZPHIJOaaNWnlZY7dN2PlHy1+guFO3wr7j8wjOpF6yf3k/9qalBIFi1q9XA+bF25J/WrMOt+IblTGniDUlCNgk3T8fhmqtndtpt2sssSMw42umQKfNqk53zoiL5h5Cj+VZSpQeqivuNPa1Iu/M/vNe38S3mnhVTXb2WUDLbrt/8eKWfxdr9yMnXL0qeNpuX6eh55rEXY7b5VADeh5psccYXcGkBLHgOTxWfsaX8qNI1K0tXJ29TUFyoTcAQW6nHFR/2iSxU3B64A2kVRDIrgJM+egDvU0ZjYAGRSe5LUKLexPPbRFwXSythZT14G/FW7a5Cr99s5wPmrKgMR4+UkH161IJMsDIjKoPZetHJcfMzUe63yqFcqM/McZBNTwyspGJePQRkVlrfgZUb8L0+TrT0v3bCxlt3oRgUkkPmW5rQ3b3MptrfazAEkkYqzF5tvCNp5Y8sHGfpWPBemPKhAG7sT1p8eoSKQJFGBycN1o5eoJq92apv/LXdJEW7cNzmmWxgYl5GdmY8HBGPas+G8S6uBIQyLnCA1KL5VYrvb8uKOVD5veNKJYHIZULYOPm6/nVW+nSW48tUOI+OTwP8aaupFPkh5bOVB7VE0yKcOo5PJzmkrtg2tivObmWUiLklvzqO50q5mdYmVQWOTg1bjaNsAPjux9Kt2awmVrhtzA/KCB0P1ptySFyp7lFtLjtYyQu44GOKd/Z8ywb4wM49K0ZJ7USrGqNlRk/LReatZIba0WAh5blELZ/hLAGo5nZ3QnBX0Oy8MeDrU6NERao7tGHLMmOSM96iuPh7DqBkRrPax4XnArrYNdtNPsIbeNYGVEA4YEgAUyTxRpsowHjyTj74H6153tK3Nfud0acLWZ4ZfeFdf0/UmaC5MTpIdrKSMc9jmsrULbxqZdkmv3WD98i6Yf1r07X2jvXlaOFdwY9HzXH6pFtMjYIbHcV6FGcpJNnJJ1KcrRk0vJmBbp4nghaR9cuTtH/AD9N/jzX1P8AAyy8WeJ/2FfEthocN5fanNq7C2itw0kzYa2JC45PAJr5fkvYI1YMxJxz8vSuh+F/7T/xg+D2jXOgeAPFzW9m83mG3uLaOdVfGCyiRTtzxnHXAzXLmeDr42hGNG3NGUZa6LR+SZ9x4fcTZZw7nFepmrqOjWoVaLdOzlH2keXmSlKK09T3H4VeH/jTbeHbrw74i+GXiBWQF0nutOl/ebuNoyO2P1pk/gz4neGwHi+E/iC8knVo1S302QhQRgsSFOMZz715ZJ+3/wDtUq3y+O7TB6f8Sa1z/wCi6lH7f/7UPlhv+E2tSe//ABJrb/4ivJllmcOq58tPXpzS/wAj9Jw3G3hfhspWBjXxrcVyqTpUL29PaW0WmvzuehJ8Hfijf2wdvhxrUZPDCSzcE/gRXosPg3X/AA1+x/4n0LW9IntLiS98xYbqEqxTfb84Pb5T+VeJaD+3n+0Fcyqb/wAY2zKcZA0iAfySuyk/aI+I/wATdGbQdc8Rl7WYgypBapHvxztJUAke3tWeIwmb1ZQVRQUVJS0bezv1R5WT554YcPUMXWy6pi6lWrQq0YqpTpKN6keW7cajenozxPWvg9HrIM8NpA5bnKwc1m237N/iS+LW+mRRRyMflfy8D8ea9iXRHsrkTiaZYpP9ZjICH1x6Vvabo4BUx38yjGQcnmvb+uYiCVmfjP1OlJ2aPlnxj8F/Gng6YwatZmNwuVlRPkP4jg1yEPgjW9c1mHSY5UE0z7YzKwVc+5JwK+75PCuneKbJtK12582Nl2gSW+4j3BPSvJfit+zNrPhcNrXh6E3VqxypWHDJ+FdWHzDmlyy3Oarlk4Lmjqj5y8R+CPE/gHUm0rxPpMkDRsQLgKWif/dccMPoax5bmZpTLGxx0BzXult8QtVs9KbwV4902HUtML4ZbmENNCOM7HIJX6CvM/ibofga210j4cXc72jIC0d0hDK3cc9frXfSquW61/A8+dPkVzlxqN8g2+cRj3oqGYSRPseJgfQrRXTZmdmd140i0SPxTdSaFfy3MEjfJLNDsLD125OK5vxl4l1S00lfC8TbLZ381yv3mb0J7jjpXs3xz8C/C/4b+Hzo3hb4gQa5qxuSLs2io1ukWOCsgOSc9sdK8L8XxJPbLcrMSUHpXJhK0MRBSSdvNHp5rh/q1dpbPX08j7V/Z+ldf+CH/wAUpEYhl8USYPcfvtNrhP2KNasL74R/2YmopJeQahNJcQ78ugYjBI7A4Ndz+z84b/gh78VGH/Q0yf8Ao7Ta+av2TvjB4P8AhTqmow+LHuEGqeRHDJFECqEMcliSMAZHNfm+DwdTG4TN4003JYqTSXX3Ka/Jn6tjcfSy/GZHOq0oywUU29l79R/mkj7AXJUnHOKet9cxwGBGAVx83Gaj8C6/4c8X2i654b1a1vbTcy+dDJuUkHBGfat9YY3t5C6JkN8nHavlJ80J8slZn2EJwqRUoO6ezWxzwVjShVDDJ/CuiNjA8vltajaQMY7n0rC1CJIb2SNBwG4FCdyi5pmvS6SrrbxRtv8A4nUZH0q5d+OdYu40i86UIkewK87MMegz0HtWEFORzS9Dw3HvQ0h80rWO1i+KOsReFLfw7PZJJFA5a3dpj8hIGeMegrHm8WatdFkNyyKxJI3k4z2HtWKrDABY4+tODrGeFP41LSbuX7SRoyaiCM/aJH4xhTgfpWdJM1zcbsYUHpRK+EyOOKjtw0kyqp4PWhJLUUpyluWL+2kjgjuXxhuw7U21yFxnv0rY1/SH0/RoPOdWHViD681S0yK1fMtwBsXsTilzXjcOX3rDYIZZziJST7VbSyihQtdyDpwB3/GmXeuwIQlkg44yBjAryr4z/tG+GfAWn3dpp+qRXusqxhSxjk/1L4zmT+6MfrXRhcJicbWVKjFtv+texzYzG4LLaLrYiSSXf8l3Z6pca7HBEttaRrhOhxyfxrl7745fD3Sr6XT9T8ZaXHcROUmhlvVBRh1BB6GvjjxF8R/H3jfUl1XX/FV606xiMfZpDEuByOEIHfrWSdN+1Sm4mDySs+XeQ5LfUnqa+2w/BCSviKuv91fq/wDJH53i/EZuVsPR0vvJ7r0W33s+39F8YeGvG08svhfWbS9MeDL9lmDhM9M49a2bGOVboK52nHOD2r4n8Ea+fC3iSyvY7u5hghvYpLmO2cqXVWBIIBGeM8GvtXStUtdVEGrWoYRXNuksYcYOGUEZ9+a8HPcleT1I8suaMvLsfR8NcRf27TnzQUZQtdJ3ve+p0f7V/jzULn/gl54X8Q2VtFC134oa2dJFDgKJr9CQSOD8gOe1fAUWs3lw7Qrg5/AfnX21+02Gk/4JJ+CvMfb/AMVvLuPt9q1KvhaXyIY8WkrO+OO3Ne74fQhTy3Ewjp/tFZL5SPm/E+rOpmuDnJ6vC4dv1cC22oS7DJMRhDyuahTxBPcOht4PL55cNj9KrpaucvNldw+Zc5qxBDGiHCjB4r71pdT8zvJvQtfanxkSu59zmpor91XJJY9+O9UY48DCT5A/WnhCu0icg54AGaSRqm7mgl5GyHzFc55PJqRbuGQL5LEc4HNZqPJyGO4A9DxT4C5fKIw9VqHBDUpGv5zMu7AKjpxzSvdTGPYI1JA/ugVmrN5KkHfz1zVy1QlDKznGPXNPlSRommXba5RcZhJ45yuMGrX2tX5GTnrxWcshblWOM06S6l+6oGehxWfJpca0VjQkumbCoRn+VIJZFcDKkg561Th2oP3qt9alUI2JFYlc8E1LSAu/aZJBiWMcHIIpJbw3Fxneq4XBK9PaqJuwCVjIJJweacHnjBCwrjPBz1xQ4gaYvSU8vzlI4/hAxT1vYIiA1wuT6ms2OWZmDFF5HNPlJkKx7FKnqV5NDijS9y4LpvO81jwTwemKekzszbFHPOc5z/hVZUUrjBbtj0pzwWyKpW4OW6gnGD6CoSsTqnqXDPOsTIFTpgn2q7abIbRIRckjHOB3rF8uVriNLZcgN8ys3UYq4Zb+NCTbREjtvPSnJI0TRaSEPNLOJnILbc7jVNRbv4ps7SW4LIpLdckYwagn1O6hVnhOxduSnWsrwhqMt74rmmmYlY0PJHTINNRXI2ZN2kkerPrVjJHwBjocHFRm+smtzsOAeN3/ANeudeSB8KJSB35pBfyPEVGVUA7sjkj1ArldONro29pJIvy3Fk4eNi+0nJKuc5rndYmAJEO78WJyKtQarG+WKcdj61R1KdSwcKRngnHAraCSWpEpN2MK8gaUkhmOTyRxWe1tJFdkMBiReMnqa3J3i3cXK4B5GBVTVHiZluQ65jOdvrniuiEmtTOSSZjyx4fjBOcHBqRIpWACqOB61oz2Ycb1tlwedyk8GmrA6YCwYOD0NVzxElZlXTt1pOEO7lsrzn616L4A8ZXOl3CJ5ZO0gjK8VwbBWh+aAhlPHHerdhq21RLHcYOcHPGDWVRc61LhJ03ofSHh7x7HfWnlXdipYjp5YORWjovjX7DdrpU+nxtHnMDNwSfTp9a8M8N+OXt9sb3+McDmuy0jxZZX8Oya+G4HOR1Brz54a3Q9GniFJLU9s07V5rt1e20hMNzndjH6V1mj6FrmsxeQ1iWRxyhGQK8q8DeP1k22rRZkiHzFecj1r1Twr49nhiV4beRcDkj1rzqkZq9unU9GlOOyZx3xS/YxXx9HLqmm2b2l4UHlukWEc56EdB9a+TfjT8A/GXwq1I2Pi/w9PavuPlzFDtcdiDjmv0VsfiVrUkflW4kYlfmzGODXN/EvRJvixpDeHPiK9s9pLxbzPEodCenOM+neujCY+tRdp6o58TgaOITcdJH5oK9/ajyWt4Xx0ZowTj64or6c8X/sA+JDrsp8K6rHcWXHlySNtI9Rx6UV66zDCfzHi/2fiV9lnytq+qyrCWkclm6knrWbfSCW0eDbkuOnp3qbUCzxZVcnPBrPdneTBYg559676aUY6GOMqSq1Ls+3P2flA/4Id/FQEY/4qmT/ANHabXwYJFjIzn3r7/8AgTFG3/BEz4pIUGD4nkyP+2unV8AxwvJNsjGQDz9K+O4N/wB8zX/sKn/6RTPt+PP9xyX/ALA4f+nKh7t+y38e9F+HE0+i6urfYb0IJZ2bmBucMBnG3nk9eK+nbXWLO8tku7XUo3ilQPE4k4ZSMg/lX5+w2q2jsqynPl52jryKpjV9ZVvl1a4Cg4AE7cD867M34XoZpifbwnySe+l0/wAUefkXGOIyfC/V6lPnivh1s13Wzuj9F1uZ8AiZvY5ppdnyxYknua+Nvhj+1h8SfB/iC3n8WazcatpSRiKSzcLlU4+ZcY+YAdzivp/4Z/GHwZ8UfDo8QaJfpEQ224tbiQCSBv7rds454z1r4bNMgx+Ve9Nc0f5lt6PqfpGT8TZbnPu03yz/AJZb+q6M6s8rnPSjDdcVDb39pckra3cchHJEcgJx+FShiema8Rprc+gTT2JHSIovlFs4+bI4zSJGQeSaaGIPWl8xh0pWQxZCQNuaWA4cHpzUbMzck06JxvGPWmB1er2qQ+ERiYyN5q7g3bIPFchq+s6d4e0ifWdavktrS3TfNNIcBQK0/EnirSNJ0hr/AFnWoreBI/NuGkbAUKMZx1r4/wD2g/jvqHxJ1T+z7O5e20W2ciG3B/17D+Nv1x2xXqZJktfNq9lpBPV/ovM8HiDiDDZJhuZ61H8Mf1fZL/hif4xftLeKvHmqXOkeEruSy0YqYTHHgPOuc7mPVT9D0FeerbyXMhub1zIxOWZ2JJ+pPNMs5LaS3M1ovyj71PecRKpc5JPK1+tYXBYbAUlToxSS+9+vc/EMdmGKzGu6uJm5N/cvJLoixHEgY7IwFB4FNe7tkDbSc+pqujz3LlYoyq5OSafFYxRkzXDtyOFNdRyCpJcXLb1wi/3q+09L1lvDnwqh8SW0aTNYeH45lVm4YrCDjj6V8TPdyyHbbRMVyeo54rstH+N/jfS/hi/w0tVhit5JGL3asxmZGJynPG3BxXz2fZTVzSNFQt7stU+z3PqOGc7o5NKu6l/ejo13W35/gfXX7Q19Jrf/AAR3+H2piPY114uMpRTwN1xqJx+tfDsMOBgBgccsa+3vjUF/4czfDb5eP+EkXj/ttqFfE4iLr5MMrBmOBjFePwMlHB4xL/oJr/8ApZ7niPeWPwEn/wBAmG/9IFjRiMg596AXK8PjntUbiaMbRK2MY4x0pPnc53HA+7719rqfn5I0zK23AGO5p6sxAIc565FMUqDgYB7Z9adGUzuf1OTTasNOzJ1MoUFjzng0rOdwKykmod8jxfKe560+F3CjMa9gSaQbstQhX5YMRiraSIqbEUgAdqqxSlR8qgY5A9aDdFMOY+c9KDSNoltbqJlKCPDdASenvT4mKDIIzng561UjCAeZu+Y9TUoXewbfgfypWVrDTZdW6YA7kHrzQ986oMBck9qpZPeXGOpNLDK8UuPszyAZw3ak4plFuOSILveTJPNPSeFzyQB0HJqBp5Iype0YZXIAx0NSJM3QxHk+gqJJLRAWUNuv3pPcc0tsZUQsrryeOetQPcPdH7OmRjBZ+OMdqlMTYBW4PTBHFJrlYLUtLJNwuQcjJp3mzooXyweMiq8ivjY0xyCOBjmmXitDA0v21skYUDGRU8tynZq5as7iMbp5ZeXPy88U+/vgLceWT8x4x2FQQXaJbiPJOOBkc1BPcLNMIzIAqjJ9aagCbUbEOq6o9talUY5bIyRS/D7yvImupG+Z3xuHXg1heJruPzDGjkhQRitrwjP5OhpCIyMnduHWtZr3LIwjK9TRnVLdQKvzZyQQM96jub6GOEKrEeoAqhHKXUMVXHP3jSNMwBYRjO049PpXOklubJ2CyvoTATvO9mJyfrTbmSOVgVJPPGelRW8c0kTP8o3HjHb2pWgk2ESgfLzkdabSTsSthJxJvIMae1Vp5HELo6IT+oqwwadlRZyxPQcflVV4RHIVZmDHqOOtNaMbbtoFnIktmNz8kbSD2NNaW2ifDXAOFxxVOKV4buS0ZX/vqBjv/wDqqd5cYkMLnPGGxiqcFcV2xkotw25bjgjrmqpkFtP5cbqVfoAe9WZ7pcrE1vVW9CPETHGFYcg1pGNjN9y9a3UkbBtvT1rp/D/isQYUxjrySOlcRY3hkhEpYbgcEe9T2l5IkrN5wxnGKTgmVCoes2/jac2vn6VE4mQcMK29C+L+tSopn1N0YHa68Ag+leT6Vq80ZDxOuFGTyeafqOs3sc5vbeFMEfMAT+dc7w8JO1jqjWcLNM9/0r4w6lG37vWpE74yM4rcT40GaHyr3XmYEchtvHvXy3/wkVzNHk3JxjHBqvJqTyuFe7cg9QWNZPAxbNljqltD6jH7Ren6X/ocetxSKp4ZpDmivl0XUQ42E+5Y0UfUaXYX9oz7HD6ja/Z5AkbArnnHSs97ZTk8AeorJsvEGoiQLPOWB4wTV6W+lSLy4m5P8q9eMZJWZ4jbZ+h37G3wm8b/ABn/AOCRnj34XfDjSVvdZ1nxTMmn28twkKylXsHb55CFHyo3JPbHWvnqL/gj7+3wkhZvhPYkc4A8T2P/AMdrxb4cftAfHL4NW93a/Cj4seIPDsN84e8h0fVZYEmcDAZlRgCQOM9cV0MX7d37Zom+b9p3xuR6f8JDP/8AFV8DSyLi/K8fiqmXVqHs61R1LVIzck2kre7JK2n9bH6bV4i4GzfLcFSzWhiPa4ekqV6c6ai1Fyd/ei3d836eb9PH/BIf9vkMWPwpsDmMr/yM1j6f9daqr/wR4/b5xz8J7D/wp7H/AOO1wA/bq/bMMvP7TfjfBGcf8JDPx/49Uqftz/tkvx/w0741wen/ABUE/wD8VXV7HxFX/L7C/wDgFX/5M5Pb+Ff/AD4xn/gyj/8AIHdH/gjx+30eD8J9Px/2M9j/APHqdF/wR+/4KAQqVi+F9moPUL4psRn/AMjVwX/Dc/7ZnKj9pnxtnt/xUE/X/vqnj9uH9sgsM/tOeNxkf9DFP/8AFUey8RX/AMvsL/4BV/8AkwWI8K1/y4xn/gyj/wDIHqPhb/glz/wUs8E3Mt94U8GRWM80eySSHxVY5Zc5xzKe9bn/AAwH/wAFZ+D9jf8A8KrT/wD45Xif/Db/AO2QDz+0942OOoHiKf8A+Kp8f7bn7ZDrk/tNeNx/3MU//wAVXNUy/jqrLmm8G33dOo//AG466WbeHFCHJTjjorsqtJL8IHtbfsCf8FZyOLJ//Cq0/wD+OU+z/YM/4KzWt5FcyaR5yxyKzRS+KrDa4BztP73oeleKxftt/tjlSG/ab8bZ9/EM/wD8VUsH7bH7YW7D/tN+NWz6eIJ+P/Hqh5Txq1/zB/8Agqp/8kaLPPD5O/8At/8A4Op//In0yP2YP+CoZGD8CvDI/wC5itP/AI/Ueofspf8ABUXUtPmsYvg94es2liKLcQ+IrTfGSPvL+/PIr5ui/bg/a9Gc/tLeNDj/AKmCf/4qlm/bf/a+hI3ftKeM+mT/AMVDN3/4FXF/q3xbFppYT/wCr/8AJnc+LeCZJpvHf+DKP/ys9Z13/gmb/wAFGfFjRTeLfCcWoyQoUjM/iey4U8kcSjisyX/gkr+3HJgn4WWBx6+I7L/47Xmi/ty/tgZyn7SnjRgei/2/Pk/+PVPb/tqftiStul/aY8ZqP7v/AAkE/wD8VXpwwviDSiowqYVJdFTqJf8ApR49TGeGFeblUpYyTfV1KTf/AKQeg/8ADpX9ugEhfhZYgH/qZLLj/wAi1JB/wSV/bijy0/wwspG/h/4qSy4/8i1wqftq/tb8D/hpXxkPUHX5z/7NTP8Ahtn9rtmx/wANI+M1Hvr83/xVP2PiI/8Al9hf/AKv/wAmQ63hWt6GM/8ABlH/AOQPRD/wSj/bjClU+FdiMn/oY7L/AOO03/h01+3Cf9Z8MbJuen/CR2WPw/e15637bn7W+MD9pHxnkHp/b0//AMVSp+2r+10wLn9pPxnjuBr8/H/j1L2PiH/z+wv/AIBV/wDkx+28LH/y4xn/AIMo/wDyB6Ev/BJ79uMOR/wrCyC44/4qOy/+O07/AIdO/tuA5HwtsSe5PiOy/wDjtefv+2v+1suCP2kPGeMf9B+b/wCKpH/bW/a54x+0l4x9/wDifzf/ABVP2PiJ/wA/sL/4BV/+TLVbwsX/AC4xn/gyj/8AIH1h+2F8LPGnwc/4JReCPhp4/wBJW01fSPFEK39vFOkqxFpL51+dCVIw69D3xXwCUi4cNyD2rpviX8dPjN8Yra3s/ib8T9d8QQ2Tl7WHV9TknSJyMFlViQCRxnrXLxxbVyY+o5PpXo8L5Ni8mwFSnipxlUqVJ1G4pqKc3eyvd29f+CeTxjn2A4gzKlUwdOUKVKlTpRU2nJqmrJuySu/L102Tkjd8uV4PIBNSeYygAIeBzg0B8DBjJwOBSB414C49DnpX0a2PlB6ygoCUIPYVJE5ZirLjnmoUxJtdQQDyMVKnnD5ixI3HJocbsB6owOQTjsKsQxAIUEnJ9aijJIJVjx0JpWZY4y5P0Pv9KTVhqyJJPkQBSCc9hUkIjVstyT1yOlRwOuzLP8+d2cdKkWRXPLjnr70il3BpIlyOD9KcrwKAASMUxhEcbvTj3pj4dvLiRcn72e1A+pYECkiSCRSuc/WpFnmXKHbn9AKrqksaiNWUDHAA7U4bh8vl5JxkjvQBZV5UGFXOO4NO+2TouHtyDnjkVGzyAbHj4z3YUxA1w5MgxtyACaLXKT0LVr5axEuMszc1YDxMQCABjqD0qp5UII9AOakRbZDnpgZ+tK6GrNFwJAGJTGehINVZChvBgM4T5gM8ZpVjXkgqP6VXgmKbpAhIY5XnvSTdgur2Lwvg4VGgKdiw/nVO5mRZJZS24ZOHHRhRLdSpCx243dqztYmmsEEDSKXK8kc0oKyJm1YzLzN3PsBHzyDAPua6W10u8sYkjiuRhVGUrlYWaTUIkz1YH5RiurWcfddyffNVO+iMoO2pKwmA2SLkYo+0SPH5fpxxURvAgIyc9sU7+0YBB90q2ck/40muxrfSxZsZ3QeW6k5OcVYmmcqfkGCKzbW9uVPmREEE96c897IxMhByOx6UuW+41LQm3WvClgD79c1DN9nQgIRn+8ahhaAn5oxmNsnPWpZJ4HBXyUHc+3vUOPLsO6aKuozpC0U6qNw4OPTtTnklbBZRk96L2G3mtCV2HaMg57iorV5rm2WRsY4/E1pHVE6uVgMU7E+YB3Apsiz5wYt3HappI5i3QZ7D1pA0obAjyfZu9NXtqToZpRra63OvyPx9DU52JgAY9cGpL6I3EBhYHJGAQehqjGoZfLZRuQ4YmmTqmXoZnt+VlO3GSM1qWk4ukA8xyCOgIrCKRhV/ek+vNWrK6+ysCJDtpNajTdy9MzadMBuYxk5yP4TUgWOUmQxE5P3sVNstr+DLM3zcnJ/Wq9vcPYu1jOz4UnY2eopJ3fmUtFqLtb/lnnFFSEg/dZwPpRRzvsVyo8USMiYAtx1q8ZCG3c8CkW1MV6YJgAVODTpkKk7QfrXa3Y4RjMWGPbJJqBWJZcZyW6jirAVvL3sM5Hr0/Cobd7cN++JGDkc/0oTuBovIBHsEAViuCcdqYi5XOD1GD6VHHdyzzEu3b9O1TK+5guduetQAsanliTUqxHaCwGcetNjkCueOM/ep4k3D5cAepoAVrfbhwQD/ABe9SI4CbVHOKZ5w8vt6Z6UgkEbHbg8dOtAEpaUgAY44NAnMO5skk9aheZsBieCTnHXNNWK5nbCHAx3NAEsl2pHyr26d6WG2mvCJSGVRxyOtTWtgkKB5E3MT1NTrPcQt5aIWJ5HHA/Gob6ArdRkdsluoCIV579TUkhL85I9TmnmO8kkEkqg44xuwKeIi/wC7Upnv0pF200IRceVtY+vzfLyRTzcRy7fK3Lk87h1qZbFF+eTLH26CrCW0aqP3fP0pN2Gk7EMCxsMquPcnrU6QRKPMZ154+8DT2jQAAxLnuAOlMzEVYJGhK9gKN0XZIc0UCKWYqQRwOuaiNjucZQBcZwD1pYBEh3sGJx/d6U9LhWbaC2D6r6VPkMVY1X92sOCB/e6UkSBgwG4H3NLu3PkngD160pkZf3qjJPQZqm7IBCkZYhievQilFruXcBj2p0e4MWkOTjjjp+NIPOkbdH8o75qdegD0gVQCp6dqdzwF9cgCkyw5/PFILoowYL2+UYp+8hq3UdI5VTuAJJ9aZFCAfMZxnPQnpT4E3EuUBJJ3Zp8vlscJEFGBj8KkQm4KMs69uhpUkQkHABP3ecUixBhv8telMm8tcCROnoOaBp2JpXUgbQpJ9+lKpaMYC5981WgiZSWCnd/KpBI6YYqeDngU7MpbFkOxcZgbHpntUm+TIQL+vX61VW9BbLLIM9Mg1J9qgHXfn/dNIZJNOwIiMIJ56ninQBkG0dMcmq8MSzFriVmG7hR9KmMBVQVkbp3NAJlhdpXBJz05p6BG+bZ7cVVQ7jtBYY6571IVcOFjmx9Tmgd2noOuZIUjOSxLcbRUaX9sqbWDjbzwpqPzM3J8yQHbx1708yqG57980r6iUhs91FMF8oOQT8wxg1m6tNvkKrCRjvu6VPeXSuzGIscDbxxWPdSYdt7u31P9a0pxvoYyd2TaG0Mmqb5Cx2LXSLMp+dVHTGcVi+EdMiuDJdyT46ADFbx05R8sU/Wpm43HBSsJ9rSIDEa5I5BGeagkvGGfMt427j5eKsHSSUJ+0Iw/3uc/ShdHdgQZ14HQGk7I0auVdPuN8O4HAznp+lToQyZV8lvvZFRabZ3ARokK4DHk9qsraXi4JZTjrxigS2IrdF8uQSKCwbjjtT2SKRQUiQDGRxzinW9mZZ5AzEHHODioZ9PRefMkAHo/Wo0crI0jflQphtmzGsCjAPaqNnfNGZLFYC2xuzY4qf7OqsWEjjI5y+apTLDZXwlR2IcYOe5rRWtYiWheae4xvFt0OMFxUTSS7xiAgE8/Nnika8gLfx5x6ECmm9ROFY+vTNJ2uNtW3HSPIgyYSB2Oc1VvNwlFyVKqeGbP64qwbpXUlXwfUioLk742DlTkcc0Gb1EKgDzJQfVSD1oMgTDhiAfU1XQvINplwV6801vNBwZMiqS7iujUsdTeBwGnIXsM8VpTz297Asxb5l+6c85rly8yHAlX2ytS29xOhz9oAzjqKHHW6KU1sdFFq8SptuHYMODiisVjNKd4mQ/UUVPIVzyOM1cN/bMzMgDE5OKSMkkqRn1oorfdI5AkiTay46ZIrMVGaQscd6KK0WwFi1DElSe1W0RSmVJ46miipe4C+ZtwpHOaWKU7ih4+bpRRSAVp2HO0ZFEJa7bavHOSR2FFFAGpY2kNsDcLhyeTvXIx9KuSwpFAt2YhhjwBxRRUdiokD/6R8oXAHOAcU9mMSbhH0H9+iinLYofAryqN7/L6VIIYBxtOfbiiipLjsK1srkFmf6ByKf5CIN3muBj+8TRRQOysNR2kwkUx2jhmI5qXy44YxtGAe+eTRRUv4g6i7WChiOCfWnYKJnAoopPdAR3N2GdFiiAOODREyoTlCWPfd/nFFFUthdSQy+Xw6fe9+1AmAjwT34oooskMSa8QfIchielLEinMrnnPJFFFNjFYp9/ew5I609kAAO9iODnNFFQ9xDU3FfMVzycAUsCG43PksF4wTiiiiXwgTqyQtgZy1PV1/g6570UUkVEVpmC72jGAO5zVecvM4gj6vk46YxzRRT7FD43mChD27Zp5nkAzjgYGM0UUiX8Q8XMjsI3UZI4xQLkQcsvOM4ooprcoSAx8s6g5bk4pWMABbBAA4FFFG7FZFKV2Ns0iHgDJ4rJd1kZnbJbHToB70UVpHqYTOh8J6e39nCWN85OW7VrwR7iTGO2OTRRWLbszVaQRPJprqqO4AyeMUiiNZGjdcDGCRRRUx13NIpWM/TLgoMRv/GeSvbNXBeKPlL5APXZzRRVSdjOOiY2GQyXLPFL/AA9dmOKgvRKJfnmwCcLhaKKz5nzG6+AplrhDk7Tg8nFU9XBZFm7qwJwP0oorS+qOd/CPR0aHzcnBHPFNJjEYbHWiimJbAJVYArjGe60x5Bv2lRx/s9KKKFuMp3zeU6zR8Yb5hjrTpLvCksgBYdaKK0IluQhkl/e9cUAhhkDP/wBaiihdRDlu1QbQxooooA//2Q==;" vertex="1" parent="1">
          <mxGeometry x="376" y="78" width="500" height="375" as="geometry" />
        </mxCell>
      </root>
    </mxGraphModel>
  </diagram>
</mxfile>
